<svg width="111" height="115" viewBox="0 0 111 115"  xmlns="http://www.w3.org/2000/svg">
<path d="M72.3711 111.592C70.4461 109.927 64.8212 105.681 59.8712 102.157C50.359 95.3841 48.2682 93.6592 44.5782 89.5396C42.6634 87.402 44.1035 87.8866 53.3096 92.478C65.6963 98.6557 72.5819 99.7577 77.7278 96.386C81.3389 94.0199 88.7136 83.744 93.0024 75.1022C96.4462 68.163 96.4905 67.9217 94.9841 64.3162C93.2458 60.1558 88.7547 57.7001 82.8845 57.7001C78.9582 57.7001 69.5113 60.8242 59.0279 65.5895C55.2642 67.3004 51.7882 68.7001 51.3036 68.7001C50.3603 68.7001 48.068 64.6378 46.9304 60.9501C46.3736 59.1452 46.6247 58.7001 48.1995 58.7001C49.4492 58.7001 51.2648 56.9739 53.1954 53.9501C57.3986 47.3669 64.3711 32.6972 64.3711 30.4373C64.3711 27.8548 62.5505 24.6934 61.086 24.7329C58.0593 24.8146 44.7184 48.1318 38.934 63.4501C35.9502 71.3519 34.2179 72.3824 29.488 69.0694C23.9278 65.1749 23.0809 55.9927 26.4714 36.3612C27.7171 29.1485 28.3324 22.4498 27.9835 19.8986C27.1883 14.0839 28.6081 15.3253 31.7612 23.2017C34.0668 28.961 34.3711 31.1192 34.3711 41.7107C34.3711 48.4131 34.7802 53.7001 35.2987 53.7001C35.8089 53.7001 37.9051 50.8876 39.957 47.4501C42.0089 44.0126 46.7664 36.8718 50.5294 31.5817C54.2924 26.2916 57.3711 21.5022 57.3711 20.9387C57.3711 16.7471 73.8552 19.3931 78.4922 24.329C82.138 28.2098 81.2605 31.0142 73.9886 38.7228C67.4726 45.6301 59.6533 56.3157 60.4973 57.1596C60.7335 57.3957 65.1891 55.9699 70.3989 53.9912C75.6086 52.0124 82.1247 50.1908 84.879 49.943C104.216 48.2039 116.516 66.2447 108.023 83.8882C104.454 91.3025 96.0087 104.309 92.0192 108.535C85.3612 115.59 78.2689 116.693 72.3711 111.592ZM4.36773 97.8506C0.842531 94.3254 0.0425354 90.2232 1.12068 81.2001L1.95712 74.2001L4.16736 78.4167C5.383 80.7358 7.3418 83.1493 8.52022 83.7799C12.1861 85.7419 19.424 84.211 31.3711 78.9468C37.6961 76.1599 44.2573 73.5953 45.9516 73.2477C50.2318 72.3695 57.3543 74.1525 63.1004 77.5405C65.7668 79.1127 70.406 81.2182 73.4098 82.2195L78.8711 84.0399L75.6142 85.3757C73.8229 86.1104 70.2909 87.2642 67.7652 87.9397C63.2661 89.143 63.0077 89.0803 55.0221 84.8463C49.0088 81.6581 46.2155 80.6932 44.3711 81.1671C42.9961 81.5204 38.0995 84.6653 33.4898 88.1556C23.5416 95.6883 14.2182 100.7 10.1537 100.7C8.25878 100.7 6.20659 99.6894 4.36773 97.8506ZM39.5061 18.1603C36.0888 15.2848 34.0735 11.9564 32.9721 7.36922L32.2924 4.53831L35.8073 7.21922C38.0384 8.92098 40.5729 9.90014 42.7467 9.90014C48.3313 9.90014 57.1187 6.8607 60.7487 3.67349C62.7442 1.92142 65.2618 0.700134 66.8781 0.700134C70.6051 0.700134 81.3711 5.64099 81.3711 7.3514C81.3711 9.71608 75.7012 12.3309 62.5517 16.0303C43.7906 21.3085 43.3013 21.3537 39.5061 18.1603Z" />
</svg>
