<svg width="111" height="111" viewBox="0 0 111 111"  xmlns="http://www.w3.org/2000/svg">
<path d="M29.6204 108.563C27.5403 106.3 19.8482 91.7716 20.73 91.7716C20.9805 91.7716 22.8053 92.7273 24.7852 93.8955C26.7652 95.0637 28.7034 95.7021 29.0924 95.3142C29.4814 94.9263 29.8918 86.883 30.0043 77.4402C30.2054 60.5866 30.1816 60.3725 28.7124 65.7716C27.8893 68.7966 26.0711 74.764 24.672 79.0325C22.4443 85.8291 21.6107 87.1426 17.9639 89.6027C10.4842 94.6486 0.0140229 99.9584 0.610848 98.4031C0.921147 97.5949 7.05285 86.7161 14.2372 74.228C21.4216 61.74 27.2997 51.3535 27.2997 51.147C27.2997 49.5693 23.4385 51.5747 18.3954 55.7716C15.091 58.5216 11.5373 60.7716 10.4985 60.7716C6.93265 60.7716 4.93367 57.1684 4.71287 50.3432C4.59986 46.8511 4.18708 42.4813 3.79556 40.6327L3.08367 37.2716L6.41347 40.6271C9.41759 43.6544 10.1514 43.9266 13.9156 43.4107C16.2103 43.0963 20.8843 42.0614 24.3023 41.1111L30.5167 39.3833L30.0627 29.8275C29.74 23.0295 28.9972 18.9007 27.4898 15.5216C26.3244 12.9091 25.6923 10.7756 26.0852 10.7805C27.5379 10.7986 39.718 20.8605 41.4104 23.4403C43.1094 26.0303 43.0864 26.2589 40.6419 31.0829L38.1221 36.0556L42.0863 35.4217C45.2199 34.9206 46.6006 35.2202 48.6751 36.8522C52.5992 39.9389 52.0714 42.5191 47.0497 44.7985C44.7122 45.8595 41.7872 46.7375 40.5497 46.7496C38.4404 46.7685 38.2999 47.1936 38.3034 53.5216L38.3072 60.2716L42.699 62.0774C48.834 64.6 50.6917 66.8982 49.8967 70.9816C49.5444 72.7911 48.4133 75.3678 47.3832 76.7077L45.5102 79.1438L42.3192 73.9577C40.5641 71.1053 39.0542 68.771 38.9639 68.7703C38.8735 68.7696 38.9261 76.5321 39.0821 86.0203C39.3267 100.959 39.1256 103.741 37.5822 106.772C35.4207 111.016 32.4821 111.677 29.6204 108.563ZM45.3843 106.584C44.7731 104.831 43.996 101.039 43.6572 98.1567L43.0414 92.9165L47.0973 94.3139C50.7421 95.5696 51.9463 95.5046 58.9765 93.6724C63.2793 92.551 67.168 91.2737 67.6181 90.8341C68.0683 90.3945 68.7831 87.4803 69.2068 84.3581C69.8815 79.3866 69.7798 78.7618 68.3884 79.3287C60.5722 82.5137 59.1593 82.3582 56.9787 78.073C53.5484 71.3321 53.6424 71.1508 60.6032 71.0853C70.7376 70.9901 71.3023 70.613 71.2844 63.9542C71.2617 55.8414 70.587 55.2659 65.2624 58.8239C62.8079 60.4641 59.904 61.6858 58.8092 61.5388C57.6941 61.3891 55.3798 59.0725 53.5474 56.2716L50.2763 51.2716L54.038 50.593C56.1069 50.22 59.8947 49.6361 62.4553 49.2959L67.1108 48.6774L68.2053 42.3925C68.8072 38.9359 69.2997 35.777 69.2997 35.3727C69.2997 34.9684 67.3409 36.2428 64.9467 38.2046C62.5526 40.1664 60.3201 41.7716 59.9857 41.7716C58.3295 41.7716 49.2997 28.7605 49.2997 26.3741C49.2997 26.0143 50.7236 26.4565 52.4639 27.3565C54.8846 28.6083 57.0153 28.8358 61.5315 28.3249C64.7783 27.9575 68.0794 27.4096 68.8672 27.1073C72.1018 25.8661 69.6815 14.3637 64.3691 5.72994C61.3253 0.783031 61.2964 0.632983 63.5097 1.25585C64.7692 1.61033 69.1747 3.55887 73.2997 5.58596C82.6191 10.1657 84.1628 12.4863 82.6859 19.6962C82.1141 22.4877 81.8156 24.7716 82.0226 24.7716C82.2297 24.7716 83.7399 24.0782 85.3787 23.2307C89.0107 21.3526 89.4825 21.6154 92.6491 27.281L95.1589 31.7716H89.8543C79.5308 31.7716 78.8847 32.1525 76.555 39.6131C75.4114 43.2752 74.5773 46.3751 74.7013 46.5018C74.8252 46.6284 78.5928 46.0405 83.0736 45.1954C92.1161 43.4899 95.2997 44.2145 95.2997 47.978C95.2997 49.1529 96.0084 50.8972 96.8747 51.8544C98.3622 53.4982 97.8751 53.5887 88.1008 53.4844C75.7539 53.3529 73.9264 54.0484 78.5183 57.1322C81.0863 58.8568 81.8672 60.1442 82.1101 63.0537C82.4026 66.5604 82.6151 66.7716 85.8466 66.7716C88.835 66.7716 89.4914 67.2508 90.9835 70.5216C91.9244 72.5841 92.868 74.6091 93.0803 75.0216C93.2927 75.4341 90.2962 75.7716 86.4216 75.7716H79.3768L78.3524 79.5761C77.7889 81.6685 77.05 84.7705 76.7102 86.4692L76.0925 89.5579L82.9461 89.0673C86.7156 88.7975 92.0673 88.0131 94.8389 87.3242C101.591 85.6457 104.008 86.6445 104.866 91.4689C105.238 93.5604 106.692 96.5044 108.098 98.0111C109.504 99.5179 110.367 101.038 110.016 101.389C109.665 101.739 106.066 101.534 102.019 100.932C78.4907 97.4324 68.1898 98.5382 57.0825 105.756C49.429 110.729 46.8917 110.908 45.3843 106.584Z" />
</svg>
