<svg width="35" height="83" viewBox="0 0 35 83"  xmlns="http://www.w3.org/2000/svg">
<path d="M14.1262 80.5257C7.7198 78.3127 4.25486 75.2859 1.74858 69.7129C0.136345 66.1279 0.0222078 64.8586 0.972759 61.0836C2.25413 55.9948 6.76305 50.061 11.022 47.8586L13.9535 46.3427L10.5649 50.782C6.41673 56.2164 5.41684 59.8101 6.99379 63.6172C8.5449 67.3619 12.608 69.4053 18.6109 69.4598C24.6794 69.5149 31.7568 70.8625 33.116 72.2217C34.9498 74.0555 34.2915 78.6894 31.9248 80.6058C28.9952 82.9781 21.1235 82.9427 14.1262 80.5257ZM11.2825 42.0597C8.58743 39.7415 8.53217 39.4587 7.89135 24.7014C7.2997 11.0764 7.00183 9.27356 4.64562 5.05791L2.05135 0.41626H7.43396C14.0553 0.41626 17.7683 2.00133 18.5629 5.16713C19.2852 8.04495 18.4605 15.9247 16.2654 27.115C15.3809 31.6243 14.9251 36.0118 15.2525 36.865C16.1157 39.1143 19.108 38.7715 23.271 35.9464C27.4691 33.0975 27.6979 33.4063 24.8286 38.049C20.7206 44.6957 15.9791 46.0996 11.2825 42.0597Z" />
</svg>
