<svg width="125" height="126" viewBox="0 0 125 126"  xmlns="http://www.w3.org/2000/svg">
<path d="M28.4256 122.444C25.2563 118.677 25.1211 114.913 27.8684 106.928C30.3221 99.7964 32.9247 95.7516 39.6735 88.5817C42.4891 85.5905 44.5998 82.9502 44.364 82.7144C44.1282 82.4786 41.0607 83.6308 37.5473 85.275C33.0465 87.3811 28.1795 91.0805 21.0738 97.7962C10.6993 107.601 6.849 109.668 2.89535 107.552C-1.03933 105.446 0.949907 98.0818 7.40765 90.8475C9.2866 88.7425 10.5711 87.7623 10.2621 88.6692C9.09199 92.1033 12.3082 91.586 21.3748 86.8816L30.7438 82.0203L34.2032 74.5203C36.1059 70.3953 37.9572 66.0074 38.3173 64.7693C38.923 62.6871 38.7748 62.5934 36.3393 63.5193C34.8913 64.0699 31.7266 64.5203 29.3068 64.5203C24.2494 64.5203 22.2036 62.179 23.3321 57.6828C24.4449 53.2488 25.891 52.1529 27.534 54.4985C29.9565 57.9571 35.1128 56.9296 43.5169 51.3137C45.8159 49.7773 48.3485 48.5203 49.1447 48.5203C50.7934 48.5203 56.9745 50.9793 58.0515 52.0636C59.3585 53.3795 56.9389 56.2696 52.1095 59.1614L47.3367 62.0192L52.9331 62.5198C63.8977 63.5005 64.7809 67.5986 55.0867 72.5129L48.3366 75.9347L53.3367 76.4953C56.0867 76.8037 58.8799 77.4001 59.5438 77.8207C60.3403 78.3252 62.2602 76.3356 65.1878 71.9716C69.0255 66.2509 69.5549 64.8387 69.1089 61.5134C68.8255 59.399 69.1165 52.573 69.7583 46.3446C70.8115 36.1063 70.736 34.2052 68.9707 26.5203C65.3077 10.5741 65.3062 10.8324 69.0784 7.22428C73.9557 2.55896 76.957 0.307142 77.5318 0.881922C78.5785 1.92861 82.8371 14.7036 82.8435 16.8158C82.8473 18.0283 82.0889 22.9924 81.1587 27.8471C79.6969 35.4752 79.6621 36.7961 80.902 37.5743C81.6912 38.0695 83.0119 38.307 83.8369 38.1021C97.5423 34.6976 98.8369 34.1048 98.8369 31.2332C98.8369 28.0005 96.5607 23.0864 93.4699 19.6461L91.3369 17.2719L93.5327 17.9463C94.7404 18.3172 98.287 18.8171 101.414 19.057C111.736 19.8491 112.003 21.6524 104.137 37.4649C96.9251 51.963 96.4551 56.6194 101.835 60.277C106.867 63.6983 107.246 64.914 104.671 69.3869L102.426 73.2884L106.381 79.2625C108.557 82.5482 113.133 87.5529 116.55 90.3841C124.392 96.8813 125.971 101.168 122.997 107.89C120.663 113.167 116.096 116.813 108.242 119.669C103.56 121.371 99.9191 121.837 90.6642 121.918C77.6892 122.032 75.6748 121.272 71.0868 114.53C67.1548 108.753 68.3106 101.395 75.705 85.132C77.4275 81.3434 78.8369 78.087 78.8369 77.8954C78.8369 77.7039 77.2213 76.8721 75.2468 76.0471C73.2722 75.2221 71.4197 73.6411 71.1301 72.5337C70.8406 71.4263 70.2919 70.5203 69.911 70.5203C69.0559 70.5203 59.7912 85.9792 59.1292 88.5105C58.865 89.5206 59.5756 91.6236 60.7083 93.1837C64.7218 98.7119 65.3161 108.019 62.0457 114.13C60.1067 117.753 52.9486 123.52 50.3907 123.52C43.436 123.52 43.1012 110.878 49.696 97.2886L52.4775 91.5568L49.1184 90.4482C44.9484 89.072 43.6804 89.9808 40.0367 96.9575C37.7005 101.431 37.3862 103.2 37.3394 112.147C37.2839 122.725 36.3358 125.52 32.8033 125.52C31.8195 125.52 29.8495 124.136 28.4256 122.444ZM95.3192 110.983C110.696 106.978 112.941 101.585 106.336 84.5203C104.314 79.2953 102.324 74.6679 101.915 74.2372C101.505 73.8064 100.357 75.2571 99.3634 77.4609L97.5566 81.4679L101.197 85.497C105.985 90.7971 106.112 94.4889 101.587 96.8344C99.7992 97.7609 95.8617 99.8596 92.8366 101.498C86.3867 104.992 84.4795 105.376 88.2297 102.426C91.0146 100.235 94.8367 93.6799 94.8367 91.0941C94.8367 90.2658 94.0979 88.0389 93.1949 86.1453C91.5736 82.7453 91.5966 82.6232 95.0446 76.3504L98.5361 69.9983L96.4364 67.1867C94.1312 64.0998 93.6612 57.4602 95.1949 49.6498L96.0532 45.2794L92.8324 47.1498C91.061 48.1786 86.475 51.9809 82.6413 55.5993C76.6989 61.208 75.7199 62.6045 76.0037 65.0678C76.3715 68.2579 78.7604 69.8252 85.3367 71.1901C91.2893 72.4256 91.1114 74.9069 84.3863 84.4498C75.8877 96.5095 73.9278 103.824 77.8567 108.819C80.9041 112.693 86.2234 113.352 95.3192 110.983ZM56.1764 109.124C58.6498 105.35 59.1291 101.934 57.7623 97.8234L56.4977 94.0203L54.2318 99.1673C52.9856 101.998 51.6618 105.936 51.29 107.917C50.6973 111.077 50.8596 111.52 52.6104 111.52C53.7083 111.52 55.3131 110.442 56.1764 109.124ZM56.6547 85.0203C57.9757 82.1211 56.6925 81.7182 52.3838 83.6808C49.4122 85.0348 49.1207 86.1866 51.5867 86.831C54.947 87.7091 55.5235 87.5031 56.6547 85.0203ZM47.8411 72.8997C50.0387 70.5156 51.8367 67.8958 51.8367 67.0779C51.8367 65.5173 48.8962 63.5088 46.6524 63.5367C45.5957 63.5498 36.8513 74.6186 33.6053 80.0519C33.147 80.8192 34.9215 80.5218 38.3597 79.2553C41.9861 77.9194 45.1998 75.7653 47.8411 72.8997ZM83.6991 42.3198C81.5579 41.9346 79.4229 41.3826 78.9547 41.0933C78.4864 40.8039 77.5934 43.1066 76.97 46.2105C74.9276 56.3803 75.2614 56.6116 81.7144 49.4989L87.5922 43.0203L83.6991 42.3198ZM44.0815 40.9511C39.925 38.46 36.8367 34.2266 36.8367 31.0203C36.8367 28.8082 39.675 23.5203 40.8624 23.5203C41.3983 23.5203 41.8367 24.6641 41.8367 26.0621C41.8367 28.2187 42.7994 29.0359 48.188 31.4536C54.7656 34.4048 56.3481 36.3069 55.2246 39.9112C53.8618 44.283 50.2094 44.6238 44.0815 40.9511Z" />
</svg>
