<svg width="105" height="95" viewBox="0 0 105 95"  xmlns="http://www.w3.org/2000/svg">
<path d="M24.0975 93.0857C23.1873 92.0799 22.4425 90.785 22.4425 90.2081C22.4425 89.6313 21.7675 88.5991 20.9425 87.9145C20.1175 87.2298 19.4425 86.3648 19.4425 85.9924C19.4425 85.6201 23.3036 84.7569 28.0229 84.0745C32.7421 83.3922 38.3671 82.1282 40.5229 81.2656C44.1486 79.8149 44.4425 79.4035 44.4425 75.7793V71.8613L39.2058 75.3879C36.3257 77.3275 33.4791 78.9145 32.8802 78.9145C31.5765 78.9145 28.1328 75.2697 26.5711 72.2371C25.4743 70.1073 25.5645 70.0715 30.6962 70.5972C33.5817 70.8928 37.855 70.6161 40.1925 69.986C44.0042 68.9558 44.4425 68.525 44.4425 65.8085C44.4425 63.4023 44.0827 62.8813 42.6925 63.274C33.8305 65.7773 30.5958 65.0545 27.985 59.9873L26.6594 57.4145L34.5774 57.3049C38.9323 57.2444 42.7534 56.9371 43.0686 56.6219C43.9843 55.7062 41.379 48.8358 40.3558 49.4682C39.8468 49.7826 37.601 50.0654 35.3652 50.0962C32.2951 50.1386 30.6316 49.5119 28.5688 47.5356L25.8375 44.9189L20.0894 50.4862C11.1843 59.1115 4.80222 60.5817 1.53153 54.7613C0.245656 52.4729 0.378661 51.7394 3.03155 46.4873C5.83396 40.9392 5.96322 40.8304 6.4981 43.5695C7.14685 46.8917 8.52594 46.8348 13.181 43.2939C23.8751 35.1591 35.4106 21.9446 40.3202 12.2045C43.1702 6.55076 43.0102 5.23144 39.1925 2.90374L35.9425 0.922182L41.6358 0.918476C46.3577 0.915377 47.5901 1.28736 48.8587 3.09858C49.7 4.29968 50.1471 6.2436 49.8522 7.41843C49.4112 9.17557 50.4361 10.2824 55.6293 13.6577C59.1016 15.9145 67.7925 22.9894 74.9425 29.3797C89.3982 42.2995 96.3817 46.4961 101.639 45.4226L104.942 44.7481L100.943 47.4919C98.7425 49.001 95.04 51.9635 92.7148 54.0752C85.6711 60.4722 82.9409 59.1449 75.3738 45.6447C67.1691 31.0071 56.1711 17.5157 49.5582 13.9766C47.7058 12.9852 47.2514 13.3566 45.0711 17.6441C43.7369 20.2679 39.6189 26.4647 35.9201 31.4147C32.2212 36.3647 28.9775 40.9772 28.7117 41.6647C27.7778 44.0807 37.8361 43.088 46.4425 39.9147C55.9001 36.4275 60.2939 36.1546 63.5817 38.8502C65.6714 40.5634 65.7702 40.9509 64.4425 42.2243C63.6175 43.0156 58.6675 44.7079 53.4425 45.9851L43.9425 48.3072L48.4425 49.173C50.9175 49.6492 53.7301 50.9609 54.6928 52.0879C56.0951 53.7296 57.1393 54.0065 59.943 53.4806C62.8742 52.9307 63.8661 53.2474 66.0487 55.43C67.4819 56.8632 68.3825 58.308 68.0499 58.6406C67.7173 58.9732 64.407 59.7421 60.6938 60.3492C55.0025 61.2797 53.8946 61.7858 53.6375 63.5731C53.3476 65.5872 53.6488 65.6677 59.6946 65.1825C66.5146 64.6351 69.4425 66.0411 69.4425 69.8637C69.4425 72.3817 67.9631 73.3209 59.9425 75.8952C53.5043 77.9617 50.4425 79.9781 50.4425 82.1516C50.4425 82.6216 54.9618 82.695 60.4855 82.3145L70.5284 81.6228L73.4855 84.4558C76.6818 87.5181 77.3106 90.3675 74.9869 91.2592C74.1863 91.5665 70.6988 91.3473 67.2369 90.7719C59.0108 89.4051 42.9561 90.4953 35.118 92.9526C27.4436 95.3588 26.1684 95.3738 24.0975 93.0857ZM43.4135 83.9535C46.0813 82.2664 43.8402 81.88 39.8552 83.34C36.0252 84.7432 36.0059 84.7747 38.9425 84.8287C40.5925 84.8589 42.6045 84.4651 43.4135 83.9535ZM55.9425 71.9144L58.8167 68.9144H55.7431C53.0925 68.9144 52.6089 69.3273 52.2292 71.9144C51.9869 73.5645 52.0769 74.9145 52.4287 74.9145C52.7806 74.9145 54.3617 73.5645 55.9425 71.9144Z" />
</svg>
