<svg width="118" height="117" viewBox="0 0 118 117"  xmlns="http://www.w3.org/2000/svg">
<path d="M19.9421 113.453C18.9161 111.766 17.7816 108.16 17.4208 105.441C17.0599 102.721 16.5193 99.8563 16.2193 99.0744C15.8091 98.0055 16.6244 98.138 19.5053 99.6085C23.2782 101.534 26.0269 101.579 35.1562 99.8614C37.8457 99.3555 37.8972 99.2445 36.2749 97.4519C35.0453 96.0932 34.6105 93.9692 34.7051 89.7835C34.8208 84.6747 34.5718 83.8783 32.5865 83.0073C30.7938 82.2208 30.2757 81.0735 30.0357 77.3577C29.8702 74.7933 30.1487 71.1933 30.6553 69.3577L31.5761 66.0204L32.6023 68.5615C34.478 73.2059 35.9897 73.7738 42.7566 72.3761C48.4903 71.1918 48.8369 70.9569 48.8369 68.2546C48.8369 63.2617 47.3014 61.5707 43.3499 62.212C40.5159 62.6719 39.5169 62.3467 37.9971 60.4699L36.1286 58.1624L33.0121 61.5914C31.298 63.4773 29.8824 65.3446 29.8663 65.7408C29.796 67.4701 14.1549 79.6296 7.56759 83.0761L0.336914 86.8592L11.5965 75.1199C24.4139 61.7565 34.3252 47.5476 42.3579 31.0204C49.6436 16.03 51.1123 11.2394 50.3204 5.04879L49.6771 0.0203857L52.4207 3.77589C54.2199 6.23875 56.4093 7.86669 58.7815 8.50545C67.1092 10.7479 68.6195 15.032 63.4633 21.7869L59.9554 26.3824L73.3944 39.4302C90.5627 56.0986 92.1176 56.9195 105.287 56.2662C110.814 55.992 116.237 55.4517 117.337 55.0656C119.534 54.2941 108.696 65.0122 99.535 72.6704C96.344 75.3379 93.1617 77.5204 92.4634 77.5204C91.765 77.5204 89.2225 74.0329 86.8134 69.7704C84.4043 65.5079 80.5305 59.0954 78.205 55.5204C72.0835 46.1099 57.7872 29.1663 56.8125 30.1665C56.3547 30.6361 52.3642 35.9704 47.9447 42.0204C38.5379 54.8975 38.7248 55.2241 52.839 50.5729C57.9335 48.894 63.0823 47.5204 64.2808 47.5204C66.4711 47.5204 70.8369 50.8284 70.8369 52.4879C70.8369 54.1723 67.6898 56.5204 65.4323 56.5204C61.7615 56.5204 51.837 58.732 51.837 59.55C51.837 59.9645 53.0719 60.6135 54.5813 60.9924C58.2026 61.9012 59.8369 63.3474 59.8369 65.6428C59.8369 67.8985 59.6033 67.8876 68.3373 66.0382C74.8463 64.6599 75.5067 64.6809 77.7596 66.3383C84.1582 71.0459 83.1441 74.16 74.9091 75.0917C68.1422 75.8573 67.9038 76.9266 74.1292 78.591C79.4413 80.0112 80.8369 81.164 80.8369 84.1316C80.8369 86.0878 79.45 87.1954 72.8369 90.5204C68.4369 92.7327 64.8369 94.7023 64.8369 94.8973C64.8369 95.0923 66.7494 94.8855 69.0869 94.4375C71.4244 93.9897 77.8998 93.3121 83.4767 92.9317C93.1271 92.2734 93.671 92.3418 94.745 94.3486C95.3657 95.5084 95.776 97.7364 95.6569 99.2999C95.5378 100.863 96.4792 103.824 97.7491 105.878L100.058 109.614L97.1974 108.963C95.6241 108.605 91.6845 107.654 88.4428 106.851C74.2488 103.335 60.8397 103.421 45.3369 107.128C37.2869 109.053 32.1536 111.405 29.4319 114.414C26.5281 117.625 22.2135 117.188 19.9421 113.453ZM49.6261 88.6484C49.8521 81.3288 49.6336 79.3807 48.6261 79.7527C47.917 80.0147 44.9507 81.0136 42.0342 81.9726L36.7315 83.7161L39.1871 86.8682C40.6269 88.7164 42.5102 89.9875 43.7398 89.941C46.0916 89.8519 46.2497 90.5943 44.8891 95.3384C43.9731 98.5324 44.0317 98.6327 46.6391 98.3318C49.3317 98.021 49.3375 98.0022 49.6261 88.6484ZM65.5225 87.3392C69.4993 80.6994 69.2211 76.5204 64.8022 76.5204C59.1023 76.5204 58.837 76.9769 58.837 86.7823C58.837 95.3371 58.9322 95.7439 60.5869 94.2442C61.5494 93.3718 63.7704 90.2646 65.5225 87.3392Z" />
</svg>
