<svg width="64" height="112" viewBox="0 0 64 112"  xmlns="http://www.w3.org/2000/svg">
<path d="M20.1569 111.273C17.6744 110.385 13.1567 105.72 13.1592 104.049C13.1605 103.189 14.9605 99.8376 17.1592 96.6009C19.3579 93.3641 21.1569 90.1858 21.1569 89.538C21.1569 86.9999 15.163 82.6211 10.9121 82.0538C7.27284 81.568 6.61378 81.116 6.35924 78.9307C5.98998 75.7606 12.5003 67.9998 17.5317 65.6122C21.4258 63.7643 27.3581 63.488 30.2226 65.021C31.7568 65.8421 32.1569 65.7284 32.1569 64.4714C32.1569 62.3716 29.6826 57.667 27.7228 56.0405C26.8615 55.3258 26.1569 54.3231 26.1569 53.8124C26.1569 52.3877 32.0607 50.2384 39.7317 48.8704C45.3299 47.8721 46.1778 47.4965 44.1569 46.9103C39.6667 45.608 29.6351 45.9516 24.0884 47.5978C19.6461 48.9162 17.4415 50.4641 11.984 56.0961C5.29031 63.0037 2.15687 64.2056 2.15687 59.8653C2.15687 58.8167 1.62144 57.1013 0.967033 56.0535C-0.400385 53.8639 0.58323 52.2425 5.32918 48.8632L8.17911 46.8338L6.06922 50.4098C3.12472 55.4004 4.99323 55.088 14.6817 48.9702C26.7756 41.3334 31.849 39.689 43.6569 39.579C52.3533 39.4981 54.1233 39.7759 57.2352 41.7113C60.0906 43.4871 63.1569 47.4661 63.1569 49.3956C63.1569 49.5691 57.8224 49.931 51.3025 50.1995C44.7827 50.4679 38.9327 51.0064 38.3025 51.3958C37.5262 51.8756 37.1551 56.8397 37.1513 66.7949C37.1434 87.229 35.8556 90.833 28.4726 91.08C26.462 91.1473 24.5424 92.4394 21.7593 95.5991C19.6156 98.0328 18.0985 100.261 18.3879 100.55C18.6774 100.84 23.3563 100.106 28.7855 98.9196C45.4237 95.2843 45.3316 95.2819 48.9762 99.4328C50.7256 101.425 52.1569 103.929 52.1569 104.998C52.1569 107.897 48.2396 109.921 41.5879 110.457C28.3394 111.525 21.5795 111.782 20.1569 111.273ZM25.9399 79.138C28.8937 70.2739 22.9164 66.7461 15.6917 73.0894C13.7475 74.7964 12.1569 76.7458 12.1569 77.4213C12.1569 78.908 21.0816 84.0613 23.074 83.725C23.8534 83.5935 25.1431 81.5293 25.9399 79.138ZM24.4598 35.2191L28.2626 31.2932L25.208 31.2063C16.7334 30.9651 16.1491 27.9347 22.2409 15.8185C25.5536 9.22989 26.2042 7.05167 25.6854 4.28629L25.0458 0.876953L28.2387 2.52807C32.1775 4.56489 36.1464 8.73567 36.1879 10.8817C36.2049 11.7639 32.7175 15.7352 28.4379 19.7069L20.6569 26.9282L24.1569 26.9289C26.0819 26.9294 30.5195 25.6476 34.0184 24.0805C37.5172 22.5134 41.2406 21.4564 42.2925 21.7314C44.7084 22.3632 48.4784 27.0641 47.419 28.1236C46.9816 28.561 43.4812 29.9869 39.6403 31.2922C35.7994 32.5976 29.9569 34.8984 26.6569 36.4053L20.6569 39.145L24.4598 35.2191Z" />
</svg>
