<svg width="97" height="104" viewBox="0 0 97 104"  xmlns="http://www.w3.org/2000/svg">
<path d="M34.992 102.729C25.3469 101.108 24.7878 97.4997 33.036 90.103L38.7996 84.9343L34.2996 82.875C31.8246 81.7423 28.8352 80.8056 27.6566 80.7935C25.155 80.7671 23.791 78.0894 25.3332 76.2311C28.7219 72.148 42.4626 68.7043 47.5496 70.6631C50.8416 71.9308 50.9735 73.5302 48.2298 78.9084C46.0892 83.1042 46.1989 84.408 48.6142 83.4811C50.3637 82.8098 51.2996 78.296 51.2996 70.53C51.2996 64.8049 51.1994 64.5651 49.0495 65.1398C44.1811 66.4414 30.382 68.0172 28.8846 67.4427C26.4809 66.5203 26.6987 59.7716 29.1322 59.7716C30.9069 59.7716 35.7629 54.5493 38.1373 50.0874C39.6864 47.1761 39.6128 46.7716 37.534 46.7716C36.5629 46.7716 34.2105 45.9362 32.3065 44.915L28.8446 43.0584L18.9772 51.915C10.0963 59.8861 8.7162 60.7716 5.17331 60.7716C0.261325 60.7716 -0.405858 59.3016 1.65999 53.0304C2.52218 50.4131 3.47169 47.0567 3.77 45.5718C4.30707 42.8988 4.34102 42.8884 7.19641 44.5272C9.9741 46.1214 10.2233 46.0879 13.955 43.6184C21.1328 38.8683 33.0652 28.8085 38.2478 23.1378C44.8347 15.9307 47.6119 10.496 47.7166 4.60777C47.8031 -0.26086 48.5357 -0.40154 52.0699 3.77163C55.6886 8.04442 49.7462 20.6184 38.2448 33.0251C33.8749 37.7388 30.2995 41.8998 30.2995 42.2715C30.2995 43.2482 38.3573 41.7678 41.2875 40.2527C43.3433 39.1898 44.2501 39.2118 46.5079 40.3793C51.0155 42.7103 52.6008 47.7716 48.8233 47.7716C47.3962 47.7716 34.041 58.2825 33.4663 59.8579C33.0848 60.9034 45.5429 60.9222 49.2788 59.8806C51.232 59.3365 51.9087 58.3068 52.4687 55.0268C53.9373 46.4236 56.9218 44.5958 61.4591 49.5204C68.3744 57.0259 68.255 59.677 60.904 61.8475L56.4517 63.1621L56.6255 71.7163C56.8504 82.7807 55.8496 87.3639 52.7672 89.3835C50.5048 90.8659 50.0563 90.8403 46.5688 89.0305L42.8092 87.0795L38.0723 90.175C35.467 91.8775 33.3273 93.608 33.3174 94.0205C33.2796 95.5387 47.9966 94.7278 54.8207 92.8355C62.7861 90.6268 65.6182 91.2928 68.2536 95.9943C69.6393 98.4663 69.6256 98.8729 68.1058 100.393C67.1847 101.314 64.264 102.424 61.6153 102.859C55.5445 103.858 41.2983 103.788 34.992 102.729ZM41.5319 79.3363C42.2329 75.6693 41.0181 74.4549 37.4359 75.2417C32.9839 76.2195 32.728 77.4527 36.5 79.7525C40.6877 82.3056 40.9688 82.2824 41.5319 79.3363ZM59.0484 56.6228C59.9133 55.7579 59.8329 54.7698 58.7225 52.6228C56.7528 48.814 55.2995 49.0186 55.2995 53.1049C55.2995 57.6506 56.7033 58.9679 59.0484 56.6228ZM87.2996 48.2716C85.8427 47.4388 81.8789 46.806 77.7996 46.7549L70.7996 46.6673L76.0477 44.6502C80.5727 42.911 81.1621 42.3832 80.3255 40.8199C78.5641 37.5287 69.0275 29.6823 61.3518 25.209C57.1981 22.7882 54.059 20.7994 54.3761 20.7895C54.6932 20.7782 59.7752 22.1256 65.6693 23.7806C85.0092 29.2112 96.2996 36.7032 96.2996 44.1062C96.2996 49.5921 92.6027 51.3032 87.2996 48.2716Z" />
</svg>
