<svg width="120" height="119" viewBox="0 0 120 119"  xmlns="http://www.w3.org/2000/svg">
<path d="M50.1182 116.27C48.9812 115.033 46.1872 111.336 43.9093 108.055C39.9714 102.384 39.8684 102.053 41.8166 101.332C42.9437 100.915 44.3093 99.4077 44.8512 97.9821C45.8071 95.4681 46.2942 68.5204 45.3838 68.5204C45.1347 68.5204 43.838 69.0182 42.5025 69.6268C40.3751 70.5961 39.9882 71.6186 39.3804 77.8768C37.5937 96.2737 32.4879 111.562 27.4968 113.459C26.1551 113.97 19.4952 114.66 12.6971 114.994L0.336656 115.601L5.33673 112.941C12.6676 109.041 18.5389 103.941 22.3735 98.1419C25.7895 92.9759 31.1758 80.0376 30.6131 78.3495C30.446 77.8481 25.4801 81.9563 19.5779 87.4791C8.94892 97.4246 6.82549 98.5998 3.75009 96.2385C-0.623694 92.8805 -1.12513 88.1654 2.00277 79.8079C4.13855 74.1012 4.18201 74.06 5.11608 76.8604C5.99089 79.4831 6.34159 79.6485 9.70001 79.0214C13.9726 78.2236 26.5676 72.5603 30.8488 69.5117C33.4453 67.6629 33.8367 66.7643 33.8367 62.6523C33.8367 54.3869 29.6715 52.9976 25.946 60.0204C24.633 62.4953 23.0248 64.5204 22.3721 64.5204C20.0969 64.5204 16.9493 59.9849 15.8642 55.1432C15.2632 52.4613 14.3442 49.4685 13.822 48.4927C12.9523 46.8677 13.1671 46.8089 16.3768 47.794C20.8267 49.1597 24.3016 47.6164 31.6338 41.0175L36.9309 36.2503L34.2954 42.1353C31.6482 48.0466 29.8367 52.4251 29.8367 52.9123C29.8367 53.0562 31.2045 52.9732 32.8761 52.7279C37.3336 52.0736 39.8367 54.7518 39.8367 60.1753C39.8367 65.0099 39.7199 64.8954 43.2716 63.5451L45.8367 62.5698L45.8216 46.7951C45.8141 38.119 45.3954 30.3709 44.8932 29.5772C44.1486 28.4003 43.497 28.3542 41.3615 29.3272C34.9353 32.2552 29.4028 29.4741 28.3254 22.7743C27.9932 20.7096 27.503 17.9638 27.2357 16.6725C26.8936 15.0195 27.1325 14.4823 28.0433 14.8575C34.8796 17.6737 36.9514 17.8497 42.6265 16.0969C45.7673 15.1269 52.1002 12.3503 56.6998 9.92675C66.652 4.68294 68.613 4.46666 70.1154 8.44712C70.723 10.0569 72.2922 11.8624 73.6025 12.4594L75.9849 13.5449L73.9843 16.7826C71.256 21.198 68.4309 31.7663 69.1804 34.7529C70.1474 38.6055 73.5615 42.2743 77.3402 43.5214C81.7334 44.9713 91.1385 43.2188 93.9264 40.4309C96.4975 37.8598 96.4738 29.251 93.8765 22.2811L91.9162 17.0203L94.3717 20.0203C95.7222 21.6703 97.9914 25.4953 99.4145 28.5203C100.838 31.5453 103.358 35.4364 105.015 37.167C108.784 41.1017 109.278 46.5234 106.154 49.6474C102.227 53.5747 88.1164 55.5498 77.9787 53.5913C69.3101 51.9166 64.3405 45.4431 63.3633 34.5528C62.0094 19.4651 61.6743 17.5203 60.4286 17.5203C58.5393 17.5203 45.4545 26.172 46.4652 26.753C46.9446 27.0286 49.7279 28.0346 52.6501 28.9886C59.4593 31.2114 60.683 33.7727 57.8778 39.9305C55.8449 44.393 53.339 57.3558 54.3197 58.3365C54.6289 58.6455 57.234 57.8534 60.1092 56.5763C67.3944 53.3402 69.9684 53.3836 71.6116 56.7703C72.3455 58.2828 73.7089 59.5272 74.6414 59.5357C78.0757 59.5667 78.8757 60.8916 77.2973 63.934C75.5501 67.3017 73.7872 77.5203 74.9534 77.5203C78.1257 77.5203 84.7635 68.2084 87.2007 60.339C87.6187 58.9891 88.7186 59.6238 92.7791 63.5582C95.5609 66.2535 97.8369 69.348 97.8369 70.4349C97.8369 72.3875 91.9276 75.7496 78.5032 81.4348C73.843 83.4084 73.693 83.5993 74.3246 86.7511C75.7134 93.6808 77.08 96.5267 80.4327 99.4704C83.6883 102.329 84.4108 102.52 91.9374 102.52C103.563 102.52 103.84 102.268 103.82 91.7352C103.808 86.942 103.177 80.0953 102.413 76.5203C101.649 72.9453 100.74 68.6703 100.394 67.0203C99.7665 64.026 102.957 71.4502 108.288 85.3888C110.049 89.9916 112.745 94.602 115.472 97.6722C120.208 103.005 120.973 106.453 118.276 110.304C115.439 114.354 110.992 115.823 100.076 116.318C88.0753 116.862 82.937 115.413 76.6108 109.697C71.7366 105.294 69.3767 100.753 67.8014 92.7457C67.1278 89.3218 66.4475 86.5203 66.2897 86.5203C66.1317 86.5203 63.901 87.4212 61.3322 88.5223C56.7145 90.5017 56.669 90.5672 57.3029 94.3196C58.7457 102.859 58.2006 110.101 55.7924 114.386C54.5143 116.66 53.1799 118.52 52.827 118.52C52.474 118.52 51.2551 117.508 50.1182 116.27ZM64.7718 84.5693C67.0036 82.8859 67.0523 82.5182 66.3479 72.6763C65.5351 61.3204 65.5694 61.356 57.5799 63.5748C54.445 64.4454 53.8988 64.9825 54.2799 66.8192C54.5312 68.0298 55.0188 72.6204 55.3637 77.0204C55.7088 81.4204 56.2292 86.0299 56.5206 87.2638C57.0289 89.4168 57.1596 89.4427 59.7595 87.9069C61.2497 87.0266 63.5052 85.5247 64.7718 84.5693ZM89.0251 95.7704C88.4452 94.2579 87.6634 91.8954 87.2876 90.5204C86.912 89.1454 85.5089 86.5579 84.1697 84.7704L81.735 81.5204H84.9701C86.7494 81.5204 90.1358 82.4549 92.4952 83.5971C95.8592 85.2255 96.9976 86.4434 97.7697 89.2398C98.8721 93.2324 97.9556 95.8512 94.8795 97.4974C91.7638 99.1649 90.1432 98.6868 89.0251 95.7704ZM81.2083 35.1064C74.6954 29.5316 74.2135 27.3119 77.3394 17.2861C79.8639 9.18907 79.9116 8.6354 78.3968 5.00995C77.5243 2.92178 76.9289 1.09604 77.0736 0.952765C77.7597 0.273468 88.3488 5.50017 89.5135 7.09305C92.2682 10.8602 91.1438 13.8148 85.7359 17.0204C82.9523 18.6704 80.2061 20.5829 79.6333 21.2704C78.0393 23.1835 80.4849 25.4405 84.9206 26.1498C90.0513 26.9702 92.0491 29.3509 91.6529 34.1723C91.3683 37.6372 91.0364 38.0498 88.3204 38.3163C86.0596 38.5381 84.2781 37.7341 81.2083 35.1064Z" />
</svg>
