<svg width="102" height="149" viewBox="0 0 102 149"  xmlns="http://www.w3.org/2000/svg">
<path d="M77.8186 148.807C76.7295 148.572 73.8842 146.659 71.4957 144.557C68.9977 142.358 64.1045 139.6 59.9759 138.064C56.0285 136.596 51.8988 134.991 50.7988 134.499L48.7988 133.604L50.7988 134.029C51.8988 134.262 57.4711 135.02 63.1816 135.712C72.845 136.885 73.6551 136.848 74.8736 135.181C77.9578 130.964 77.9536 112.789 74.8672 108.079C73.2803 105.657 73.302 105.615 76.1264 105.615C80.7033 105.615 84.933 107.517 86.1123 110.105C87.2571 112.618 89.7577 131.622 89.7328 137.621C89.7063 143.965 83.2893 149.99 77.8186 148.807ZM20.9093 140.365C18.6526 136.488 18.532 135.698 19.5353 131.366C20.73 126.208 19.9087 124.06 17.8293 126.904C16.1879 129.149 11.1479 130.626 5.30541 130.576L0.798828 130.536L3.92745 129.175C5.77054 128.373 8.95199 125.156 11.6703 121.347C16.9543 113.942 23.2989 103.617 23.2989 102.423C23.2989 101.978 21.9754 101.614 20.3578 101.614C18.7403 101.614 17.1683 101.212 16.8646 100.721C16.5607 100.229 18.3446 96.8593 20.8284 93.2317C26.4132 85.0754 27.2813 81.5969 24.4412 78.7567L22.3751 76.6907L25.9103 76.0275C29.0061 75.4467 29.8715 75.7773 32.8722 78.6856C34.7568 80.5123 36.2988 82.7731 36.2988 83.7098C36.2988 84.6464 33.5265 88.4719 30.1381 92.2109C24.5971 98.3252 24.1589 99.115 25.782 100.062C26.7746 100.641 28.7136 102.049 30.0908 103.19L32.595 105.266L27.3563 113.029L22.1176 120.793L24.1341 122.953C25.2431 124.142 26.4577 126.352 26.8331 127.864C27.7202 131.439 28.6424 131.333 31.1838 127.364C32.3285 125.577 33.2727 124.489 33.282 124.948C33.3232 126.988 29.0244 142.24 28.0913 143.364C26.0814 145.786 23.4176 144.674 20.9093 140.365ZM36.9538 110.786C34.7635 108.366 34.8568 106.615 37.1757 106.615C38.2081 106.615 43.2782 105.314 48.4428 103.724C65.2679 98.545 84.1493 94.364 87.7025 95.0306C91.9263 95.823 100.017 101.153 100.816 103.669C102.25 108.186 98.7634 108.539 86.2987 105.137C77.0566 102.615 67.8788 103.538 52.1641 108.57C45.2151 110.794 39.3223 112.615 39.0691 112.615C38.8159 112.615 37.864 111.792 36.9538 110.786ZM44.4988 92.4146C42.6126 90.5284 43.078 89.6146 45.9248 89.6146C47.3691 89.6146 52.6212 87.9861 57.596 85.9957C69.4203 81.2649 71.9294 80.5907 75.2445 81.2538C78.4778 81.9004 84.1139 86.1175 83.1052 87.1353C82.7237 87.5202 79.5737 88.4307 76.1052 89.1586C72.6367 89.8866 68.8988 90.7656 67.7988 91.1121C66.6988 91.4586 67.1488 90.9639 68.7988 90.0134C73.8952 87.077 69.8257 87.2902 58.9243 90.531C47.3353 93.9761 46.2076 94.1234 44.4988 92.4146ZM66.1439 75.3375C64.1336 73.5649 60.5136 70.4762 58.0995 68.4738L53.7101 64.8329L51.9611 67.8803C49.4553 72.2466 47.9505 70.1422 47.4676 61.5963L47.0731 54.6146H42.9085C40.6179 54.6146 37.7386 53.9105 36.51 53.0499C34.5584 51.683 34.4445 51.2448 35.6085 49.5828C36.3414 48.5365 38.6584 46.3157 40.7575 44.6476L44.5738 41.6146L40.6863 41.5995C38.5482 41.592 36.159 41.1793 35.377 40.6843C33.9784 39.7991 35.1873 39.3216 44.5488 37.0619C47.7266 36.2948 48.3279 32.7867 45.7274 30.1862C44.2989 28.7576 44.5187 28.6148 48.1456 28.6148C53.3706 28.6148 55.2988 29.4268 55.2988 31.6267C55.2988 33.1358 55.9182 33.3415 59.1547 32.9074C63.2797 32.3541 67.6657 34.0141 67.0399 35.8917C66.8306 36.5195 64.2158 37.5015 61.2291 38.074L55.7988 39.1148L55.4912 43.3648C55.3219 45.7024 55.3672 47.6148 55.5921 47.6148C56.9236 47.6148 62.2988 45.3048 62.2988 44.7326C62.2988 44.355 60.9177 43.2301 59.2296 42.233C57.5415 41.2358 56.358 40.2223 56.5996 39.9807C57.0801 39.5002 66.648 42.9666 69.7064 44.7292C71.5467 45.7898 71.5919 45.4659 70.987 35.5381C70.1656 22.0548 69.7984 21.6645 60.0743 23.9388C52.4468 25.7228 46.2964 26.1363 46.3023 24.8648C46.3042 24.4523 51.0802 22.8185 56.9155 21.2342C65.4429 18.9189 68.6896 18.4753 73.4581 18.9737C81.6747 19.8325 83.7054 21.0435 82.6366 24.447C82.1758 25.9143 81.9514 36.1148 82.1379 47.1148C82.5023 68.6076 82.1065 71.0865 77.5481 75.8648C74.0807 79.4994 70.6855 79.3423 66.1439 75.3375ZM69.2294 65.7443C69.78 64.7156 70.5307 60.273 70.8978 55.8718L71.5651 47.8698L63.182 50.0839L54.7988 52.2981L54.5033 57.8091L54.2077 63.3203L59.0032 65.4348C64.9719 68.0667 67.9385 68.1564 69.2294 65.7443ZM47.1122 46.8647C47.4799 43.0491 46.7641 42.829 43.6133 45.789C40.41 48.7984 40.6004 50.8278 44.0488 50.431C46.3403 50.1672 46.8511 49.5728 47.1122 46.8647ZM32.389 69.6731C27.4041 68.4194 25.8307 64.5052 25.4573 52.4289C25.0167 38.1794 26.5126 33.7035 33.1148 29.5164C38.872 25.8654 40.4458 25.8046 37.0496 29.3644C33.0604 33.5459 32.0851 37.2051 32.0919 47.9641C32.0994 58.6378 33.0691 61.2083 35.6831 57.4762C37.2355 55.2599 37.2988 55.4484 37.2988 62.285C37.2988 69.8722 36.7092 70.7596 32.389 69.6731ZM30.3789 22.6853C29.2506 21.9711 29.9347 20.7013 33.7094 16.5028C38.659 10.9978 42.2988 4.87156 42.2988 2.0461C42.2988 0.75074 42.8876 0.542631 45.0488 1.07399C49.2108 2.09726 52.5293 4.57173 51.9087 6.18907C51.1963 8.04538 53.0906 8.00111 58.9097 6.0254C62.8262 4.69568 64.3013 4.63529 67.9446 5.65538C74.3598 7.45152 73.887 10.011 66.7571 12.0837C63.7092 12.9698 59.7717 14.575 58.0071 15.6509C53.4854 18.408 52.476 18.0863 55.5397 14.8646C59.6736 10.5175 59.4863 9.16247 54.7988 9.50354C51.2989 9.75828 49.986 10.6585 44.2974 16.7046C39.0419 22.2903 37.2213 23.6116 34.7974 23.5993C33.1482 23.5917 31.1598 23.1796 30.3789 22.6853Z" />
</svg>
