<svg width="60" height="98" viewBox="0 0 60 98"  xmlns="http://www.w3.org/2000/svg">
<path d="M16.5727 96.2885C14.4751 94.8193 14.3997 94.2367 14.8593 83.0413C15.3231 71.7448 15.424 71.3084 17.7129 70.6962C20.429 69.9698 21.6941 70.5839 22.6133 73.0755C23.5981 75.7446 27.1715 75.2721 27.8982 72.3767C28.6161 69.5165 27.9435 60.8432 26.6147 55.8254C25.9751 53.41 26.0923 50.7759 26.993 47.3254C28.9168 39.9545 28.8544 39.7438 25.1304 41.042C23.3751 41.6539 19.1298 45.0056 15.6964 48.4901C6.56466 57.7576 4.60404 57.135 2.58233 44.3255C2.06149 41.0255 1.27173 37.4859 0.827287 36.4599C0.127912 34.8455 0.342244 34.6926 2.42048 35.3224C5.29645 36.194 10.0831 40.4981 10.8446 42.8974C11.325 44.411 12.4055 44.1203 19.8543 40.4715C28.9774 36.0026 30.2305 33.9001 24.4731 32.7226C22.6379 32.3473 20.7547 31.6543 20.2882 31.1828C19.8216 30.7112 20.1125 25.6005 20.9345 19.8255C21.7565 14.0505 22.1484 7.38663 21.8053 5.01698L21.1817 0.708496L25.0017 1.38279C30.8196 2.40953 33.7882 4.10856 34.1454 6.61631C34.3312 7.92055 32.4944 12.5406 29.8336 17.4617C27.2841 22.177 25.467 26.3041 25.7957 26.6328C26.1244 26.9616 28.4736 26.4593 31.0163 25.517C35.2422 23.9507 35.8457 23.9386 38.0417 25.3774C41.5966 27.7066 40.5674 30.1591 35.5696 31.2674C30.9298 32.2964 30.3098 33.2133 33.2059 34.7632C35.3012 35.8846 47.7764 35.0864 50.5724 33.6523C51.922 32.9599 53.2877 33.6541 56.5341 36.6823C61.4113 41.2317 61.183 41.9595 53.589 46.0677C48.9592 48.5723 46.0413 49.1744 39.8217 48.9092C36.8371 48.7819 36.8428 48.7717 40.9393 46.9115C44.6668 45.2188 48.3217 41.6003 48.3217 39.6028C48.3217 39.1751 45.6418 38.8253 42.3664 38.8253H36.4111L32.3664 45.6335C30.1419 49.378 28.3217 52.8499 28.3217 53.349C28.3217 53.8481 30.3968 56.3633 32.933 58.9382C36.7173 62.7803 37.6369 64.4418 38.0608 68.203C38.6831 73.7233 36.8063 77.1497 31.8713 79.503C28.686 81.022 28.3677 80.9942 25.4905 78.9455C22.0965 76.5287 21.8625 76.7009 20.8998 82.3252C20.5232 84.5252 19.9694 87.1579 19.6692 88.1756C19.1885 89.805 19.6465 89.7194 23.5053 87.4579C33.9018 81.3651 43.6723 79.9271 47.8712 83.8717C50.8109 86.6334 51.2197 91.6184 48.5718 92.4137C47.6093 92.7028 44.6906 93.7722 42.0858 94.7902C37.4376 96.6069 37.3687 96.606 38.371 94.7332C39.2943 93.008 39.0198 92.8253 35.5062 92.8253C31.086 92.8253 25.5725 94.4625 23.243 96.4668C21.1881 98.2349 19.2788 98.1839 16.5727 96.2885Z" />
</svg>
