<svg width="74" height="130" viewBox="0 0 74 130"  xmlns="http://www.w3.org/2000/svg">
<path d="M56.0449 129.191C55.4613 128.764 53.3571 125.714 51.3688 122.414C47.7941 116.481 43.5316 112.928 39.9517 112.899C38.3941 112.887 38.3401 112.732 39.6058 111.914C40.4308 111.381 43.4833 110.938 46.3891 110.929C54.7475 110.907 66.6059 117.956 66.6059 122.949C66.6059 127.044 59.1386 131.457 56.0449 129.191ZM13.806 127.714C11.3209 125.229 12.5383 121.85 17.7468 116.777L22.8877 111.77L18.9969 113.443C16.8569 114.363 13.1234 115.812 10.7002 116.662L6.29453 118.208L3.47718 114.811C0.325056 111.01 -0.290523 108.356 2.20208 109.313C3.531 109.822 23.5318 107.252 24.3738 106.463C24.5212 106.325 23.7434 104.232 22.6457 101.813C20.0577 96.1089 20.0513 90.889 22.6268 87.6131C23.739 86.1992 27.789 82.7584 31.6268 79.9671C35.4646 77.1757 38.6047 74.5948 38.6047 74.2317C38.6047 73.8685 37.8599 72.7486 36.9497 71.7427C35.3839 70.0126 35.4513 69.9044 38.1997 69.7344C46.6863 69.2094 52.6047 71.3703 52.6047 74.9939C52.6047 77.4304 50.3827 78.5167 41.6917 80.3288C30.168 82.7316 23.0439 87.7532 26.3991 91.1084C27.0417 91.751 28.7383 91.1923 31.3085 89.4913C35.5308 86.6972 43.9407 83.4685 49.6047 82.4671C53.5162 81.7756 59.6047 84.7426 59.6047 87.3403C59.6047 89.56 58.5725 89.7811 52.628 88.8348C46.5221 87.8627 37.8092 88.7071 41.1657 89.9455C42.2322 90.339 45.3762 90.9726 48.1525 91.3535C57.4764 92.6328 57.9162 94.9869 49.6696 99.4752C46.8784 100.994 44.7736 102.416 44.9922 102.635C45.2107 102.853 47.9814 102.279 51.149 101.358C57.5923 99.485 63.3439 99.8683 68.9568 102.545C73.0431 104.494 74.1793 106.517 72.3949 108.667C71.3736 109.897 69.892 110.013 64.1277 109.312C54.4956 108.14 35.9882 108.407 30.9712 109.789C26.2722 111.084 25.2909 112.027 23.0414 117.411L21.4354 121.255L23.8854 119.65C26.0821 118.21 25.9653 118.606 22.7562 123.479C19.1166 129.006 16.3889 130.297 13.806 127.714ZM37.5244 104.28C39.6172 103.862 41.1873 102.69 42.1494 100.83C44.2009 96.8628 44.0989 96.592 39.3904 93.5093C35.2894 90.8243 35.0826 90.7932 31.7829 92.3667C29.3323 93.5353 28.547 94.4601 28.9529 95.6992C32.2537 105.774 31.888 105.408 37.5244 104.28ZM16.606 71.6508C12.5117 70.6963 12.3314 70.5345 14.606 69.8575C15.981 69.4482 18.4781 69.0686 20.155 69.0137C23.5801 68.9019 27.3253 66.5899 40.7885 56.2765C56.2669 44.4195 57.918 40.914 48.0242 40.914C44.7124 40.914 44.606 41.0364 44.606 44.8489C44.606 50.8202 43.0988 53.9141 40.1897 53.9141C38.8336 53.9141 37.4433 53.4599 37.1002 52.9047C36.757 52.3496 34.818 51.0194 32.7912 49.9489L29.106 48.0025L32.2394 47.9582C34.6236 47.9242 35.5169 47.3761 35.9757 45.664C36.907 42.1889 36.7759 41.914 34.1877 41.914C30.4072 41.914 28.606 42.9533 28.606 45.1348C28.606 46.2386 27.6492 48.8441 26.4797 50.9249C23.4354 56.3414 17.3337 58.7007 14.6701 55.4913C13.7187 54.3449 14.2002 53.4224 17.1493 50.7413C21.1981 47.0604 23.9128 42.5855 22.8161 41.4002C22.4255 40.9781 23.2409 40.9038 24.628 41.235C26.0151 41.5665 29.1651 41.2463 31.628 40.5216C35.3121 39.439 36.1621 38.7367 36.4224 36.5598C36.8401 33.0673 35.3433 33.1327 26.0194 37.0143C18.5532 40.1225 15.606 40.2591 15.606 37.4969C15.606 36.683 16.7559 32.3769 18.1614 27.9278C19.5669 23.4786 20.4366 18.9554 20.094 17.8762C19.134 14.8514 21.0733 15.5432 24.5024 19.4486C27.9422 23.3664 28.3922 26.3463 26.0493 29.6913C23.8877 32.7774 25.0737 32.6566 38.6103 28.4124C52.8658 23.9429 59.2113 23.1413 63.3586 25.286C66.7527 27.0411 68.4308 30.4891 66.7224 32.1975C65.946 32.9739 63.4006 32.9161 57.7169 31.993C50.7646 30.864 38.7134 31.3753 42.356 32.6448C43.0435 32.8844 43.606 33.994 43.606 35.1106C43.606 36.8564 44.0612 37.0574 46.856 36.5459C57.6682 34.5667 60.3145 34.622 64.3889 36.9117C68.2385 39.0754 70.606 42.3427 70.606 45.492C70.606 48.2315 67.8567 48.0689 61.7102 44.9662C58.3529 43.2714 55.606 42.2073 55.606 42.6016C55.606 42.9958 57.0155 44.7726 58.7383 46.5501C60.6957 48.5696 61.6433 50.374 61.2645 51.3609C60.9312 52.2294 57.3842 54.4429 53.3823 56.2796C49.3803 58.1164 42.8045 62.2166 38.7694 65.3912C29.5193 72.6687 25.6552 73.7605 16.606 71.6508ZM34.106 23.5324C35.756 22.1319 36.5733 20.9698 35.9224 20.95C35.1141 20.9236 34.6385 17.7429 34.4224 10.9119C34.1106 1.0497 34.1382 0.909769 36.4057 0.911886C37.6704 0.913095 40.0926 1.63152 41.7882 2.50833C44.8352 4.08398 44.8639 4.172 44.2494 10.0516L43.6276 16.0007L47.1278 15.3439C50.9067 14.635 53.8403 16.1398 52.9915 18.3517C52.3385 20.0534 49.0449 21.4951 41.3862 23.4315C37.9321 24.3048 34.206 25.2578 33.106 25.5492C31.5873 25.9515 31.828 25.466 34.106 23.5324Z" />
</svg>
