<svg width="98" height="147" viewBox="0 0 98 147"  xmlns="http://www.w3.org/2000/svg">
<path d="M30.5253 142.49C29.0905 140.321 28.1835 138.116 28.5097 137.588C28.8359 137.06 32.1411 135.704 35.8544 134.575C47.1616 131.138 47.2923 130.79 39.6539 124.472C32.4474 118.51 31.537 115.972 35.3364 112.432C37.3246 110.58 44.0597 108.127 49.6059 107.237C51.1217 106.993 51.681 106.009 51.9162 103.174C52.0912 101.065 51.7757 99.432 51.1932 99.432C50.6248 99.432 46.8181 101.494 42.7338 104.015C38.1254 106.859 34.4288 108.471 32.9912 108.265C30.3068 107.879 26.1059 102.169 26.1059 98.9066C26.1059 95.7584 28.6346 93.796 30.5949 95.4229C32.832 97.2796 37.7117 95.9682 47.368 90.9153C52.0805 88.4495 56.9174 86.432 58.1167 86.432C60.7436 86.432 65.8404 89.2979 66.5632 91.1814C66.8493 91.9268 65.4564 95.965 63.4679 100.155C59.499 108.519 59.3701 107.945 66.0483 111.646C69.6293 113.63 70.5643 115.469 69.714 118.857C68.6572 123.068 64.2288 127.232 56.9185 130.889L49.8372 134.432H58.3215C66.3455 134.432 67.0389 134.256 71.1027 131.182C73.466 129.395 76.2365 127.313 77.2593 126.556C78.7646 125.442 78.5323 126.49 76.0402 132.056C74.3468 135.838 72.5974 139.607 72.1524 140.432C71.4975 141.646 69.4244 141.873 61.2676 141.62C52.4889 141.348 50.2774 141.639 44.0892 143.87C34.659 147.272 33.6199 147.166 30.5253 142.49ZM51.1059 118.821V111.209L47.3904 111.906C42.5555 112.813 38.1058 115.145 38.1058 116.771C38.1058 118.995 47.1299 126.432 49.8284 126.432C50.7531 126.432 51.1059 124.33 51.1059 118.821ZM60.0906 117.182C60.0981 116.219 59.6559 115.432 59.1059 115.432C58.5559 115.432 58.1128 116.894 58.1212 118.682C58.1325 121.148 58.3703 121.57 59.1059 120.432C59.639 119.607 60.0821 118.144 60.0906 117.182ZM34.5863 85.0425C32.9482 82.5425 30.0703 74.106 30.145 72.0231C30.1677 71.4231 30.8198 72.3946 31.5968 74.182C32.3737 75.9695 33.7061 77.432 34.5576 77.432C35.7819 77.432 36.1059 76.1863 36.1059 71.4785V65.525L33.1825 67.2029C30.4137 68.7919 30.1492 68.7812 28.1825 67.0014C25.5984 64.6629 25.5363 63.4321 28.0022 63.4321C30.8448 63.4321 36.4026 56.6624 35.7023 54.053C35.3893 52.8865 35.127 51.5445 35.1195 51.0708C35.1081 50.363 28.1723 51.0595 27.3628 51.8476C26.9835 52.2176 23.3125 71.3942 22.6256 76.5936C21.8514 82.4542 19.5695 83.6725 16.3587 79.9397C11.7565 74.5894 13.423 68.8172 24.9494 50.1821C26.2251 48.1196 26.9742 46.4321 26.6141 46.4321C26.2539 46.4321 22.2003 50.0321 17.6058 54.4321C8.16585 63.4726 5.58878 64.3236 2.17386 59.5278C-0.422634 55.8813 -0.408325 55.6139 2.35564 56.128C3.88495 56.4126 7.87727 54.4604 14.8196 50.0336C20.4373 46.4515 26.3962 42.8161 28.0617 41.9548C32.3217 39.7519 37.3316 30.9045 36.7099 26.6821C36.1763 23.0579 36.8917 22.7644 41.9565 24.5299C46.4838 26.1081 45.9395 28.5222 39.8557 33.847C34.6175 38.4317 34.614 38.4387 38.3236 36.9371C46.9682 33.4378 47.8088 36.9983 39.2177 40.7241C33.9705 42.9998 28.1056 47.6954 28.1056 49.6208C28.1056 50.0109 29.6662 49.6779 31.5736 48.881C35.9678 47.045 36.595 47.0643 38.6289 49.098C40.1837 50.6528 40.4718 50.5359 42.9413 47.348C44.3968 45.4692 47.3917 41.9596 49.5967 39.549L53.6057 35.166L53.9625 19.8086C54.2758 6.31931 54.1204 4.37484 52.6869 3.82473C51.4223 3.33944 51.3133 2.88685 52.2028 1.81513C53.8412 -0.159072 60.4644 0.0919775 63.1025 2.22817C65.3039 4.01074 65.309 4.08468 63.7852 11.9781C60.7763 27.5639 60.7683 27.6838 62.7982 26.5898C63.7924 26.054 65.7308 24.4094 67.1058 22.9352L69.6058 20.2547L66.8558 18.0557C65.3433 16.8463 64.1058 15.6194 64.1058 15.3293C64.1058 15.039 67.4808 15.8878 71.6058 17.2152C77.2246 19.0233 79.1058 20.0749 79.1058 21.4078C79.1058 23.6107 77.7854 24.6573 72.3366 26.7733C69.9885 27.6851 66.3257 29.5305 64.1971 30.8743C60.9257 32.9394 60.2674 33.9408 59.9427 37.345C59.5965 40.9733 59.8089 41.4287 62.0822 41.9399C63.4702 42.252 65.7308 43.3654 67.1058 44.4145L69.6058 46.3219L67.911 51.127C65.6109 57.6482 63.9795 68.3838 65.009 70.2234C65.6637 71.3932 66.8657 70.4268 70.4764 65.8274C73.0219 62.5849 75.1049 58.8887 75.1052 57.6138L75.1058 55.2958L78.1078 57.4334C83.7111 61.4233 84.2726 65.6713 79.3597 66.9044C75.9666 67.756 68.0162 73.478 68.6965 74.5788C69.4549 75.8058 76.0198 75.4916 80.0507 74.0353C81.9453 73.3508 84.3968 71.5835 85.4983 70.1081L87.5012 67.4255L85.2663 62.8253C84.0371 60.2952 82.1532 57.9956 81.0799 57.715C80.0065 57.4341 79.3874 56.7854 79.7039 56.2732C80.0207 55.7609 78.4968 52.9996 76.318 50.1369C69.7947 41.566 69.4074 39.5636 75.5579 46.2068C78.7277 49.6307 81.7228 52.4319 82.2135 52.4319C83.7013 52.4319 83.2124 47.0291 81.5038 44.5898C79.2332 41.3481 80.0993 41.1373 85.1742 43.6969C92.5485 47.4161 94.4533 55.432 87.9628 55.432H84.9545L91.1579 62.4118C96.3966 68.3063 97.377 69.9966 97.4632 73.2825C97.6465 80.2656 93.0358 83.252 80.7315 84.1203C71.7307 84.7555 66.5039 83.6343 63.6223 80.4501C61.9253 78.575 61.8154 78.5756 56.9643 80.4878C50.1841 83.1603 49.8259 82.9187 55.2798 79.3514C59.6831 76.4713 59.8963 76.1295 58.9618 73.4488C58.253 71.4156 58.4175 68.0093 59.5378 61.5172C61.3572 50.9745 61.5075 46.7983 60.0987 45.9277C58.9879 45.2411 58.9024 45.4297 56.5778 53.6938C54.7923 60.0416 51.4243 64.6989 46.944 67.0158L44.0205 68.5276L46.3745 64.7298C47.6693 62.6411 49.2441 59.5821 49.8741 57.9321C51.1481 54.5956 53.1181 44.2015 53.0836 40.9984C53.0609 39.0482 52.9467 39.0726 51.0198 41.4321C49.897 42.8071 47.321 46.4071 45.2953 49.4321L41.6124 54.9321L41.6091 67.9321C41.6067 77.5151 41.2116 81.7012 40.1058 83.8583C38.1102 87.7512 36.5767 88.0802 34.5863 85.0425ZM18.1059 41.432C15.6951 39.0212 15.7005 39.3247 17.9396 32.1531C19.6633 26.6317 19.8186 26.4571 21.4248 28.2319C22.3494 29.2536 23.106 31.5165 23.106 33.2607C23.106 36.8911 23.6652 37.1321 26.4066 34.6821C27.6831 33.5413 27.2455 34.7595 25.1496 38.182C23.3812 41.0695 21.523 43.432 21.0202 43.432C20.5173 43.432 19.2059 42.532 18.1059 41.432ZM81.1059 37.6144C81.1059 37.1841 81.6459 36.292 82.3058 35.632C83.9544 33.9835 82.448 32.6953 77.5886 31.5985L73.6059 30.6997L77.3237 29.0658C79.3686 28.1673 82.3212 27.432 83.8852 27.432C87.1955 27.432 91.3588 30.8802 90.9034 33.2448C90.5905 34.8707 81.1059 39.1006 81.1059 37.6144ZM26.3397 22.5977C25.4249 22.017 25.1474 19.0092 25.3397 11.7606L25.6058 1.72724L29.9333 3.20004C32.3135 4.0101 34.5305 5.37552 34.8601 6.23423C35.3799 7.589 34.2808 11.4994 31.6523 17.6459C30.9962 19.1803 31.4672 19.295 36.1477 18.7406C40.3775 18.2397 41.2881 18.3899 40.9158 19.5267C40.012 22.2866 29.379 24.5268 26.3397 22.5977Z" />
</svg>
