<svg width="83" height="89" viewBox="0 0 83 89"  xmlns="http://www.w3.org/2000/svg">
<path d="M18.4254 85.0227C16.5705 80.5833 16.5831 80.4906 19.0422 80.4906C20.1783 80.4906 22.0909 79.9765 23.2922 79.3482C27.7317 77.0264 35.9764 71.2707 35.9764 70.4933C35.9764 70.0518 34.35 69.6905 32.3621 69.6905C30.3743 69.6905 28.0718 69.0145 27.2455 68.1882C25.909 66.8517 25.9768 66.5607 27.8598 65.553C30.495 64.1426 30.5171 62.9934 27.9713 59.7569C25.4978 56.6124 26.5311 55.0039 32.0951 53.3369C35.1675 52.4163 35.9764 51.686 35.9764 49.8323C35.9764 47.7785 35.4987 47.4905 32.0914 47.4905C29.0657 47.4905 27.8492 46.9454 26.5914 45.0258C24.4028 41.6855 24.4483 41.6134 28.7264 41.6345C30.7889 41.6458 34.4455 40.9414 36.8522 40.0717C42.3564 38.0827 45.9261 38.0665 48.7121 40.0177C51.7018 42.1118 50.5427 44.3758 46.1173 45.086C42.9316 45.5972 42.4631 46.034 42.3699 48.5803C42.2818 50.9885 42.6638 51.4903 44.5848 51.4903C45.863 51.4903 47.3752 52.3668 47.9499 53.4408C48.8276 55.0808 48.4352 55.8369 45.4851 58.1908C41.681 61.2261 40.7601 64.0418 43.8344 63.2378C46.1035 62.6444 48.9764 64.1221 48.9764 65.8826C48.9764 66.5937 47.4014 68.0236 45.4764 69.0603C43.1532 70.3114 41.9764 71.665 41.9764 73.0861C41.9764 75.135 42.3952 75.2224 51.7264 75.1179C62.0929 75.0019 65.9764 76.1593 65.9764 79.3651C65.9764 81.5596 62.8473 83.0872 56.3593 84.0602C51.7296 84.7544 51.5577 84.6996 52.979 82.9806C54.4077 81.2526 54.132 81.1961 46.9764 81.7508C42.4689 82.1 36.0171 83.5607 30.8065 85.4113C26.038 87.1047 21.6275 88.4903 21.0055 88.4903C20.3834 88.4903 19.2224 86.93 18.4254 85.0227ZM34.9764 76.4906C35.8014 75.9574 36.0264 75.5212 35.4764 75.5212C34.9264 75.5212 33.8015 75.9574 32.9765 76.4906C32.1515 77.0238 31.9265 77.4599 32.4765 77.4599C33.0265 77.4599 34.1514 77.0238 34.9764 76.4906ZM34.2264 61.0984C36.5247 59.3538 36.4588 57.4905 34.0989 57.4905C31.8468 57.4905 29.5459 59.9849 30.4494 61.4468C31.2851 62.7989 32.0834 62.7251 34.2264 61.0984ZM0.951685 53.9254C-0.472789 50.1788 -0.274314 48.457 1.50339 49.1392C5.90932 50.8299 25.9551 30.2546 37.4499 12.2429L39.2035 9.49512L36.3026 10.0753C34.2268 10.4904 32.7012 10.0726 30.9391 8.60629C29.5311 7.43471 29.047 6.5428 29.8088 6.52379C30.5416 6.50489 34.2171 5.14055 37.9764 3.49052C41.7358 1.84053 45.2106 0.490479 45.6983 0.490479C46.1859 0.490479 48.7186 1.84368 51.3264 3.49756C54.7478 5.66731 55.8464 6.89983 55.2722 7.92416C54.8345 8.70493 50.7316 13.4267 46.1545 18.4171C41.5774 23.4075 38.1375 27.4905 38.5101 27.4905C38.8828 27.4905 41.9527 26.7639 45.3321 25.8756C50.0161 24.6445 54.1889 24.3892 62.8891 24.8013L74.3017 25.3421L78.7821 29.8224C84.2301 35.2705 83.9944 37.4906 77.968 37.4906C75.7288 37.4906 72.1161 38.3989 69.9398 39.5092C67.7635 40.6195 63.8439 41.7678 61.2296 42.0609L56.4764 42.5939L59.5973 41.1447C63.2973 39.4267 68.419 33.0863 67.6744 31.1457C66.6716 28.5325 54.7915 27.7019 45.7757 29.6149C37.7998 31.3072 32.368 34.4744 22.5881 43.1353C10.102 54.1928 6.95106 56.4905 4.27356 56.4905C2.67476 56.4905 1.61614 55.6731 0.951685 53.9254Z" />
</svg>
