<svg width="98" height="149" viewBox="0 0 98 149"  xmlns="http://www.w3.org/2000/svg">
<path d="M43.5502 146.447C33.1761 142.695 32.1131 142.185 28.7439 139.35C25.6247 136.725 24.8177 133.913 26.1714 130.385C27.9414 125.773 40.3811 124.221 46.3604 127.866C49.7105 129.909 52.9187 135.689 52.3478 138.653C51.9585 140.675 46.5398 142.306 43.089 141.44C41.3451 141.002 39.97 139.566 38.9002 137.064C36.2924 130.967 35.9001 130.353 34.4237 130.062C33.647 129.908 32.1381 130.422 31.0705 131.202C28.0179 133.434 30.3446 137.117 36.7295 140.16C44.5903 143.906 51.3261 144.506 56.409 141.913C64.5346 137.767 73.5502 127.591 73.5502 122.565C73.5502 118.076 70.2042 116.335 61.6894 116.392C55.6115 116.433 52.8693 116.987 48.2718 119.1C39.5697 123.1 37.1316 121.266 42.6174 114.847C45.2045 111.819 45.3994 111.203 44.0768 110.236C41.669 108.476 42.2443 107.075 46.7003 103.847C51.7474 100.191 50.2432 99.949 43.5502 103.341C40.8368 104.716 37.5552 105.841 36.2578 105.841C33.6156 105.841 30.6033 102.961 28.1326 98.0733L26.4809 94.8059L30.2844 95.4141C33.2852 95.8939 35.9187 95.2644 42.7625 92.4314C53.5489 87.9664 56.7262 87.8626 60.7089 91.8454C62.3615 93.498 63.5412 95.4105 63.3304 96.0954C63.1196 96.7802 59.1484 99.3291 54.5057 101.76C46.3797 106.014 46.1668 106.213 48.8073 107.093C51.6852 108.052 52.2076 109.744 50.5707 112.802C49.6385 114.544 49.8194 114.564 54.3207 113.208C64.7012 110.082 78.463 111.655 82.7306 116.454C86.3421 120.516 86.6177 123.313 83.9366 128.693C79.567 137.462 70.3122 143.955 57.2116 147.443C50.673 149.184 51.2265 149.224 43.5502 146.447ZM68.0502 88.9801C66.4002 87.9609 64.1718 86.1391 63.0981 84.9317L61.146 82.7364L63.7404 83.7229C65.9253 84.5535 66.974 84.2392 70.3831 81.7321C77.508 76.4924 84.1117 63.0376 80.2802 61.5673C78.4201 60.8535 71.2585 62.423 67.4949 64.3693C63.9106 66.2228 61.1295 66.2434 59.6228 64.4278C58.1872 62.698 60.0696 57.6482 64.1385 52.3136C67.366 48.0822 66.8109 47.065 62.4589 49.2361C57.2384 51.8404 55.5503 50.9608 55.5503 45.6363C55.5503 43.9285 55.3036 43.8004 54.0382 44.8505C53.2065 45.5407 50.9953 48.1909 49.1242 50.7398L45.7223 55.3741L47.2049 60.8573C48.7799 66.6818 48.4622 78.3118 46.5938 83.226C46.0419 84.6775 44.4697 86.3756 43.1 86.9998C39.2439 88.7567 37.074 86.4145 35.1288 78.3958L34.4144 75.4512L36.4114 77.8959C39.3168 81.4527 40.8759 79.2927 41.3257 71.0877L41.6956 64.3405L39.5359 67.8405C35.4968 74.3863 32.8845 75.2657 29.0048 71.3859C25.9709 68.352 25.8796 66.8405 28.7304 66.8405C30.6805 66.8405 39.5502 58.6938 39.5502 56.9026C39.5502 56.5394 36.5128 56.7398 32.8004 57.3472C24.7674 58.6618 24.851 58.4787 24.6686 75.1562C24.5427 86.6615 23.6511 89.8405 20.5502 89.8405C16.2413 89.8405 15.3148 81.5915 18.414 70.8189C19.439 67.2558 20.6433 63.4719 21.0902 62.4102C21.6795 61.0099 20.5792 61.4904 17.0826 64.1602C11.1092 68.7212 7.74086 68.8948 3.31602 64.8698C0.167129 62.0054 0.134313 61.8981 2.39927 61.8698C3.69123 61.8547 11.5662 58.049 19.8993 53.4148C37.6844 43.5242 46.8752 39.3675 49.0846 40.2153C51.6853 41.2133 49.9169 42.6381 39.7229 47.758C34.4029 50.4299 29.193 53.5665 28.1453 54.7282C25.7594 57.3737 26.4423 57.3728 32.6043 54.7207C35.3129 53.5555 38.6419 52.8148 40.0021 53.0748C42.0604 53.4683 43.5548 52.3458 48.9155 46.3799L55.356 39.2123L56.0514 22.7758C56.5148 11.8223 56.3887 5.42186 55.6733 3.58924C54.3751 0.263786 54.8214 0.220513 62.146 2.96097L67.8167 5.08257L67.1349 11.2109C66.7599 14.5815 65.8704 20.4892 65.1583 24.3392C64.4462 28.1892 63.9865 31.4951 64.1366 31.6856C64.3415 31.9457 71.5099 27.4514 74.3813 25.2628C74.5633 25.1241 74.2455 24.1383 73.675 23.0722C72.6867 21.2256 72.9503 21.2432 79.2529 23.4456C86.7836 26.077 87.8799 26.8889 87.3836 29.4662C87.0981 30.9486 85.4705 31.5271 78.9949 32.4475C74.576 33.0756 69.1194 34.5286 66.8692 35.6766C63.376 37.4587 62.7089 38.3176 62.306 41.5516C62.0464 43.6349 61.9661 45.4976 62.1274 45.6912C62.2887 45.8847 64.7156 45.2808 67.5206 44.3492C72.2266 42.7861 72.8108 42.7801 75.0853 44.2703C76.441 45.1586 77.5502 46.1763 77.5502 46.532C77.5502 46.8877 75.0752 49.482 72.0502 52.2973C65.4532 58.4368 64.8254 60.5886 70.3003 58.2952C72.3628 57.4312 76.7816 56.4676 80.1199 56.154C85.9283 55.6082 86.3526 55.7267 89.9753 58.9075C93.3531 61.8732 93.7078 62.6275 93.2679 65.9078C92.2669 73.3705 78.3999 90.843 73.4841 90.8354C72.1455 90.8334 69.7002 89.9992 68.0502 88.9801ZM87.0503 49.4437C83.4737 48.2937 83.3149 48.1143 85.5503 47.7491C88.8704 47.2067 89.2354 44.104 86.5894 38.9174C84.2014 34.2365 84.5802 34.0329 89.9562 37.1071C95.6695 40.3741 98.022 43.9207 96.841 47.4869C95.7296 50.843 93.0608 51.3764 87.0503 49.4437ZM19.0747 46.8676C17.3533 44.9656 17.3846 44.6996 19.9427 39.471C23.7701 31.6481 25.4491 30.5581 24.7999 36.318C24.2463 41.2294 24.8503 41.7819 27.8308 39.0906C29.4002 37.6735 29.2328 38.4346 26.9513 43.0907C23.9243 49.2677 22.057 50.1631 19.0747 46.8676ZM33.6348 41.8066C38.3778 34.4252 40.6337 29.8406 39.5228 29.8406C38.5784 29.8406 38.5845 29.5042 39.5504 28.3406C41.251 26.2916 44.891 26.4545 46.8954 28.6694C49.2403 31.2605 48.9625 32.5762 45.7162 34.255C44.1573 35.0611 40.4448 37.6449 37.4662 39.9967C33.3407 43.254 32.4278 43.6851 33.6348 41.8066ZM29.8924 27.0959C30.2611 26.4995 29.9974 25.822 29.3065 25.5904C27.8547 25.1038 27.4565 3.84517 28.8991 3.8423C30.7607 3.8386 36.4294 7.08345 36.9552 8.45368C37.2631 9.25584 36.6231 12.2585 35.5331 15.1263C34.4431 17.9942 33.551 20.6936 33.5508 21.125C33.5505 21.5565 35.8003 21.611 38.5503 21.2464C46.3351 20.2137 45.0409 23.3482 36.6962 25.737C34.3014 26.4225 31.6401 27.2528 30.7821 27.582C29.8106 27.9547 29.475 27.7712 29.8924 27.0959Z" />
</svg>
