<svg width="89" height="141" viewBox="0 0 89 141"  xmlns="http://www.w3.org/2000/svg">
<path d="M38.0296 138.871C37.4602 137.808 36.9944 134.207 36.9944 130.871C36.9944 127.535 36.5875 124.806 36.0902 124.806C35.1081 124.806 24.329 128.483 16.7926 131.388C12.292 133.124 11.8534 133.126 6.54262 131.452C2.30782 130.117 0.994385 129.242 0.994385 127.754C0.994385 126.124 1.69874 125.806 5.3057 125.806C7.6769 125.806 15.4394 124.461 22.5557 122.817C29.672 121.174 35.8319 119.824 36.2444 119.817C36.6569 119.81 36.9944 118.879 36.9944 117.746C36.9944 116.39 36.5682 115.928 35.7444 116.393C34.7444 116.958 34.7444 116.83 35.7444 115.752C36.4319 115.012 36.9944 111.964 36.9944 108.98V103.555L33.8173 104.191C29.4452 105.065 29.1217 105.676 31.8552 107.892C34.5323 110.062 32.9369 110.495 28.4902 108.804C26.5431 108.064 25.9391 107.216 26.175 105.554C26.4135 103.876 27.8225 102.799 31.7333 101.306C36.5672 99.4602 36.973 99.0534 36.9833 96.0437C36.9946 92.8023 36.9681 92.7858 33.0327 93.4153C30.8537 93.7638 28.2663 93.7055 27.2827 93.2856C25.9133 92.7013 26.7828 92.1186 30.9944 90.7975C35.1542 89.4926 36.5722 88.5523 36.8139 86.9388C37.0978 85.0428 36.6529 84.8038 32.8139 84.7902C26.9012 84.7676 24.6122 83.2815 28.3224 81.8709C29.8405 81.2938 32.1877 80.5442 33.5385 80.2052C36.5086 79.4597 36.6025 78.2436 33.9944 74.3054C32.9016 72.6554 32.0046 71.0641 32.0009 70.7688C31.9974 70.4736 34.752 70.4953 38.1225 70.8177C42.7811 71.2631 44.6779 71.9314 46.0328 73.6046C47.013 74.8151 48.8943 75.8056 50.2136 75.8056C53.1311 75.8056 56.536 78.1202 55.6729 79.5168C55.3279 80.0748 52.9683 81.1129 50.4291 81.8239C46.345 82.9674 43.9142 85.0586 45.1884 86.3328C45.431 86.5755 48.9663 86.0781 53.0446 85.2278C61.4565 83.4739 68.8411 84.0511 72.1369 86.7199C76.4219 90.1897 73.3997 103.467 66.4864 111.544C64.5658 113.788 62.9944 115.889 62.9944 116.214C62.9944 116.54 66.2569 116.808 70.2444 116.811C79.1943 116.819 83.9622 118.078 86.9091 121.215C90.1928 124.71 89.2965 126.877 83.9944 128.263C81.5194 128.91 78.3694 129.807 76.9944 130.256C74.4963 131.071 74.4959 131.07 76.4207 128.915C78.9106 126.127 77.8349 125.103 71.0728 123.82C65.2175 122.71 50.82 122.478 47.2444 123.436C45.1758 123.99 44.9944 124.618 44.9944 131.222C44.9944 135.476 44.505 138.895 43.7944 139.606C41.9925 141.407 39.1962 141.051 38.0296 138.871ZM51.4944 117.814C52.9575 117.799 52.4212 117.146 49.4966 115.375L45.4988 112.956L49.4966 112.631C53.3329 112.319 53.6223 112.043 56.6614 105.806C58.4033 102.231 60.1388 97.1887 60.5181 94.6015C61.1609 90.2169 61.0458 89.8566 58.8247 89.2992C57.5141 88.9704 53.7536 89.2954 50.4681 90.0208C44.7293 91.2885 44.4817 91.4724 44.1717 94.6979L43.8489 98.0555L47.5055 97.3697C59.4875 95.1218 60.9427 102.191 49.9098 109.049C45.5552 111.756 44.9943 112.5 44.9943 115.572C44.9943 118.679 45.2279 118.976 47.2443 118.436C48.4818 118.104 50.3944 117.824 51.4944 117.814ZM47.1656 106.151C49.671 103.883 49.4584 102.806 46.5056 102.806C44.4624 102.806 44.0538 103.253 44.2237 105.306C44.4678 108.256 44.7501 108.337 47.1656 106.151ZM21.0764 115.041C18.8118 112.777 18.0772 110.744 17.0117 103.791C16.2964 99.1242 15.3123 94.2306 14.8248 92.9168C13.6309 89.6993 14.2445 89.3664 17.892 91.2526C22.034 93.3946 23.6661 96.2409 24.5165 102.806C25.391 109.557 27.587 114.176 29.562 113.418C31.7915 112.562 31.2463 114.516 28.7719 116.249C25.6565 118.431 24.2443 118.209 21.0764 115.041ZM39.2393 64.6098C39.5651 63.7611 38.9679 61.647 37.9129 59.9119C36.8577 58.1768 35.9944 56.3245 35.9944 55.7956C35.9944 55.2667 37.8035 53.6367 40.0147 52.1734C44.4327 49.2497 44.7552 48.0462 40.6151 49.9325C38.5037 50.8945 37.46 50.8575 35.3853 49.7473L32.7933 48.3602L37.6439 47.1022C44.1203 45.4226 46.5376 45.4918 48.4575 47.4118C50.5639 49.5182 49.2191 51.1224 44.0482 52.6716C38.9342 54.2039 38.1735 55.5433 41.6638 56.8703C44.9318 58.1128 45.958 59.4647 45.9791 62.5558C45.9904 64.1124 45.4033 64.8058 44.0762 64.8058C43.0211 64.8058 41.368 65.1089 40.4025 65.4794C39.0919 65.9824 38.7972 65.7619 39.2393 64.6098ZM49.5282 64.4541C47.6234 63.0612 47.6179 62.8502 49.2984 55.6664C51.2697 47.239 51.4792 42.2231 49.9005 41.2475C49.1265 40.7691 32.7254 43.2808 30.3394 44.2431C30.254 44.2771 31.0339 47.6806 32.0723 51.8056C33.8518 58.8744 34.5304 64.8056 33.5596 64.8056C33.3204 64.8056 31.9946 64.376 30.6133 63.8508C27.9689 62.8454 27.0133 60.446 24.9729 49.6873C23.3714 41.2428 22.4804 40.4159 16.6596 41.9727C12.5907 43.061 11.4795 43.027 9.19396 41.7441C6.35641 40.1514 4.95844 36.8056 7.13049 36.8056C7.8359 36.8056 11.9036 35.1181 16.1698 33.0556C22.876 29.8135 23.931 28.952 23.9605 26.6943C23.9907 24.5092 23.6226 24.1541 21.7166 24.5185C20.2844 24.7921 18.7651 24.2097 17.6245 22.9494C15.8648 21.0049 15.8703 20.9604 17.8067 21.4668C20.0101 22.043 35.9443 18.2192 37.4277 16.7583C39.413 14.8031 36.7469 14.5467 31.0116 16.1412C22.8199 18.4187 21.6347 18.1603 27.1341 15.296C32.2551 12.6287 38.9944 6.72447 38.9944 4.90527C38.9944 4.26498 37.9985 3.3728 36.7814 2.92254L34.5685 2.10408L36.9147 0.848231C38.3362 0.0874501 40.772 -0.165714 43.0951 0.205776C53.2251 1.82561 55.0351 5.92976 47.2808 9.69704C43.1693 11.6946 42.7997 12.1171 44.3871 13.0055C45.6387 13.7059 48.0435 13.6627 52.0877 12.8669C61.1783 11.0784 68.2024 13.215 66.6376 17.2928C66.1856 18.4707 64.2653 18.8054 57.96 18.8054C49.6835 18.8054 45.9944 19.851 45.9944 22.1964C45.9944 23.1178 48.1854 23.6848 53.2444 24.0728C64.9515 24.9707 75.3513 29.87 76.0262 34.8054C76.7554 40.1377 74.9984 41.0525 67.4944 39.2465C64.7444 38.5846 63.5069 37.9896 64.7444 37.9242C68.0435 37.75 67.4976 36.1425 63.2444 33.5066C58.7543 30.724 54.4111 28.9145 49.6405 27.8385C45.5861 26.9241 44.9944 27.6881 44.9944 33.8377C44.9944 36.4314 44.4177 38.0727 43.2444 38.8188C41.7859 39.7462 41.9526 39.8347 44.2451 39.3494C53.7264 37.3421 55.8991 37.4676 59.9198 40.2539C62.0787 41.75 64.0958 43.6274 64.4022 44.4258C64.7087 45.2243 62.8297 50.2487 60.2268 55.5914C55.2434 65.8206 53.4402 67.3146 49.5282 64.4541ZM37.3381 40.9374L40.1818 40.3056L35.5881 36.8698C33.0615 34.9801 30.9944 33.3209 30.9944 33.1828C30.9944 33.0444 32.5694 33.1865 34.4944 33.4995C37.9714 34.0637 37.9944 34.043 37.9944 30.3297C37.9944 27.3321 37.6811 26.712 36.4126 27.1988C35.5426 27.5325 33.9792 27.8057 32.9383 27.8057C31.8929 27.8057 30.3947 29.0367 29.5915 30.5557C28.7916 32.0682 26.8007 34.7459 25.1673 36.5062L22.1975 39.7067L24.8459 40.6772C27.8291 41.7704 33.0943 41.8802 37.3381 40.9374ZM20.1218 34.1304L22.4944 31.5652L17.2444 34.2024C11.6129 37.031 10.0097 39.3936 14.8718 37.6986C16.4544 37.1469 18.8169 35.5412 20.1218 34.1304ZM37.9944 23.0128C37.9944 21.9141 37.2257 21.7095 34.8694 22.1807C33.1506 22.5247 31.1218 22.8057 30.3609 22.8057C29.2626 22.8057 29.2168 23.189 30.1387 24.6652C31.1296 26.2519 31.791 26.3739 34.6472 25.4973C36.4881 24.9323 37.9944 23.8143 37.9944 23.0128Z" />
</svg>
