<svg width="84" height="84" viewBox="0 0 84 84"  xmlns="http://www.w3.org/2000/svg">
<path d="M25.6739 80.474L22.4693 77.4805L25.2259 72.7768C26.7421 70.1897 27.574 67.9293 27.0748 67.7539C24.579 66.8773 23.436 65.5118 23.9898 64.0685C24.7793 62.0112 28.5747 62.0143 31.5161 64.0761C33.6716 65.5858 33.9573 65.5451 36.2387 63.4018C37.5742 62.1471 38.6867 60.4114 38.7108 59.5448C38.7335 58.6782 39.3569 56.2817 40.093 54.2192C40.8291 52.1567 41.2415 50.4692 41.0096 50.4692C40.7776 50.4692 38.2493 52.0441 35.3909 53.9691C31.4707 56.6091 29.1461 57.4691 25.9303 57.4691C21.754 57.4691 21.6669 57.4004 21.6669 54.0916C21.6669 52.234 22.3419 50.1539 23.1669 49.4692C24.2033 48.6091 24.6669 48.5712 24.6669 49.3467C24.6669 51.2435 28.4541 50.6063 35.8265 47.4692C42.9823 44.424 47.9666 43.7407 50.6493 45.4371C51.8924 46.223 51.6905 46.8351 49.3993 49.2265C47.1471 51.5773 46.6669 52.9819 46.6669 57.2181C46.6669 63.9329 43.9299 67.356 37.9156 68.1627C34.5097 68.6195 33.2707 69.374 31.6671 71.9687C30.567 73.7487 29.667 75.4895 29.667 75.8371C29.667 77.251 33.3348 76.2797 40.9084 72.8601C47.4936 69.8868 49.6076 69.3639 52.9095 69.8919C58.5507 70.7939 60.6669 72.1675 60.6669 74.9268C60.6669 76.8031 59.8644 77.5735 56.917 78.5268C54.8544 79.1939 51.367 80.6284 49.167 81.7144C46.9669 82.8005 45.7294 83.0998 46.4169 82.3793C48.8419 79.8378 47.6065 79.5976 42.0104 81.523C33.7379 84.3691 29.5548 84.0994 25.6739 80.474ZM3.1669 44.2896C2.06691 43.6752 0.962967 42.9975 0.713632 42.7835C0.464183 42.5696 8.54461 34.101 18.6697 23.9648L37.0791 5.53518L34.623 2.86109L32.1669 0.186768L37.515 0.791621C44.473 1.57867 50.1669 4.34656 50.1669 6.94189C50.1669 8.16778 48.1175 10.4424 44.7609 12.942L39.3548 16.9676L48.7609 17.596C58.6545 18.257 62.2462 19.297 72.3769 24.4344C79.3433 27.9672 83.9215 32.6816 83.4684 35.8556C83.1887 37.8143 82.4772 37.9864 73.6669 38.2247L64.167 38.4817L67.4169 36.3765C69.2044 35.2187 70.667 33.9178 70.667 33.4858C70.667 31.9434 62.647 25.4911 57.4529 22.8547C50.5662 19.3593 40.5628 18.4742 35.4369 20.9066C33.4842 21.8332 26.5496 27.7338 20.0267 34.0189C13.5038 40.304 7.49189 45.4373 6.66689 45.4264C5.8419 45.4151 4.26689 44.904 3.1669 44.2896ZM32.5031 40.1366L35.8324 36.7017L32.2107 31.957C30.2187 29.3474 28.7619 27.0394 28.9733 26.828C29.7718 26.0295 45.9199 31.2919 47.4904 32.8625C49.9674 35.3395 47.8476 37.7642 42.0582 39.0759C39.368 39.6855 35.3685 40.9463 33.1704 41.8778L29.1738 43.5717L32.5031 40.1366Z" />
</svg>
