<svg width="32" height="74" viewBox="0 0 32 74"  xmlns="http://www.w3.org/2000/svg">
<path d="M16.7004 72.56C18.3361 69.5037 16.9904 68.0889 11.7639 67.3701C-3.223 65.3089 -3.26742 56.7439 11.6243 40.4501L16.4015 35.223L13.4855 34.1224C9.74811 32.7117 9.1354 30.938 7.22616 16.0026C6.35869 9.2167 5.11261 3.01832 4.45708 2.22847C2.71166 0.125353 3.48913 -0.0966866 9.05101 0.91634C15.1022 2.01853 18.985 5.74145 18.2653 9.75108C18.0096 11.1754 17.1986 15.6264 16.4629 19.6422C14.7873 28.79 15.472 30.1175 22.3056 30.9692C31.0967 32.0649 31.7468 33.6939 24.7982 37.2151C19.4901 39.9048 10.0989 49.2672 8.50579 53.4575C6.81323 57.9093 9.12469 59.2495 19.5969 59.8881C26.2178 60.2918 29.0253 60.8872 30.2949 62.1568C32.8332 64.6951 31.078 66.7351 22.7825 70.8881C17.0995 73.7332 15.8954 74.0643 16.7004 72.56Z" />
</svg>
