<svg width="107" height="156" viewBox="0 0 107 156"  xmlns="http://www.w3.org/2000/svg">
<path d="M80.4336 151.005C75.3848 145.277 65.3283 140.425 62.3715 142.29C59.4686 144.121 55.9396 139.74 55.1358 133.307C54.6931 129.763 53.6338 126.896 52.1151 125.131L49.7763 122.414L44.2071 125.232C35.5346 129.62 31.323 128.162 33.0296 121.362C33.5271 119.38 34.1007 119.06 36.3682 119.496C43.3345 120.837 62.2247 110.225 74.952 97.8218C81.8828 91.0674 83.1794 87.8407 79.2654 87.087C75.5485 86.3712 73.0737 87.9032 70.7163 92.3795C66.0159 101.304 55.7564 108.075 53.9736 103.429C53.1006 101.154 56.7066 95.8184 61.6535 92.0653C64.1024 90.2073 66.256 88.2882 66.4393 87.8006C66.99 86.336 59.3219 86.8138 56.2072 88.4381C52.0997 90.5802 51.8756 89.5729 55.7948 86.5836C62.214 81.6874 68.4695 80.5639 71.2473 83.8082C72.7219 85.5303 73.1719 85.5756 76.2054 84.3081C81.5661 82.0682 85.3816 82.5358 88.6829 85.8371C91.986 89.1402 92.4576 92.8695 89.856 95.1135C88.8935 95.9437 85.6657 97.926 82.6831 99.5185L77.2601 102.414L82.4517 103.057C85.3071 103.411 88.2997 104.245 89.1018 104.911C89.904 105.576 92.5784 106.248 95.0451 106.403C101.506 106.81 106.106 109.749 106.106 113.47C106.106 116.756 106.05 116.768 96.356 115.514C90.6735 114.779 90.606 114.8 90.606 117.303C90.606 118.697 91.506 123.696 92.606 128.414C93.706 133.132 94.606 139.017 94.606 141.493C94.606 148.461 90.0288 155.914 85.7493 155.914C85.2058 155.914 82.8137 153.705 80.4336 151.005ZM79.162 140.823C79.5328 140.224 79.5109 134.092 79.1133 127.198L78.3903 114.664L73.0364 115.293C70.0917 115.64 63.9528 117.112 59.3943 118.566L51.1062 121.209L56.8801 122.385C60.0557 123.032 63.0694 123.979 63.5773 124.488C64.0851 124.997 64.6368 128.339 64.8033 131.914L65.1061 138.414L70.1061 140.12C76.0102 142.135 78.2442 142.309 79.162 140.823ZM67.856 111.919C76.8667 109.838 77.606 109.485 77.606 107.259C77.606 103.4 75.1113 103.46 67.8782 107.494C59.6078 112.106 54.5884 115.292 56.606 114.649C57.431 114.387 62.4935 113.158 67.856 111.919ZM22.356 152.807C21.3935 152.261 20.606 151.151 20.606 150.339C20.606 149.025 18.2511 141.878 16.0187 136.417C15.2161 134.453 15.2494 134.45 17.9909 136.247C19.5246 137.252 20.987 137.866 21.2405 137.613C21.6914 137.162 23.0151 128.63 23.9476 120.164C24.3006 116.959 24.0704 115.914 23.0108 115.914C19.4716 115.914 17.2107 120.162 11.834 136.913C8.74642 146.532 7.15015 147.683 3.04437 143.253C1.05694 141.109 0.582451 139.782 1.02023 137.593C1.84757 133.456 5.1028 126.922 8.24007 123.101L10.9603 119.787L8.37744 120.435C4.67192 121.365 3.78196 117.976 6.51524 113.343C8.26717 110.374 8.35508 109.755 7.09363 109.271C4.83286 108.403 5.2958 105.434 8.60599 99.5681C11.7098 94.0686 12.537 88.4221 10.356 87.6224C9.40395 87.2732 9.38306 86.8692 10.2683 85.9266C11.1908 84.9446 12.3116 84.9827 15.6969 86.1111C22.5632 88.3998 22.7613 89.8394 17.196 97.0059C14.1643 100.91 13.0657 102.937 14.239 102.464C20.4353 99.9606 21.8512 99.7049 24.026 100.696C26.2413 101.705 26.3266 101.518 27.964 92.0707C30.1718 79.3327 30.158 79.1942 26.6058 78.4141C24.4755 77.9462 23.6058 77.1673 23.6058 75.7276C23.6058 74.4745 24.1025 73.8906 24.9062 74.199C25.6214 74.4734 27.309 74.0875 28.6562 73.3414C31.9804 71.5006 32.8712 71.5809 35.4152 73.951C37.5116 75.9041 37.5369 76.1412 36.0278 79.7011C32.4685 88.0972 31.3464 97.8868 31.1892 121.914C31.0686 140.329 30.7185 146.041 29.5706 148.312C27.5901 152.23 24.6123 154.085 22.356 152.807ZM25.4205 107.063C25.7281 105.036 25.6371 105.025 21.1875 106.541C16.0882 108.279 10.4636 111.794 9.86512 113.618C9.62626 114.346 12.5625 113.697 17.288 111.978C23.2669 109.803 25.18 108.647 25.4205 107.063ZM38.6056 109.414C36.25 106.575 36.2155 99.5856 38.5311 94.3507C41.3426 87.9948 42.3954 86.8886 53.4042 78.7232C63.369 71.3322 64.9182 69.3467 62.2453 67.3922C60.7107 66.2701 60.7634 66.1055 62.8328 65.5574C65.4269 64.8702 73.0371 69.112 75.2465 72.4765C77.649 76.1349 75.14 77.8268 64.1596 79.9534C58.7248 81.006 52.7421 82.3741 50.8647 82.9937C46.1157 84.5611 43.6103 89.0334 43.6267 95.914L43.638 101.414L45.7459 98.1221C46.9052 96.3116 47.9738 94.9616 48.1203 95.1222C48.5265 95.5671 46.4969 106.112 45.5139 108.664C44.5006 111.295 40.5249 111.726 38.6056 109.414ZM13.8077 66.3118C8.97775 61.1694 9.19467 59.9485 15.3985 57.3563C19.6016 55.6002 20.375 55.5451 18.806 57.114C16.8241 59.0959 17.4276 59.915 20.856 59.896C23.9961 59.8771 44.3663 55.4871 45.2072 54.6462C45.4347 54.4187 44.5708 52.6981 43.2871 50.8231C41.5597 48.3002 40.3286 47.4864 38.5507 47.6927C36.7063 47.9066 36.4223 47.6966 37.3274 46.7927C38.2325 45.8876 37.3463 44.6709 33.5142 41.553C30.0163 38.7075 28.6105 36.8819 28.8173 35.4531C29.035 33.9482 29.7485 33.4849 31.5402 33.6843C32.8754 33.8329 36.1593 33.2267 38.8378 32.337L43.7077 30.7196L43.4068 26.0668C43.1494 22.0849 42.8176 21.4482 41.106 21.6511C37.5024 22.0784 34.9211 20.9933 31.6557 17.6782C26.0718 12.0094 26.1067 11.4207 32.031 11.3645C36.2612 11.3244 39.506 10.2387 49.0687 5.66428L60.881 0.0136719L64.7289 1.97668C69.2945 4.30589 72.0186 8.03883 71.15 10.7757C70.2449 13.6275 66.678 15.619 58.9408 17.5923C55.1817 18.551 52.938 19.5071 53.9547 19.717C55.4267 20.0208 55.7207 20.8066 55.3978 23.5725C55.0346 26.6835 55.207 26.9846 57.0492 26.4561C63.8869 24.4941 64.4795 24.5874 68.0853 28.1932C73.9363 34.0442 72.8952 36.0137 62.6061 38.5588L55.1061 40.4141L54.5288 46.414C54.2114 49.714 54.0256 52.5282 54.116 52.6678C54.2063 52.8072 58.6079 51.9475 63.897 50.7569C73.401 48.6176 73.5936 48.6137 80.31 50.4262C87.8336 52.4565 92.0031 55.892 93.1211 60.982C94.5974 67.7036 90.3018 68.4149 76.4885 63.736C68.6507 61.0811 65.7019 60.5752 58.5761 60.663C48.3285 60.7893 39.1524 62.7944 27.5179 67.4493C22.755 69.3549 18.6889 70.9081 18.4821 70.901C18.2754 70.8935 16.1718 68.8288 13.8077 66.3118ZM44.4164 39.6641C44.7702 35.3886 44.656 35.3296 40.3064 37.5412C35.9867 39.7375 36.0393 39.6303 38.1403 41.9519C41.0954 45.2172 44.0458 44.1418 44.4164 39.6641ZM58.3002 34.4991C61.6204 31.6414 61.1141 30.6625 56.7657 31.5322C54.2838 32.0286 53.606 32.6734 53.606 34.539C53.606 37.5476 54.7699 37.5378 58.3002 34.4991ZM82.9735 42.4056C81.4377 39.0511 79.4138 36.3532 77.7975 35.5064L75.1433 34.1157L79.4239 32.9631C84.8383 31.5052 87.2478 32.2788 89.6713 36.2533C92.8467 41.461 91.6537 47.9141 87.5155 47.9141C86.0384 47.9141 84.8175 46.4335 82.9735 42.4056Z" />
</svg>
