<svg width="67" height="101" viewBox="0 0 67 101"  xmlns="http://www.w3.org/2000/svg">
<path d="M46.6994 96.3289C41.0724 90.7019 40.6639 89.1561 45.7082 92.5793C51.6711 96.6259 52.5641 95.791 52.2213 86.4901C51.9038 77.8784 50.4874 71.013 49.0282 71.013C48.5278 71.013 44.4783 72.1629 40.0292 73.5684C31.436 76.283 28.0152 76.1003 28.0152 72.9266C28.0152 71.3671 28.4962 71.0957 30.4094 71.5759C31.7263 71.9062 36.114 71.2667 40.1595 70.1544C57.5917 65.3615 63.9253 65.1082 66.0713 69.1182C67.1688 71.1689 67.0696 71.1895 59.3504 70.5145C52.063 69.8773 51.6653 69.9396 53.6617 71.4054C55.927 73.0687 57.4834 78.387 58.5986 88.2743C59.5321 96.5513 57.275 100.871 51.9493 100.999C51.6383 101.007 49.2757 98.9052 46.6994 96.3289ZM16.6574 97.322C16.2773 96.9419 16.2644 93.3419 16.6272 89.322C16.9916 85.3021 16.9874 82.0131 16.6196 82.0131C16.2503 82.0131 13.826 83.0726 11.2318 84.3676C8.63756 85.6625 4.94 87.0146 3.01502 87.372C-0.346005 87.9961 -0.281957 87.9048 4.6298 85.0744C13.7895 79.796 21.4331 69.013 16.015 69.013C13.3255 69.013 13.4775 67.8505 17.1389 60.4131C18.9489 56.7365 20.0396 53.2151 19.7325 52.0404C19.0077 49.269 21.4708 49.398 23.4582 52.2355C25.6804 55.408 25.4843 56.1623 20.9592 61.8455L16.9033 66.9395L20.4591 68.4252C24.8788 70.2719 24.93 72.0439 20.6963 76.6635L17.3776 80.2848L19.6962 82.6034C22.2729 85.1801 22.7216 89.6871 20.917 94.8638C19.8744 97.8548 18.1725 98.837 16.6574 97.322ZM48.7735 58.8289C49.2306 57.0808 48.9875 56.8077 47.4231 57.3116C39.0688 60.0017 36.8332 60.388 35.2819 59.4095C32.6248 57.7334 32.3984 55.6824 34.9601 56.4955C36.2955 56.9193 39.6621 56.2983 43.6394 54.8941C48.5209 53.1708 50.5572 52.8647 51.8261 53.6637C54.6331 55.4313 54.3692 57.7786 51.1779 59.4289C48.3155 60.9091 48.2348 60.889 48.7735 58.8289ZM42.6853 45.3993C38.6893 41.6853 38.3366 40.0443 41.9501 41.9782C43.1086 42.5982 44.4971 42.8332 45.0357 42.5003C46.0506 41.873 46.4548 16.7859 45.466 15.7971C44.7594 15.0906 36.7839 16.8615 35.6617 17.974C34.2593 19.3644 36.6496 22.4272 39.1717 22.4717C41.9865 22.5212 42.8673 24.365 40.318 24.8707C37.8623 25.3578 36.0153 26.9739 36.0153 28.6354C36.0153 30.24 39.6793 30.5205 40.2008 28.956C40.3947 28.3745 41.3513 28.2049 42.3266 28.5792C44.872 29.5559 43.8424 31.4274 40.4327 32.0219C38.1709 32.4162 37.2614 33.3152 36.3862 36.0218C35.7653 37.9421 34.4828 39.6673 33.5364 39.8557C32.0966 40.1422 31.9265 39.6932 32.4948 37.1057C33.1679 34.041 33.1371 34.0132 29.0699 34.0132C25.7119 34.0132 24.8074 34.4298 24.0947 36.3043C23.1142 38.8832 20.2575 41.5888 19.41 40.7413C19.1038 40.4351 19.2822 39.3585 19.8063 38.3489C21.476 35.1335 22.1254 27.459 21.1101 22.9404C20.5697 20.5353 20.2889 18.4062 20.4859 18.2092C21.4261 17.269 24.9123 20.2684 25.1953 22.261C25.4459 24.0257 26.1647 24.5132 28.5153 24.5132C30.8651 24.5132 31.5846 24.0255 31.8348 22.2631C32.1032 20.3732 31.69 20.0132 29.2514 20.0132C23.7031 20.0132 25.0327 18.6335 33.2321 15.8824C44.7129 12.0303 48.8463 11.8442 52.0381 15.036C53.783 16.7809 53.8861 17.3651 52.7881 19.2861C51.9505 20.7515 51.5152 25.6487 51.5152 33.6062C51.5152 42.3846 51.1392 46.1535 50.1428 47.3563C48.1822 49.7232 47.0052 49.4143 42.6853 45.3993ZM32.8346 29.226C33.1117 27.3076 32.6944 27.013 29.7012 27.013C26.8209 27.013 26.1699 27.4238 25.775 29.4896C25.1656 32.6774 25.437 32.8778 29.2987 32.0928C31.6001 31.625 32.606 30.8094 32.8346 29.226ZM24.975 9.81786C27.2638 7.52909 29.3904 4.38666 29.7008 2.83471C30.3356 -0.339303 31.7177 -0.775964 33.484 1.63953C34.5315 3.07201 35.1166 3.10588 38.3886 1.9227C42.4625 0.44955 44.315 1.07287 46.7467 4.7352C48.084 6.74927 47.8333 7.00137 41.3321 10.18C37.5828 12.0132 34.0651 13.6801 33.5151 13.8842C32.9651 14.0883 34.6959 12.0042 37.3611 9.25257C40.4865 6.02587 41.8022 3.99947 41.067 3.5451C40.4401 3.15766 38.8379 3.55272 37.5064 4.42689C36.175 5.29928 34.6674 6.01307 34.1562 6.01307C33.645 6.01307 31.8283 7.31926 30.1192 8.91577C28.4102 10.5123 25.6172 12.3047 23.9127 12.8989L20.8137 13.9793L24.975 9.81786Z" />
</svg>
