<svg width="58" height="101" viewBox="0 0 58 101"  xmlns="http://www.w3.org/2000/svg">
<path d="M23.0305 99.5739C20.4955 98.7608 16.4456 96.3255 14.0306 94.162C9.93367 90.4916 9.7504 90.1151 11.292 88.5348C13.3969 86.377 19.7365 85.2053 23.7113 86.2395C25.4407 86.6895 27.3787 88.1518 28.1462 89.586C29.3348 91.8068 29.2946 92.3477 27.8339 93.8086C26.2664 95.376 25.9363 95.2688 22.7152 92.1468C20.5614 90.0593 18.6854 89.0344 17.7059 89.4103C12.8817 91.2615 20.617 97.751 28.8034 98.7206C36.9917 99.6903 41.7133 96.0839 43.5737 87.4392C44.1456 84.7811 43.8243 83.9708 41.4597 82.1109C39.154 80.2973 37.9103 80.0314 34.2792 80.5759L29.8872 81.2345L30.5841 77.5203C31.2102 74.1824 31.0964 73.8857 29.4604 74.5924C25.6577 76.2351 21.5438 76.2655 20.212 74.6608C19.4878 73.7881 19.2891 73.074 19.7708 73.074C20.2523 73.074 23.6519 72.2146 27.3252 71.1641C32.6488 69.6417 34.3394 69.4994 35.657 70.4628C37.178 71.5749 37.14 71.9595 35.1837 75.2754L33.0575 78.8792L38.0227 78.7265C50.7491 78.3355 53.0441 91.5535 41.4278 98.3379C37.1242 100.851 28.765 101.413 23.0305 99.5739ZM15.3398 65.8741C13.0192 63.5535 13.9656 62.1714 17.4842 62.7424C19.5084 63.0708 24.8116 62.2566 30.9188 60.6795C38.5575 58.7069 41.6323 58.3107 43.5743 59.0491C47.2372 60.4417 46.759 61.6691 41.8897 63.3742C39.5522 64.1928 36.7397 65.2114 35.6397 65.6378C33.6668 66.4027 33.6656 66.3838 35.5449 64.2436C37.9705 61.4812 37.1221 61.519 28.14 64.5739C19.9556 67.3576 17.1122 67.6465 15.3398 65.8741ZM40.3688 53.4047C39.2165 52.9411 36.1399 47.9909 36.1399 46.6006C36.1399 46.2858 37.2905 46.7821 38.697 47.7035C41.1194 49.2907 41.3963 49.2736 43.9471 47.3792C47.4855 44.7515 49.6443 40.8311 48.7855 38.593C48.1998 37.0668 47.2798 36.8828 42.6318 37.3625C39.626 37.6728 36.9419 37.5624 36.667 37.1176C36.3922 36.6727 37.1455 35.065 38.3413 33.5447L40.5155 30.7807L36.9203 31.4551C34.4152 31.9251 33.1649 31.7419 32.7968 30.8516C32.4249 29.9523 31.6611 30.2678 30.2187 31.9166C28.6647 33.6928 28.4071 34.7048 29.1543 36.1008C32.0861 41.5789 27.6263 53.5884 22.9221 52.8832C19.6435 52.3917 19.1137 49.0701 21.2873 42.6318C22.3622 39.4476 23.006 36.6065 22.7177 36.3182C21.2815 34.882 17.526 39.442 15.0456 45.6341C12.2711 52.5606 9.91678 54.5197 9.32907 50.3913C8.92693 47.5665 11.343 42.9616 15.8367 37.9876C17.8077 35.8059 19.2199 33.8206 18.9751 33.5757C18.7302 33.3308 16.3048 34.6772 13.585 36.5675C5.50455 42.1834 4.50627 42.5617 1.4489 41.1687C-1.17545 39.9729 -0.929136 39.7839 11.4262 33.5082C23.3819 27.4354 28.1397 25.869 28.1397 28.0056C28.1397 28.5182 26.7639 29.9172 25.0823 31.1147C23.4006 32.3121 22.2417 33.5089 22.5069 33.7741C23.6996 34.9668 27.2129 32.6366 30.4111 28.5316C33.2662 24.8669 34.123 22.6105 35.1387 16.0811C36.3337 8.3995 36.2392 5.57726 34.6614 1.8237C34.0753 0.429205 34.4305 0.0737305 36.4105 0.0737305C40.8785 0.0737305 41.5221 2.12017 39.7646 10.7381C38.8988 14.9839 38.4108 18.678 38.6802 18.9474C38.9496 19.2169 40.6255 18.0434 42.4048 16.3401C45.7794 13.1095 50.1713 11.747 50.846 13.7213C51.0618 14.3526 48.6055 16.4685 45.3878 18.4231C39.2487 22.1524 36.8697 24.3757 35.8001 27.3837C35.2199 29.0152 35.5986 29.1274 39.6366 28.5219C43.3579 27.9639 44.2298 28.1447 44.7843 29.5899C45.2331 30.7596 44.7047 31.8935 43.1706 33.0505C40.9049 34.7595 40.9199 34.7707 45.3603 34.6725C50.8103 34.552 53.1399 36.2958 53.1399 40.496C53.1399 44.3268 48.7156 51.4903 45.4233 52.9903C42.8729 54.1524 42.3369 54.1966 40.3688 53.4047ZM25.0158 46.3056C26.4828 43.5645 27.4816 37.074 26.4364 37.074C25.2304 37.074 22.1399 43.5724 22.1399 46.108C22.1399 48.5538 23.7533 48.6647 25.0158 46.3056ZM20.4577 25.688C20.8544 24.6542 20.5491 24.074 19.6083 24.074C17.6729 24.074 17.7467 22.0804 19.7899 19.1632C20.6975 17.8674 21.0349 16.9915 20.5399 17.2167C20.0448 17.4419 17.9931 18.4657 15.9806 19.4919C12.0715 21.4852 9.13968 21.1053 9.13968 18.6054C9.13968 17.663 10.0471 17.074 11.4989 17.074C12.7964 17.074 16.5088 15.7297 19.7488 14.0866C22.9888 12.4436 26.4273 11.0937 27.3898 11.0867C30.1126 11.0678 29.4528 13.7826 26.1397 16.2321C22.4841 18.9348 22.3357 20.074 25.6396 20.074C29.2284 20.074 28.7348 21.4145 23.989 24.5551C21.0372 26.5085 20.0173 26.8357 20.4577 25.688ZM52.5214 25.5216C52.8491 24.6678 52.3957 22.8677 51.5136 21.5216C50.2093 19.531 50.1698 19.074 51.3023 19.074C53.9042 19.074 57.1397 22.154 57.1397 24.6307C57.1397 26.597 56.6308 27.074 54.5328 27.074C52.5872 27.074 52.0769 26.6802 52.5214 25.5216ZM22.8926 7.58642C23.2142 5.90332 22.8461 4.8986 21.7539 4.47945C20.8661 4.13891 20.1398 3.40942 20.1398 2.85866C20.1398 1.4814 25.2671 2.83222 27.1397 4.70437C28.473 6.03642 28.3773 6.41827 26.279 8.13856C23.1399 10.7122 22.3206 10.5786 22.8926 7.58642Z" />
</svg>
