<svg width="74" height="106" viewBox="0 0 74 106"  xmlns="http://www.w3.org/2000/svg">
<path d="M59.2103 103.482C57.413 101.762 54.6634 99.6925 53.0997 98.8826C49.344 96.937 50.1428 96.3455 54.6555 97.7305C60.4362 99.5047 61.3875 98.6 60.8242 91.8641C60.557 88.6704 60.1183 84.6036 59.8491 82.8269L59.3593 79.5967L53.1509 80.1727C49.7363 80.4894 43.4231 81.6636 39.1214 82.7817C33.3124 84.2917 31.0097 84.5243 30.1713 83.686C28.214 81.7286 30.4832 80.9279 44.3999 78.6646C51.8015 77.4609 58.0714 76.2618 58.3333 76C58.5952 75.738 58.277 74.9914 57.626 74.3406C55.7057 72.4203 56.2514 71.5573 59.3859 71.5573C61.1679 71.5573 62.8667 72.3247 63.6916 73.5025C64.4409 74.5723 66.3056 75.6746 67.8351 75.952C74.0645 77.0816 75.9179 82.0651 69.8451 81.3561L66.2476 80.9361L66.8672 84.8101C69.1572 99.1312 68.6695 103.295 64.4374 105.56C62.8238 106.424 61.9014 106.057 59.2103 103.482ZM14.1093 102.891C13.7427 102.524 13.4426 100.444 13.4426 98.2681C13.4426 94.9672 13.6772 94.5072 14.8604 95.4891C16.0394 96.4675 16.4482 95.7722 17.2874 91.3616C19.7975 78.1686 19.5082 77.8762 12.6915 86.715C4.32792 97.5596 4.74662 97.1665 2.81475 95.9859C-0.0172149 94.2551 0.198222 93.3435 4.92758 87.0436C7.76896 83.2587 9.4255 80.0153 9.43215 78.224C9.44727 74.603 11.8177 75.1573 12.259 78.8844C12.6618 82.2871 13.4106 82.244 16.8844 78.6179C19.1467 76.2566 19.9676 74.0449 21.06 67.3679C22.7204 57.2199 22.9661 52.7534 22.0259 49.8071C21.1631 47.1031 22.4458 46.908 25.3113 49.3071C27.1475 50.8444 27.2857 51.5563 26.449 55.1648C25.499 59.2619 24.3552 68.199 22.3791 86.9673C21.1714 98.437 19.4065 103.557 16.6604 103.557C15.624 103.557 14.476 103.257 14.1093 102.891ZM40.7046 97.3501C39.7476 96.1762 37.4618 89.1267 37.4483 87.3073C37.4369 85.9129 42.188 86.5456 43.4878 88.1118C45.4308 90.453 45.3307 97.9167 43.3508 98.3193C42.4752 98.4974 41.2843 98.0611 40.7046 97.3501ZM43.4288 74.8217C50.9514 69.4826 55.9777 64.7078 56.2806 62.6131C56.5414 60.8103 56.2541 60.4223 55.0306 60.9165C50.5967 62.7056 50.1943 62.5688 52.9426 60.2071C55.9141 57.6538 58.8049 56.9916 61.8609 58.1643C66.599 59.9825 59.7807 67.5065 48.4427 72.9713C44.3177 74.9595 42.0614 75.7922 43.4288 74.8217ZM35.8164 68.1096C37.3849 65.7158 37.1114 62.5573 35.3357 62.5573C32.8237 62.5573 35.0431 59.6646 39.6926 56.8793C42.5801 55.1495 46.0514 52.5503 47.4067 51.1034C49.501 48.8674 49.6873 48.1788 48.6482 46.5149C47.5656 44.7813 47.6929 44.5573 49.7599 44.5573C52.9291 44.5573 56.8185 48.7977 56.0038 51.3646C55.3399 53.4563 53.9754 54.1164 43.1925 57.5629C39.48 58.7495 36.4455 60.0212 36.4489 60.3888C36.4525 60.7566 37.8025 61.8238 39.449 62.7608C41.4903 63.9223 42.4426 65.2403 42.4426 66.9037C42.4426 69.512 40.8128 70.5573 36.7458 70.5573C34.288 70.5573 34.2605 70.4843 35.8164 68.1096ZM45.7204 66.3073C44.4856 64.7114 43.3492 61.5572 44.0092 61.5572C45.4253 61.5572 49.4427 64.9695 49.4427 66.1723C49.4427 67.898 47.0192 67.9859 45.7204 66.3073ZM13.4426 64.6395C13.4426 63.5461 12.9195 61.5033 12.2802 60.1001C10.5628 56.3309 11.9263 55.9261 15.9644 59.0062C19.7401 61.886 19.5896 63.3379 15.2749 65.647C13.7842 66.4449 13.4426 66.2571 13.4426 64.6395ZM14.6927 43.3615C13.287 42.6681 12.4426 41.3456 12.4426 39.8371C12.4426 37.818 12.7963 37.5348 14.6025 38.108C16.9592 38.856 33.4427 34.6536 33.4427 33.3047C33.4427 32.8591 32.7676 32.2355 31.9425 31.9189C31.1175 31.6022 30.4426 30.7491 30.4426 30.0228C30.4426 29.2966 29.3177 27.8175 27.9427 26.7359C24.414 23.9602 24.8023 22.7608 29.9427 20.5573C34.5773 18.5707 35.1166 17.4602 33.5054 13.2224C32.739 11.2066 31.8841 10.7573 28.8151 10.7573C26.3621 10.7573 24.6084 10.1368 23.7523 8.96618C21.7615 6.24352 22.1441 5.5573 25.6529 5.5573C27.4186 5.5573 32.2565 4.35535 36.4037 2.88633C44.3661 0.065968 48.9719 0.167197 50.1311 3.18795C50.8623 5.09347 49.2501 6.23926 43.8592 7.64551C39.8656 8.68726 39.7759 8.80694 39.7759 13.0875V17.4643L44.6452 17.2606C47.9342 17.123 49.7972 17.5142 50.386 18.4664C51.8745 20.8733 50.3373 22.7137 44.7884 25.1677C40.2994 27.1529 39.4425 27.9495 39.4425 30.1382C39.4425 32.669 39.5805 32.7265 44.1926 32.118C46.805 31.7733 51.7528 31.4256 55.1876 31.3453C60.4857 31.2213 61.8127 31.5562 63.9377 33.5525C66.7236 36.1697 67.2191 39.3218 64.9797 40.1811C64.1752 40.4899 61.1938 39.971 58.3542 39.0277C50.0131 36.2572 39.487 36.7818 28.859 40.4977C16.8447 44.6984 17.2412 44.6185 14.6927 43.3615ZM34.4427 25.5573C34.4427 22.1231 33.4616 21.7737 31.1111 24.3709C29.845 25.7699 29.7411 26.4558 30.6562 27.371C32.7779 29.4926 34.4427 28.6953 34.4427 25.5573ZM45.4426 21.5316C45.4426 20.9957 44.0926 20.5573 42.4426 20.5573C39.9011 20.5573 39.4425 20.9433 39.4425 23.0829C39.4425 25.5673 39.4917 25.5833 42.4426 24.0573C44.0926 23.204 45.4426 22.0675 45.4426 21.5316Z" />
</svg>
