<svg width="38" height="70" viewBox="0 0 38 70"  xmlns="http://www.w3.org/2000/svg">
<path d="M22.9523 68.3463C24.9009 66.3976 24.375 65.7596 20.2445 65.0618C18.0953 64.6986 15.5078 63.7955 14.4947 63.0547C12.9368 61.9155 12.8221 61.2593 13.7508 58.7989C14.7274 56.2117 14.5339 55.5377 12.0006 52.7024C10.434 50.9492 9.1523 49.0514 9.1523 48.4851C9.1523 46.4841 14.0952 42.5462 16.6069 42.5462C18.8536 42.5462 19.1522 42.1319 19.1522 39.0149C19.1522 36.7984 18.5938 35.2691 17.6523 34.9078C16.8273 34.5911 16.1522 33.9304 16.1522 33.4393C16.1522 32.9481 16.8273 32.5462 17.6523 32.5462C18.6523 32.5462 19.1522 31.5463 19.1522 29.5462C19.1522 27.8962 18.8148 26.5485 18.4023 26.5514C16.667 26.5627 10.1995 31.3192 7.19034 34.7963C3.75614 38.7644 0.141392 39.7938 0.167622 36.7962C0.18652 34.5397 1.84712 31.9079 2.70768 32.7684C3.07316 33.1339 5.23505 32.2474 7.51214 30.7989C9.78923 29.3503 13.2272 27.3687 15.1522 26.3954C17.7618 25.076 18.1435 24.6077 16.6523 24.5542C14.7039 24.4843 14.701 24.4458 16.5404 23.0532C17.8653 22.0502 18.9644 21.9105 20.2247 22.585C21.2125 23.1137 23.7833 23.5463 25.9373 23.5463C37.5237 23.5463 42.1861 31.4219 32.3453 34.3703C30.1865 35.0171 27.0098 35.5462 25.2861 35.5462C22.7378 35.5462 22.13 35.9667 22.0337 37.7962C21.8391 41.4953 22.2658 43.0026 23.7475 43.8459C26.3719 45.3399 25.2143 49.0165 20.6048 53.8269C17.7093 56.8486 16.5286 58.7238 17.3547 58.9889C18.0684 59.2179 21.3481 60.2245 24.643 61.2257C31.9817 63.4559 33.0717 65.8463 27.7614 68.0651C23.2967 69.9305 21.2482 70.0503 22.9523 68.3463ZM18.5453 51.9645C18.879 51.0945 19.1522 49.5194 19.1522 48.4644C19.1522 46.0387 14.9903 45.8315 13.0571 48.1609C11.9083 49.5452 12.0495 50.0446 14.0456 51.661C16.8835 53.959 17.7573 54.018 18.5453 51.9645ZM29.6052 31.3857C31.0061 30.7474 32.1522 29.6113 32.1522 28.861C32.1522 27.2947 28.1619 25.5462 24.5871 25.5462C22.4711 25.5462 22.1523 26.0045 22.1523 29.0462C22.1523 32.095 22.4685 32.5462 24.6051 32.5462C25.9542 32.5462 28.2043 32.024 29.6052 31.3857ZM13.1521 20.5127C14.4604 19.6379 14.4284 19.3778 12.9023 18.4782C10.3871 16.9959 10.6812 15.7637 15.1524 9.04615C17.3489 5.74617 19.1475 2.48371 19.1492 1.79621C19.153 0.215125 20.3992 0.192963 21.9525 1.74639C24.1518 3.94566 23.1943 6.17708 18.6523 9.43889C16.1773 11.2163 14.1524 13.0927 14.1524 13.6085C14.1524 14.9821 17.2785 14.6892 20.1525 13.0463C23.3867 11.1975 26.7915 11.1636 27.4859 12.9734C28.2155 14.8747 26.8504 15.8623 19.23 18.9469C12.4114 21.7068 10.7116 22.1445 13.1521 20.5127Z" />
</svg>
