<svg width="22" height="58" viewBox="0 0 22 58"  xmlns="http://www.w3.org/2000/svg">
<path d="M17.4742 56.6828C17.4553 55.9269 15.1925 53.1281 12.4425 50.4636C9.69249 47.799 7.4424 44.8096 7.4424 43.8204C7.4424 42.8311 8.56756 40.3661 9.94255 38.3426C11.3176 36.3191 12.4425 34.4232 12.4425 34.1296C12.4425 33.8359 10.4237 33.8722 7.95636 34.2105C-0.304892 35.3428 -1.09404 32.6678 3.04579 17.5646C4.72749 11.4294 5.48145 6.59514 5.17731 3.89667C4.77978 0.369883 4.95798 -0.190475 6.3245 0.288429C9.51733 1.40724 12.4425 4.92334 12.4425 7.64252C12.4425 9.14764 10.3716 14.6628 7.84033 19.8984C1.67089 32.6594 2.81722 34.1864 14.1892 28.3546C18.9753 25.9002 20.7111 25.4259 21.6117 26.3264C22.5123 27.227 21.6624 28.4918 17.978 31.7351C15.3329 34.0633 12.5099 37.5449 11.7047 39.472C10.3215 42.7826 10.3627 43.0743 12.4524 44.7665C13.6688 45.7515 15.2285 46.5573 15.9184 46.5573C16.6083 46.5573 18.3572 47.489 19.805 48.6278C22.5604 50.7953 22.4779 51.6068 19.0477 56.0573C18.0276 57.3807 17.4952 57.5924 17.4742 56.6828Z" />
</svg>
