<svg width="63" height="103" viewBox="0 0 63 103"  xmlns="http://www.w3.org/2000/svg">
<path d="M29.9502 95.8683C29.9502 88.8253 29.8906 88.654 27.4316 88.654C26.0462 88.654 21.6927 89.779 17.7571 91.154C13.8216 92.529 10.0121 93.654 9.29173 93.654C8.57128 93.654 6.5123 92.3131 4.71611 90.6741L1.45032 87.694L6.16458 88.3051C12.0925 89.0734 28.8901 85.9742 29.6591 83.9703C30.337 82.2035 30.1707 82.0786 26.1051 81.3036C23.3082 80.7704 22.6744 80.993 22.2384 82.66C21.205 86.6118 18.7444 84.3927 17.024 77.9576C16.3912 75.5904 14.7641 72.8662 13.2913 71.7077L10.6804 69.654H13.8812C18.7726 69.654 20.6933 71.1737 21.4481 75.641C22.0419 79.1559 22.4565 79.6521 24.7882 79.6387C28.1253 79.6198 30.4215 78.2252 29.5195 76.7658C29.1415 76.1543 27.7337 75.654 26.3912 75.654C25.0487 75.654 23.9503 75.204 23.9503 74.654C23.9503 74.104 25.0753 73.654 26.4502 73.654C28.3021 73.654 28.9502 73.1237 28.9502 71.6087C28.9502 69.826 28.5157 69.645 25.5649 70.1986C23.5252 70.5812 21.9116 70.4004 21.5058 69.7439C21.089 69.0695 21.7764 68.654 23.3095 68.654C27.1309 68.654 28.9502 67.6275 28.9502 65.4716C28.9502 63.947 28.3302 63.5442 26.2002 63.6846C21.7686 63.9768 20.9503 63.7401 20.9503 62.1658C20.9503 61.3473 21.7377 60.7436 22.7002 60.8242C27.8573 61.2564 28.9502 60.7002 28.9502 57.6441C28.9502 55.8718 28.128 53.9303 26.9504 52.9219C25.8503 51.9801 24.9503 50.8596 24.9503 50.4318C24.9503 48.8489 31.8054 49.7168 34.0896 51.5889C36.1326 53.2634 36.2821 53.7999 35.2003 55.5753C33.4747 58.4074 33.612 58.8245 36.2003 58.6149C41.9425 58.1497 42.9951 60.1797 37.5422 61.2027C35.3721 61.6098 33.9535 62.534 33.6363 63.747C32.9429 66.3986 34.3035 66.9276 38.6869 65.7102C44.5328 64.0868 46.6638 64.4262 50.1429 67.5347L53.3669 70.4155L50.1032 74.2848C48.3081 76.4129 45.9399 79.2321 44.8406 80.5498C41.7134 84.2982 40.2942 82.0084 41.7732 75.6007C42.4206 72.7962 42.9504 69.8608 42.9504 69.0778C42.9504 67.5745 39.2592 67.1966 35.2003 68.2843C32.1569 69.1 32.3015 71.6541 35.3911 71.6541C39.068 71.6541 39.5269 73.5887 36.0165 74.2908C32.0331 75.0875 31.9373 77.654 35.8912 77.654C38.6335 77.654 41.3468 79.5031 39.0094 79.779C38.4269 79.8478 37.5003 80.0164 36.9503 80.154C36.4003 80.2915 35.5003 80.46 34.9503 80.5288C34.4003 80.5976 33.9502 81.5114 33.9502 82.5595C33.9502 84.3406 34.59 84.4299 43.7412 83.9256C54.7986 83.3163 59.9504 84.8644 59.9504 88.7962C59.9504 91.1366 58.8018 91.0585 51.0582 88.1918C48.2891 87.1666 44.4091 86.6744 40.5582 86.8598L34.4504 87.1538L33.8462 93.4723C33.4781 97.3221 32.5992 100.434 31.5963 101.437C30.0685 102.964 29.9502 102.565 29.9502 95.8683ZM24.0659 42.5558C22.6641 38.5348 22.656 38.6039 24.4502 39.2924C25.6983 39.7714 25.9503 38.6539 25.9503 32.639C25.9503 25.4201 25.9471 25.4121 23.7554 26.8674C21.0204 28.6834 20.2124 30.1823 19.4778 34.8025C18.7158 39.5957 15.4604 43.654 12.3776 43.654C10.3645 43.654 9.95033 43.1579 9.95033 40.7476C9.95033 38.3717 10.3014 37.9331 11.8745 38.3444C13.2876 38.7141 14.2369 38.0005 15.4482 35.6579C17.6308 31.4373 16.8076 30.9085 12.7661 33.935C8.98174 36.7689 3.55048 39.654 2.00004 39.654C1.42272 39.654 0.950195 38.4809 0.950195 37.0471C0.950195 35.3073 1.38652 34.6074 2.26163 34.9432C2.98288 35.2199 6.69529 33.8057 10.5116 31.8003L17.4503 28.1541L17.2538 23.654C17.0735 19.5188 17.1747 19.3114 18.5036 21.0951C19.2992 22.1627 19.95 23.6252 19.95 24.3451C19.95 26.1311 22.0269 25.989 24.853 24.0095C27.0064 22.5012 27.1585 21.8388 26.6906 16.0095C26.3117 11.289 26.5054 9.6539 27.4429 9.6539C29.9365 9.6539 30.9566 12.1445 29.9296 15.7252C28.3315 21.2975 28.5119 21.5505 33.9929 21.4257C41.718 21.2496 42.6561 22.7565 39.8417 30.8207C36.631 40.0201 37.2487 40.9758 46.0821 40.4766C51.9185 40.1467 53.5106 39.68 54.9778 37.8682C56.0097 36.5938 56.5619 34.709 56.2846 33.4076C55.8977 31.5913 56.4951 31.9303 59.3624 35.1539C61.3192 37.3539 62.9271 39.6619 62.9352 40.2826C62.9617 42.4023 57.006 43.8768 47.854 44.0154C39.1691 44.147 38.6144 44.0268 36.802 41.6279C35.0756 39.3424 34.9938 38.3962 35.9436 31.6995C37.1386 23.2733 36.559 21.9527 32.2877 23.3715C29.4604 24.3107 29.4484 24.3515 28.9502 34.7234C28.5377 43.3102 28.1639 45.1873 26.8156 45.4444C25.7379 45.65 24.8016 44.6662 24.0659 42.5558ZM42.2002 35.0024C39.912 34.0595 40.9086 32.8844 44.5806 32.1955C47.7582 31.5994 51.2173 32.7898 49.8836 34.0205C49.0448 34.7945 43.4354 35.5113 42.2002 35.0024ZM44.2002 28.9917C42.0199 28.1119 42.845 26.836 46.0492 26.1322C50.2601 25.2074 52.2669 27.2029 48.5479 28.6168C47.0476 29.1873 45.7368 29.6185 45.6351 29.5751C45.5334 29.5316 44.8877 29.2693 44.2002 28.9917ZM40.4502 20.9605C36.1947 19.8503 35.6664 18.5895 36.246 10.926C36.8488 2.9557 36.2846 2.26345 31.9502 5.65396C29.3537 7.685 27.2327 8.08337 24.5321 7.04706C22.4656 6.25407 22.4946 4.65406 24.5752 4.65406C25.4689 4.65406 28.828 3.47473 32.0397 2.03337C38.7474 -0.976835 41.3159 -0.651142 40.3769 3.09036C39.7767 5.48156 39.8732 5.53652 43.062 4.62199C45.1808 4.01432 46.7196 4.02331 47.3433 4.6484C48.7917 6.09683 47.4294 6.93467 43.2136 7.18824C40.5663 7.34735 39.3484 7.92597 39.107 9.13867C38.8114 10.6236 39.3129 10.7699 42.7248 10.1935C45.7308 9.68562 46.8212 9.87675 47.2471 10.9868C47.955 12.8315 43.2682 13.896 40.6373 12.488C39.0349 11.6304 38.8439 11.8632 39.1266 14.3308C39.4002 16.7191 39.9631 17.2046 42.7709 17.474C47.1062 17.89 50.9633 15.4214 50.2485 12.6881C49.5857 10.1535 50.7239 10.1373 53.9503 12.6355C55.9857 14.2115 56.2472 14.9044 55.358 16.3633C53.3558 19.6482 45.1349 22.1828 40.4502 20.9605ZM18.2365 15.404C18.4856 14.7166 18.0006 13.3637 17.1592 12.3979C15.3233 10.2907 16.3798 8.80435 18.6815 10.2562C21.5854 12.0879 22.6356 14.5928 20.9503 15.6671C18.8624 16.9981 17.6999 16.8854 18.2365 15.404Z" />
</svg>
