<svg width="57" height="99" viewBox="0 0 57 99"  xmlns="http://www.w3.org/2000/svg">
<path d="M44.7433 95.9281C43.3383 94.4156 40.9478 90.928 39.4311 88.1781L36.6735 83.1781L40.8738 87.5529C43.1903 89.9658 45.4421 91.5355 45.8949 91.053C46.3464 90.5718 46.2002 86.5781 45.5698 82.1781L44.4238 74.1781L41.4237 74.4581C39.7737 74.6123 35.6061 75.7097 32.1622 76.8971C25.3201 79.2563 20.7424 78.6904 20.1101 75.4074C19.8327 73.9661 20.5805 73.6702 24.6004 73.6314C32.5886 73.5539 42.4205 71.372 42.448 69.6703C42.4631 68.7496 43.2287 68.299 44.4478 68.4938C45.5345 68.6676 48.5482 68.917 51.1448 69.0482C53.7414 69.1794 56.149 69.57 56.495 69.916C57.6776 71.0985 55.8089 72.6781 53.2271 72.6781C50.676 72.6781 50.6556 72.7393 51.3258 78.4281C53.2228 94.5282 53.2284 95.2305 51.4744 96.9844C49.1229 99.3359 47.7018 99.1129 44.7433 95.9281ZM8.43707 92.056C6.54352 87.5241 6.54699 87.1206 8.46729 88.7132C10.7744 90.628 11.6673 88.971 12.469 81.2878C13.3219 73.1139 12.707 73.1637 6.88272 81.7401C-0.203404 92.1749 -2.35155 88.4606 2.99108 75.0113C5.90389 67.6787 6.06018 66.3727 4.48038 62.5556C3.36594 59.8629 8.89711 61.5233 10.1418 64.2551C11.0226 66.1883 10.7574 67.0885 8.52404 69.7427C5.50204 73.3341 2.55589 78.6423 3.21738 79.3038C3.78057 79.867 12.1486 72.9323 13.2812 70.9638C13.7522 70.1452 14.2022 65.2501 14.2812 60.0858C14.426 50.6217 15.2134 48.9108 17.9221 52.1746C18.8612 53.3062 18.9071 54.7085 18.1106 57.9247C17.5312 60.264 16.5522 68.7031 15.9348 76.6781C14.5222 94.9227 14.3626 95.6781 11.9192 95.6781C10.6032 95.6781 9.44934 94.4787 8.43707 92.056ZM25.9236 87.8437C25.9236 86.6619 31.9898 78.6781 32.8877 78.6781C33.3228 78.6781 34.1972 79.3027 34.8308 80.0662C36.5544 82.1431 34.1946 86.5928 31.0021 87.2855C29.5839 87.5932 27.8612 88.0184 27.1737 88.2302C26.4862 88.4418 25.9236 88.268 25.9236 87.8437ZM33.9078 67.2961C40.9338 63.5381 46.1696 58.727 45.6007 56.5515C45.3313 55.5211 45.3162 54.6781 45.5668 54.6781C46.8974 54.6781 51.9236 57.8709 51.9236 58.7161C51.9236 60.0797 41.7126 66.4884 36.7503 68.2392C30.4764 70.4528 28.9518 69.9469 33.9078 67.2961ZM25.6736 65.1025C22.9202 63.6124 22.0813 61.3167 23.883 60.2032C24.4106 59.8771 25.7163 60.1564 26.7848 60.8235C28.3643 61.81 29.2063 61.7228 31.2902 60.3573C34.1079 58.5111 39.9236 58.0747 39.9236 59.7095C39.9236 61.4298 37.0001 61.9865 35.3141 60.5872C33.9915 59.4896 33.5876 59.5272 32.8667 60.8155C32.3919 61.664 31.1978 63.3106 30.2134 64.4746C28.5538 66.4369 28.2234 66.4825 25.6736 65.1025ZM34.0462 52.6754C36.0386 51.6226 37.9283 49.7685 38.2456 48.5552C38.7333 46.6901 39.062 46.548 40.373 47.636C42.3884 49.3087 42.3691 53.2931 40.3428 54.0711C39.4728 54.4048 36.8852 54.6581 34.5927 54.6338L30.4245 54.5897L34.0462 52.6754ZM7.17361 46.4576C4.07803 44.9647 4.3539 44.042 8.12126 43.2886C9.87999 42.9367 12.3552 41.9701 13.6215 41.1404C16.3369 39.3612 16.6986 36.4735 14.1737 36.7303C9.1062 37.2458 8.3246 35.4311 12.9236 33.8279C16.5905 32.5496 16.9773 29.6781 13.4826 29.6781C9.47947 29.6781 9.66321 28.0568 14.0964 24.2621L18.2836 20.6781H15.1627C13.4461 20.6781 11.7634 20.228 11.4235 19.678C11.0837 19.128 11.4502 18.6781 12.2376 18.6781C13.0251 18.6781 15.753 17.7565 18.2995 16.63C21.1192 15.3827 23.4972 14.8996 24.3813 15.3944C26.1914 16.4074 25.5296 17.3687 20.1274 21.5745C15.5113 25.1684 15.1566 26.3004 19.1184 24.7942C22.9745 23.3281 24.7633 25.0817 21.5556 27.1836C18.4222 29.2367 18.1613 30.6781 20.9235 30.6781C22.0346 30.6781 22.9236 31.3448 22.9236 32.1781C22.9236 33.0031 22.2487 33.6781 21.4237 33.6781C20.5201 33.6781 19.9235 34.6033 19.9235 36.0049C19.9235 38.0425 20.3125 38.2746 23.0511 37.8727C27.9312 37.1564 26.2224 39.6043 18.8428 43.9013C12.0055 47.8824 10.7144 48.1652 7.17361 46.4576ZM29.4487 44.7569C27.8403 39.6892 29.2207 8.6781 31.0545 8.6781C31.5597 8.6781 32.4143 9.83838 32.9535 11.2565C33.8194 13.5341 34.3122 13.7536 37.1787 13.1388C41.5208 12.2076 41.9236 11.8996 41.9236 9.51203C41.9236 8.04939 41.4684 7.63879 40.3308 8.07533C36.5162 9.5391 33.9237 9.8382 33.9237 8.81444C33.9237 8.22018 36.4302 7.00523 39.4938 6.11463C44.7172 4.59613 45.1843 4.60406 46.9938 6.24162C49.3347 8.36008 49.4746 10.9758 47.3419 12.7459C46.472 13.4679 45.0072 15.6604 44.0868 17.6183C42.5936 20.7943 41.9063 21.2364 37.7104 21.7194C35.1239 22.0172 32.6514 22.6199 32.2158 23.0589C31.3769 23.9044 36.6864 28.6646 38.4777 28.6731C39.9063 28.6807 45.9237 22.3822 45.9237 20.8804C45.9237 19.3423 47.187 19.3413 48.7237 20.8781C50.8953 23.0496 49.9851 24.7634 45.6388 26.686C43.282 27.7285 41.0539 28.8814 40.6874 29.2479C40.3208 29.6145 42.4968 32.1769 45.5228 34.9425C49.306 38.4002 50.9308 40.6034 50.7242 41.996C50.1691 45.7387 48.0999 44.8318 43.8584 38.9865C41.5402 35.7919 38.0413 31.7079 36.0829 29.9111C31.802 25.9832 30.6443 27.0387 31.1193 34.4365C31.3884 38.6251 31.6861 39.1688 33.6737 39.0986C34.9112 39.0552 35.9238 39.1137 35.9238 39.2263C35.9238 39.3405 35.2426 41.0636 34.4102 43.0558C32.763 46.9982 30.4155 47.8031 29.4487 44.7569ZM39.4765 19.4177C39.5858 19.2858 39.9864 18.1656 40.3667 16.9281C40.9089 15.1642 40.6657 14.6811 39.241 14.6918C34.9322 14.7258 32.9237 15.9095 32.9237 18.4198C32.9237 20.7046 33.2067 20.8715 36.1007 20.2927C37.8481 19.9431 39.3673 19.5495 39.4765 19.4177ZM6.04095 17.3194C5.20553 16.3128 5.55433 15.6785 7.52241 14.6253C10.4143 13.0776 15.1643 7.43881 17.0351 3.33269L18.2734 0.615234L21.0421 3.64665C22.565 5.31395 24.463 6.67807 25.2602 6.67807C27.9849 6.67807 28.044 9.68183 25.3393 10.7101C21.8839 12.0238 21.6979 11.9639 22.3967 9.7622C23.6975 5.66376 20.5724 6.5031 16.0446 11.4683C10.5166 17.5303 7.62136 19.2237 6.04095 17.3194Z" />
</svg>
