<svg width="60" height="59" viewBox="0 0 60 59"  xmlns="http://www.w3.org/2000/svg">
<path d="M10.5335 56.7989C8.89286 54.986 9.03386 54.8946 14.5354 54.2073C22.1458 53.2564 22.924 52.8719 22.924 50.0625C22.924 47.9681 22.6853 47.8101 21.0566 48.8273C18.7592 50.2621 16.4113 49.457 14.9543 46.7345C14.0295 45.0064 14.1468 44.678 15.6888 44.678C16.6982 44.678 18.0338 45.1877 18.6568 45.8107C20.4451 47.599 22.924 46.0153 22.924 43.0844C22.924 40.6393 22.6742 40.4779 19.7809 41.0566C17.895 41.4338 16.0567 41.2029 15.185 40.4796C13.9853 39.4839 14.489 39.0915 18.0783 38.226C21.4295 37.4178 22.4972 36.663 22.7436 34.928C23.0116 33.0417 22.5978 32.6779 20.1849 32.6779C18.6017 32.6779 16.4328 32.0172 15.3652 31.2097C13.4969 29.7966 13.5213 29.7404 16.0176 29.7098C17.444 29.6909 21.269 28.7604 24.5176 27.6389C30.1294 25.7016 34.9242 25.6824 34.9242 27.5973C34.9242 28.0819 32.6741 29.0182 29.9241 29.678C27.1741 30.3377 24.924 31.2275 24.924 31.6553C24.924 33.4172 28.3603 35.0902 31.4351 34.8253C37.5282 34.3004 36.7889 37.3447 30.5114 38.6286C25.8435 39.5833 26.4361 42.2561 31.2243 41.8435C34.8439 41.5317 37.924 42.8961 37.924 44.8113C37.924 45.2999 35.4021 46.9324 32.3195 48.4389L26.7148 51.1781L34.9904 51.6779C39.6282 51.958 43.4233 52.6558 43.624 53.2649C43.8209 53.8627 42.2021 55.0511 40.0265 55.9057C36.7758 57.1826 36.1659 57.2116 36.6045 56.0689C37.4156 53.9551 28.8134 54.279 20.4241 56.6781C11.9541 59.1004 12.6089 59.0922 10.5335 56.7989ZM30.4455 46.6543C31.6774 45.293 31.9465 44.3004 31.2676 43.6215C29.6509 42.0048 26.9241 43.6767 26.9241 46.2849C26.9241 49.2101 28.0277 49.326 30.4455 46.6543ZM7.9946 29.5934C16.9341 20.7205 23.3658 9.5858 22.7245 4.09255C22.2716 0.21336 22.5686 0.0401161 25.797 2.30141C27.5112 3.50213 28.0089 4.64608 27.7084 6.69398C27.3561 9.09428 27.8431 9.73191 31.3631 11.4823C33.5967 12.5929 39.4327 16.9047 44.332 21.0642C49.2312 25.2237 54.7435 29.1233 56.5817 29.73C58.42 30.3366 59.9241 31.1897 59.9241 31.6255C59.9241 32.6993 50.7505 33.6745 49.1334 32.7727C48.4235 32.3768 45.4664 28.931 42.5619 25.1154C37.9543 19.0622 28.7739 10.6977 26.722 10.683C26.3358 10.6802 24.3719 13.4904 22.3575 16.9279C16.6047 26.7449 13.4796 30.1031 6.76921 33.6797L0.523438 37.0089L7.9946 29.5934Z" />
</svg>
