<svg width="89" height="143" viewBox="0 0 89 143"  xmlns="http://www.w3.org/2000/svg">
<path d="M29.8109 142.054C23.9229 141.013 19.0575 138.262 17.1759 134.91C15.8917 132.622 15.9724 131.908 17.9865 127.747C20.5741 122.402 25.8415 118.651 30.7597 118.651C37.523 118.651 43.095 128.305 38.522 132.1C36.1285 134.087 31.8494 132.14 30.1511 128.292C28.437 124.408 26.6997 124.178 24.4945 127.544C20.5995 133.488 25.8776 137.636 37.0816 137.434C48.64 137.226 60.6129 130.773 64.452 122.683C66.7006 117.944 66.4928 114.64 63.745 111.446C60.7763 107.994 55.3085 107.896 45.3154 111.115C34.3813 114.636 31.8419 111.928 39.1224 104.509L43.1633 100.392L39.0512 99.1598C35.5662 98.1157 35.1283 97.6996 36.1805 96.4317C36.8634 95.6088 39.3706 93.7937 41.752 92.3982C44.1333 91.0026 46.0817 89.67 46.0817 89.4367C46.0817 88.5379 40.3314 90.4636 34.8601 93.1948C27.5669 96.8354 24.1887 96.8612 20.9688 93.3008C15.6961 87.4708 15.6955 87.4389 20.867 87.3571C23.4599 87.3161 30.7938 85.8804 37.1644 84.1666C53.1774 79.8591 63.0815 80.1227 63.0815 84.8564C63.0815 86.1426 61.1359 87.1956 55.5638 88.9253C51.429 90.2087 47.0414 92.0971 45.8137 93.1216L43.5813 94.9843L46.3315 95.0175C49.9859 95.0617 53.6686 98.6384 52.058 100.579C51.4216 101.346 50.0414 102.246 48.9911 102.579C44.7915 103.912 47.4418 104.649 53.1365 103.732C77.6085 99.7912 83.8588 120.412 62.6213 135.023C54.7415 140.445 39.355 143.742 29.8109 142.054ZM13.6012 77.7211C11.3713 74.3179 13.6494 67.6771 20.061 58.8895L25.2009 51.8449L17.6421 56.0175C13.4847 58.3124 9.12417 60.0463 7.95218 59.8705C6.78022 59.6946 4.69717 58.0883 3.32327 56.3008L0.825195 53.0508H4.8677C8.37866 53.0508 10.4401 51.917 20.5501 44.4256C31.692 36.1696 32.1115 35.7274 30.3564 34.0923C29.348 33.1528 27.0796 32.3842 25.3153 32.3842C21.8195 32.3842 18.6509 30.0523 16.5032 25.8991L15.1295 23.2426L18.0859 24.3585C20.2242 25.1657 22.0855 25.1763 24.812 24.397C37.6494 20.7277 38.1892 20.629 39.8138 21.6537C42.7661 23.516 42.2746 24.8534 37.6396 27.5697C35.1327 29.0389 33.0817 30.5495 33.0817 30.9266C33.0817 31.3038 34.4315 32.1219 36.0816 32.7447C42.1392 35.0312 39.1954 38.2719 25.7882 44.0764C21.5018 45.9321 17.4519 48.1197 16.7883 48.9378C15.8091 50.1449 15.8643 50.3086 17.0815 49.8061C29.4948 44.6823 34.9338 42.9742 37.3199 43.45C39.7145 43.9276 40.5605 43.3306 44.0618 38.6932C47.4835 34.1612 48.4318 31.73 50.5835 21.9705C51.9683 15.6897 53.2846 9.74483 53.5086 8.75974C53.8317 7.33889 53.468 7.0941 51.7487 7.57552C50.1302 8.02875 50.6476 7.1531 53.7928 4.1166C62.5813 -4.36833 66.6989 1.03806 61.5219 14.265C60.507 16.8579 59.9168 19.2193 60.2102 19.5127C60.5035 19.8061 63.5553 20.34 66.9918 20.6992C78.4018 21.8918 78.7366 25.8913 67.6451 28.5033C57.5703 30.8759 54.6847 32.8323 52.7093 38.6298C51.8172 41.2479 51.2035 43.506 51.3452 43.6478C51.487 43.7895 54.0731 43.0529 57.0923 42.0108C63.7293 39.72 67.4314 39.5626 69.0417 41.5028C70.8296 43.6571 69.4843 46.4989 65.3005 49.4056C62.141 51.6006 58.2238 56.0508 59.451 56.0508C59.6634 56.0508 61.4528 55.3758 63.4273 54.5508C73.581 50.3083 84.547 56.1639 80.8419 63.8498C78.1676 69.3972 68.8933 73.6071 55.0816 75.543C50.6576 76.1631 50.7166 76.1055 58.5816 72.1266C73.7725 64.4416 78.3597 57.0508 67.9386 57.0508C64.8464 57.0508 63.0489 58.0235 57.6025 62.644C50.5506 68.6266 48.0815 69.0457 48.0815 64.2602C48.0815 62.2098 49.7691 59.4572 54.0781 54.4788C62.1033 45.2071 62.1008 44.4873 54.0555 48.5636C50.4551 50.3881 48.6977 52.0315 47.6398 54.5636C46.2401 57.9134 43.853 59.1094 42.603 57.0869C42.2753 56.5567 42.724 53.357 43.6 49.9763C44.476 46.5956 44.9911 43.628 44.7447 43.3816C44.4982 43.1352 42.673 45.6063 40.6886 48.873C37.5682 54.0097 37.0807 55.6528 37.0807 61.0305C37.0807 68.2857 35.0575 73.2847 31.4575 74.925C26.5663 77.1536 25.7839 73.6902 29.0678 64.3465C30.1609 61.2366 30.8726 58.5096 30.6494 58.2864C29.6066 57.2436 22.0187 66.6852 20.545 70.8591C16.8511 81.3215 16.3107 81.8564 13.6012 77.7211ZM31.9735 55.0508C32.9434 55.0508 38.0816 47.8956 38.0816 46.545C38.0816 45.0852 32.2248 49.2929 29.5179 52.6975C24.8205 58.6056 24.4258 59.6539 27.8053 57.2475C29.5021 56.0393 31.3779 55.0508 31.9735 55.0508ZM62.0815 22.3903C62.0815 20.367 59.2941 20.7851 58.1167 22.9851C56.59 25.8377 56.8164 26.1288 59.5816 24.8689C60.9566 24.2424 62.0815 23.127 62.0815 22.3903ZM80.6246 39.7354C81.1339 37.7061 80.687 36.9308 78.141 35.4269C75.4763 33.8528 75.2876 33.4936 76.8091 32.8921C77.784 32.5067 80.7333 32.1598 83.363 32.1211C90.9446 32.0097 90.8273 35.8345 83.1097 40.3804L80.0036 42.21L80.6246 39.7354ZM26.4805 16.2463C28.8428 11.678 28.5666 6.50394 25.859 4.60752C23.7828 3.15328 23.7663 3.05714 25.6092 3.14682C26.6941 3.19962 29.8319 3.76299 32.5819 4.39876C36.8717 5.39053 37.625 5.92622 37.8855 8.17042C38.1357 10.3245 37.2798 11.4394 33.0368 14.4877C25.6172 19.8182 24.475 20.1245 26.4805 16.2463Z" />
</svg>
