<svg width="100" height="155" viewBox="0 0 100 155"  xmlns="http://www.w3.org/2000/svg">
<path d="M79.0147 152.378C78.2599 151.458 73.6697 147.393 68.8143 143.345L59.9863 135.984L56.6963 138.017C52.9264 140.347 47.6064 140.702 46.8288 138.676C46.5385 137.92 47.4148 134.898 48.7758 131.96C50.2717 128.731 51.0238 125.715 50.6774 124.335C50.242 122.6 50.5292 122.052 51.8732 122.056C55.9423 122.069 61.2646 124.308 62.8011 126.653C64.3511 129.018 64.3215 129.317 62.2601 132.105L60.0794 135.055L64.8609 138.093C75.2836 144.714 77.1423 143.825 77.1423 132.222C77.1423 127.331 76.8483 121.185 76.4891 118.564L75.8358 113.798L70.1636 114.391C67.0439 114.717 59.8153 116.574 54.1003 118.517C41.8263 122.691 37.9002 122.971 35.6991 119.828C33.4013 116.548 33.7029 114.902 36.4745 115.598C38.5839 116.127 74.0395 110.487 75.0682 109.458C75.3059 109.221 74.5062 107.682 73.2913 106.038C71.7083 103.897 71.4737 103.051 72.4632 103.051C74.7175 103.051 80.5195 105.228 82.2596 106.727C83.4785 107.777 84.8629 107.899 87.8793 107.221C94.0998 105.824 101.252 109.717 99.7334 113.674C99.1895 115.091 98.0433 115.227 91.5674 114.64L84.0342 113.958L84.5865 117.254C88.547 140.891 88.8951 146.694 86.6167 151.1C84.8752 154.468 81.2319 155.08 79.0147 152.378ZM18.8254 149.762C16.7759 148.204 15.1465 143.786 15.127 139.736C15.1005 134.469 13.8146 133.377 10.6058 135.901C9.10255 137.083 7.23786 138.051 6.46204 138.051C3.91645 138.051 0.142334 133.313 0.142334 130.118C0.142334 127.265 0.281819 127.157 2.61273 128.219C4.51825 129.087 5.44601 129.044 6.67035 128.028C7.98532 126.936 8.2048 124.766 7.94995 115.379C7.61244 102.954 7.97649 102.285 12.8221 106.452L15.6133 108.853L13.8247 115.565C12.8409 119.257 12.1732 122.415 12.3408 122.583C12.5082 122.75 15.0272 119.413 17.9382 115.166C23 107.782 23.2946 106.989 24.6861 96.9981C26.2215 85.9731 30.0062 76.27 34.2501 72.478L36.407 70.5508L34.2652 74.7795C31.6533 79.9363 29.025 90.8584 29.1912 95.865C29.2585 97.8922 28.8658 102.033 28.3185 105.066C27.7713 108.1 27.0007 118.45 26.6059 128.066C26.2113 137.683 25.4851 146.328 24.9923 147.278C23.5794 150.002 20.6779 151.171 18.8254 149.762ZM20.517 128.109C20.884 123.706 21.4236 119.305 21.7156 118.327C22.0077 117.35 20.3922 120.089 18.1258 124.413L14.0049 132.276L16.2191 134.632C17.4368 135.929 18.7517 136.792 19.1412 136.551C19.5308 136.311 20.1499 132.512 20.517 128.109ZM50.302 108.769C51.215 108.099 56.1221 104.635 61.2068 101.071C70.0834 94.8484 74.1305 90.416 74.1385 86.9078C74.1405 86.0041 73.4795 85.0104 72.6694 84.6996C70.2543 83.7728 65.3846 88.7761 63.3231 94.3022C62.2637 97.1423 60.932 99.6209 60.3637 99.8104C59.7954 99.9998 57.7661 98.7814 55.8543 97.1028C53.9425 95.4242 51.9129 94.0508 51.3442 94.0508C50.7754 94.0508 48.3617 95.8676 45.9804 98.0881C40.7618 102.954 37.7905 103.073 37.3389 98.4336C37.0701 95.6743 37.9316 94.4888 44.8389 88.1106C50.7997 82.6063 52.0262 81.0574 50.0331 81.5509C48.0677 82.0375 46.7104 81.5698 44.533 79.6555L41.6423 77.114L44.7495 77.0823C46.4584 77.0649 52.7123 75.6587 58.647 73.9574C67.2448 71.4927 69.9155 71.0819 71.7899 71.936C73.0837 72.5255 74.1423 73.6751 74.1423 74.4907C74.1423 75.8689 72.3719 76.5532 63.7644 78.5015C60.991 79.1293 49.1423 89.4424 49.1423 91.2286C49.1423 91.709 50.5385 91.38 52.245 90.4976C54.8066 89.1729 55.856 89.1036 58.2625 90.1004C61.0441 91.2526 61.4305 91.0681 66.7241 86.0617C72.024 81.0493 72.4535 80.8448 76.3654 81.4703C78.6173 81.8304 81.7382 82.8803 83.3009 83.8035C88.8663 87.091 86.4838 90.4777 73.4353 97.8278C57.8887 106.585 44.9209 112.718 50.302 108.769ZM12.7852 94.0866C13.1465 92.2802 12.677 90.9396 11.2219 89.6228C8.08795 86.7867 8.65267 85.7378 12.8922 86.5205C17.4479 87.3615 21.3313 90.7388 20.9339 93.5142C20.7094 95.0814 19.6773 95.6796 16.4556 96.1096C12.3837 96.6531 12.283 96.5976 12.7852 94.0866ZM20.9467 67.0011C20.0141 66.4573 18.2878 64.6594 17.1104 63.0059L14.9697 59.9996L18.8059 60.5868C22.1889 61.1046 23.5693 60.5844 30.4863 56.1851C34.8005 53.4412 38.5963 50.9302 38.9214 50.6051C39.7648 49.7617 32.2057 42.1813 28.6759 40.3308L25.7094 38.7756L29.0836 35.9587C30.9394 34.4094 35.3662 31.9057 38.9208 30.3949L45.3837 27.6481L44.8782 21.3495C44.3237 14.4415 44.927 13.8779 50.5773 16.026C52.861 16.8943 53.1423 17.5524 53.1423 22.026C53.1423 26.7452 53.2973 27.0508 55.692 27.0508C59.5175 27.0508 64.0355 29.7768 64.7182 32.4968C65.9105 37.2475 64.5159 38.9112 53.8923 45.4137C51.6355 46.7951 51.1423 47.8101 51.1423 51.0739V55.0508L58.8924 54.9932C70.8005 54.9046 74.5748 53.9993 74.982 51.134C75.3044 48.8667 75.5234 48.9699 79.2576 53.1475C81.998 56.2132 83.1099 58.3102 82.918 60.0508C82.6587 62.4008 82.3122 62.5424 77.1423 62.4106C74.1173 62.3335 67.5923 61.9417 62.6424 61.5399C52.8973 60.7489 41.4269 62.4579 31.6424 66.1587C26.0787 68.263 23.4636 68.4689 20.9467 67.0011ZM39.8923 57.4708C44.477 56.742 45.0246 56.0279 42.5648 53.9865C41.2398 52.8868 40.2664 53.0673 36.4831 55.114C31.2754 57.9314 29.7793 59.6079 33.2432 58.7445C34.5627 58.4155 37.5548 57.8424 39.8923 57.4708ZM43.9423 46.8508C44.626 46.1671 45.1423 42.8934 45.1423 39.2424V32.834L42.4533 33.5089C39.0834 34.3547 34.1423 37.8136 34.1423 39.3267C34.1423 40.4964 41.0723 48.0508 42.1453 48.0508C42.4737 48.0508 43.2823 47.5108 43.9423 46.8508ZM55.1063 37.6183C56.6087 34.8108 55.8985 32.0508 53.6737 32.0508C52.5538 32.0508 52.1423 33.1255 52.1423 36.0508C52.1423 40.6023 53.2077 41.1658 55.1063 37.6183ZM50.8498 13.2072C53.5279 10.8923 52.8343 9.83718 49.4744 11.1146C45.2931 12.7044 37.9126 12.136 33.1424 9.85689L28.6423 7.7069L34.1423 7.00485C37.1673 6.61873 43.1842 4.87916 47.5132 3.13914C54.4206 0.362703 55.7973 0.11184 58.7601 1.08965C62.4102 2.29431 65.2843 5.51709 64.5094 7.53647C64.2445 8.22731 62.3657 9.47318 60.3348 10.3051C58.3039 11.137 54.8424 12.5596 52.6423 13.4665C48.6793 15.1001 48.6627 15.0977 50.8498 13.2072Z" />
</svg>
