<svg width="95" height="81" viewBox="0 0 95 81"  xmlns="http://www.w3.org/2000/svg">
<path d="M39.6077 80.0993C38.4886 79.6457 36.9532 78.5279 36.1959 77.6154C34.9854 76.1568 35.3223 75.4433 38.9807 71.7157C41.2697 69.3834 43.1425 67.1896 43.1425 66.8406C43.1425 66.4913 41.5639 65.685 39.6347 65.0483C35.0327 63.5295 33.4777 60.7143 35.5195 57.598C37.3564 54.7946 44.7549 51.0508 48.4581 51.0508C50.774 51.0508 51.1424 50.6391 51.1424 48.0508C51.1424 44.5142 50.3678 44.385 45.1425 47.0508C39.0658 50.1509 35.1423 49.2614 35.1423 44.7834C35.1423 43.352 35.6241 43.0689 37.2056 43.5709C38.3939 43.9481 42.0033 43.2602 45.7171 41.9493C50.5982 40.2261 52.8058 39.9011 54.8003 40.6118C58.9521 42.0914 59.921 44.4626 57.8241 48.0124C56.5369 50.1916 56.233 52.0165 56.7226 54.6262C57.3684 58.0686 57.1152 58.4977 51.0856 64.182L44.7727 70.1336L49.2076 69.4956C51.6468 69.1448 55.2175 68.4535 57.1424 67.9597C62.1554 66.6739 62.1425 66.6662 62.1425 70.94C62.1425 76.64 59.7768 78.913 52.6425 80.0679C45.5596 81.2145 42.378 81.2233 39.6077 80.0993ZM47.5857 60.8283C48.4418 59.606 49.1423 57.5322 49.1423 56.2199C49.1423 54.1489 48.799 53.9203 46.5384 54.4876C42.856 55.4118 39.1424 58.028 39.1424 59.6981C39.1424 61.045 42.2684 62.8511 44.8357 62.9874C45.492 63.0215 46.7295 62.0507 47.5857 60.8283ZM3.41014 57.3945C1.30664 56.5436 -0.0382341 49.6315 1.27054 46.3983L2.42304 43.5508L3.0738 46.0509C3.47605 47.5964 4.56212 48.6721 5.91859 48.8684C8.76934 49.2811 27.871 30.3286 37.4829 17.5508C43.8259 9.11858 44.2253 8.27994 43.8156 4.25679C43.5748 1.89507 43.6624 0.114577 44.0101 0.300152C44.3578 0.485726 46.7799 1.61456 49.3924 2.80867C55.4047 5.55672 55.8119 8.53992 50.7066 12.4339C48.817 13.8752 40.2142 23.2661 31.5893 33.3026C10.8899 57.3899 8.48408 59.4469 3.41014 57.3945ZM89.1425 41.303C76.6275 39.6161 76.2351 39.4047 64.8925 28.2438C58.98 22.426 54.1424 17.3103 54.1424 16.8755C54.1424 15.9764 57.4566 17.7579 68.0063 24.3277C72.0564 26.8498 77.2312 29.2233 79.5061 29.602C84.8335 30.4888 90.5869 33.4195 92.5764 36.2599C95.3981 40.2884 94.2394 41.99 89.1425 41.303ZM46.1425 35.9445C46.1425 35.4529 46.5925 35.0508 47.1425 35.0508C49.1304 35.0508 48.0782 33.1259 45.1425 31.3917C43.4925 30.4171 42.1424 29.2666 42.1424 28.8352C42.1424 28.4038 45.0123 28.0508 48.5199 28.0508C56.0387 28.0508 58.5917 29.7919 55.7221 32.9628C53.8768 35.0018 46.1425 37.4091 46.1425 35.9445Z" />
</svg>
