<svg width="30" height="81" viewBox="0 0 30 81"  xmlns="http://www.w3.org/2000/svg">
<path d="M16.2317 79.4423C7.59441 77.1185 0.482422 68.434 0.482422 60.2109C0.482422 53.6074 3.22901 49.3431 16.2695 35.701C18.7165 33.1411 20.4132 30.5524 20.0398 29.9483C18.8139 27.9646 15.4523 30.7596 13.4522 35.4257C11.5776 39.7987 9.36737 41.0403 7.79142 38.6053C7.34645 37.9178 6.74126 30.6053 6.44653 22.3553C6.03309 10.783 5.51305 6.61266 4.17083 4.10532C2.5115 1.00563 2.5132 0.855582 4.20866 0.860904C7.67521 0.871865 13.2094 2.89394 14.9073 4.77016C16.5294 6.56253 16.5337 7.32747 14.9839 17.858C14.0786 24.0093 13.529 29.2332 13.7624 29.4666C13.996 29.7001 15.4911 29.2108 17.0854 28.3794C20.8817 26.3996 22.7802 26.4646 25.5006 28.6674C28.6513 31.2187 27.5102 33.8207 21.0574 38.799C18.1144 41.0694 13.4065 45.359 10.5954 48.3313C6.0457 53.142 5.48434 54.2174 5.48434 58.1212C5.48434 61.3993 6.05239 63.0208 7.73421 64.5425C10.7767 67.2953 15.795 68.8553 21.6078 68.8553C25.9395 68.8553 26.589 69.157 27.9587 71.8057C32.0197 79.6586 27.638 82.511 16.2317 79.4423Z" />
</svg>
