<svg width="89" height="81" viewBox="0 0 89 81"  xmlns="http://www.w3.org/2000/svg">
<path d="M30.4697 78.7083C27.0249 75.7452 27.5851 74.2322 33.932 69.3578C38.575 65.7921 40.5898 62.8925 39.3123 61.615C39.0088 61.3117 38.1349 61.9572 37.3699 63.0494C34.8512 66.6453 32.3678 67.3372 30.1043 65.0737C28.9917 63.9611 28.0814 61.9172 28.0814 60.5317C28.0814 58.4109 28.4408 58.1029 30.3551 58.5833C32.0276 59.0031 33.6801 58.2261 36.6052 55.644L40.5815 52.134L35.0815 52.0874C30.763 52.0508 28.9371 51.5126 26.5815 49.5818L23.5815 47.1227L28.2065 47.0868C36.0777 47.0256 39.0814 46.0763 39.0814 43.6499C39.0814 42.1023 37.9014 40.9454 34.8735 39.5249C29.9417 37.2113 28.7893 35.184 32.6467 35.6074C34.1004 35.767 38.684 35.0085 42.8325 33.9219C52.0445 31.5091 55.4636 31.7225 55.8927 34.7369C56.1459 36.5168 55.4956 37.1196 52.3925 37.9813C50.2964 38.5634 47.794 39.0422 46.8314 39.0452C44.5859 39.0524 44.6278 39.5971 47.0605 42.03C48.4963 43.4658 49.8355 43.85 51.9383 43.4294C55.4685 42.7234 59.3162 44.5931 58.8897 46.8074C58.7174 47.703 56.1154 49.4173 53.0793 50.6361C50.0554 51.8499 47.4415 53.5351 47.2707 54.381C47.0114 55.6644 47.8437 55.8276 52.3009 55.3676C56.5262 54.9315 57.9295 55.163 59.0192 56.476C60.8236 58.6502 59.8494 59.533 52.5226 62.3631C47.2177 64.4122 46.5487 64.9877 46.2769 67.7355L45.9721 70.813L50.7768 69.9176C53.4193 69.4251 56.3688 68.7733 57.3312 68.4691C59.7699 67.6984 59.6845 72.549 57.1875 76.6441C55.3867 79.5973 54.9225 79.7669 46.9412 80.3881C34.4641 81.3593 33.4288 81.2536 30.4697 78.7083ZM39.0814 70.0423C39.0814 68.3065 38.8188 68.1979 37.1462 69.2424C35.0534 70.5494 35.3178 72.0508 37.6405 72.0508C38.4331 72.0508 39.0814 71.1469 39.0814 70.0423ZM39.2013 58.4065C40.4227 56.9348 40.3043 56.8417 38.0737 57.5189C34.5627 58.5849 33.2226 60.0507 35.7591 60.0507C36.9017 60.0507 38.4508 59.3109 39.2013 58.4065ZM49.0815 59.0508C49.0815 58.5008 48.6315 58.0507 48.0815 58.0507C47.5315 58.0507 47.0815 58.5008 47.0815 59.0508C47.0815 59.6008 47.5315 60.0507 48.0815 60.0507C48.6315 60.0507 49.0815 59.6008 49.0815 59.0508ZM1.05011 53.9921C-0.352515 51.3713 0.786408 45.3554 2.38277 46.9519C4.65252 49.2217 7.32925 47.8353 15.2249 40.3008C24.5175 31.4333 32.9442 21.425 38.9766 12.0917C42.2581 7.01472 43.0182 5.03938 42.5359 2.8433C41.8295 -0.372649 42.3213 -0.482396 46.9906 1.84879C53.4014 5.04934 53.2966 6.26296 45.959 13.7874C42.3315 17.5072 34.7522 25.9508 29.116 32.5508C12.7605 51.7032 8.3 56.0507 5.00588 56.0507C3.14828 56.0507 1.76723 55.3321 1.05011 53.9921ZM75.3075 38.9258C73.1408 38.3006 68.1991 34.1037 60.6953 26.516C54.4593 20.2101 49.5002 15.0508 49.6753 15.0508C50.5687 15.0508 61.2367 21.7358 65.7918 25.1501C69.262 27.7512 73.0882 29.5421 77.2492 30.5128C84.345 32.1681 88.4343 34.7611 88.9011 37.9011C89.1951 39.8803 88.7989 40.0436 83.901 39.9606C80.9752 39.911 77.1082 39.4453 75.3075 38.9258Z" />
</svg>
