<svg width="91" height="144" viewBox="0 0 91 144"  xmlns="http://www.w3.org/2000/svg">
<path d="M69.6102 138.348C65.8671 135.159 61.418 131.28 59.7233 129.726C56.7978 127.045 56.9821 127.086 63.369 130.55C67.0689 132.556 70.5564 133.913 71.1191 133.565C72.2858 132.844 72.4228 125.312 71.488 113.301C70.853 105.145 70.8147 105.051 68.1231 105.051C66.6256 105.051 60.7298 106.459 55.0213 108.181C43.9218 111.528 37.3277 112.594 35.527 111.332C34.9136 110.902 34.0957 109.538 33.7095 108.301C33.0441 106.168 33.2757 106.051 38.1435 106.051C40.9684 106.051 47.6363 104.975 52.9609 103.659C58.2856 102.344 63.9916 100.957 65.6409 100.578C68.4974 99.9205 68.5483 99.8209 66.714 98.4796C63.9861 96.4849 64.958 96.0921 70.1422 97.094C72.6172 97.5723 76.9045 97.9833 79.6696 98.0072C84.8759 98.0523 88.3631 99.7265 90.1308 103.03C92.419 107.305 88.6064 109.318 82.5685 107.023C81.0815 106.457 79.6777 106.182 79.4489 106.411C79.2202 106.64 79.7323 111.843 80.5875 117.973C83.0412 135.566 82.2975 143.012 78.004 143.839C77.1306 144.007 73.3533 141.536 69.6102 138.348ZM17.9652 136.301C16.8298 133.688 14.7338 129.992 13.3075 128.087L10.7141 124.623L14.2961 126.837C16.2662 128.055 18.8376 129.051 20.0101 129.051C21.7475 129.051 22.1432 128.449 22.1481 125.801C22.1514 124.013 22.4485 118.767 22.8084 114.143C23.2943 107.9 23.1652 105.918 22.3077 106.448C21.6724 106.841 18.0011 112.507 14.1493 119.039C6.04504 132.782 2.21939 135.467 0.861971 128.366C0.123262 124.502 1.60514 121.332 6.69401 115.892C9.14042 113.276 11.1443 110.555 11.147 109.844C11.1497 109.133 10.399 106.45 9.47871 103.882C7.91614 99.5222 7.91578 99.0451 9.47491 96.6673C11.7076 93.2598 11.5768 89.9 9.04445 85.6079C6.66339 81.5723 6.81129 81.4674 11.8888 83.5889C20.3332 87.1172 21.3052 91.0444 15.0578 96.3919C11.1819 99.7095 11.0762 99.9445 12.9976 100.973C14.3094 101.675 15.1321 103.282 15.333 105.534L15.6433 109.011L19.7383 105.103L23.8333 101.195L24.4881 91.3731C25.2875 79.3797 26.4699 74.8868 29.7698 71.3024L32.3029 68.5508L31.6242 71.0508C30.5827 74.8863 30.0971 83.3191 29.3393 110.72C28.6532 135.533 28.6089 135.926 26.219 138.47C22.5362 142.39 20.3638 141.82 17.9652 136.301ZM44.6465 129.058C44.0692 128.124 45.837 115.353 46.7476 113.88C47.0295 113.424 49.4137 113.051 52.046 113.051C55.4745 113.051 57.3188 113.589 58.5479 114.947C60.1838 116.754 60.1097 117.022 56.9529 120.693C51.2658 127.308 45.8428 130.994 44.6465 129.058ZM50.4099 98.5147C52.4626 97.1199 54.1321 95.6574 54.1199 95.2647C54.1085 94.8721 53.1862 93.4258 52.0722 92.0508C50.1283 89.6513 49.9983 89.627 48.8444 91.4447C45.8004 96.2397 43.5951 98.1619 41.8891 97.5072C38.1591 96.0759 40.0641 90.9368 46.9701 83.8008C51.3276 79.298 51.4387 79.0469 49.1045 78.9766C47.7501 78.9358 44.8421 78.0919 42.6421 77.1012L38.642 75.2999L42.6421 74.6063C44.8421 74.2248 50.6484 72.2782 55.5452 70.2805C65.0309 66.4106 67.5992 66.0793 69.9433 68.4235C72.3304 70.8105 70.6325 72.794 64.5647 74.7067C59.4502 76.3189 52.1669 81.409 53.3219 82.564C53.5718 82.814 56.8962 81.6879 60.7093 80.0617C69.1757 76.4508 75.5549 76.0852 77.1779 79.1178C78.7612 82.0761 76.661 84.8159 68.8397 89.9954C65.2724 92.3578 61.8501 95.3961 61.2345 96.7472C60.2965 98.806 59.6434 99.1002 57.2016 98.5639C55.3701 98.1616 53.1652 98.5045 51.2647 99.4873C46.6712 101.863 46.2268 101.357 50.4099 98.5147ZM63.774 87.4796C65.6264 85.5154 67.142 83.4904 67.142 82.9796C67.142 81.3101 61.1559 82.0037 56.8522 84.1718C49.6637 87.7933 49.3302 88.3883 53.7428 89.7202C59.5668 91.478 60.1194 91.3546 63.774 87.4796ZM26.892 64.4893C25.5705 63.1293 26.0881 61.0065 27.892 60.3882C28.8545 60.0583 32.2295 58.6609 35.392 57.283C40.8737 54.8946 41.1415 54.609 41.1313 51.1642L41.12 47.5508L36.7391 52.3008C31.866 57.5844 30.7154 57.992 29.1151 55.0018C27.7516 52.454 29.3132 47.1103 32.1791 44.5167C34.0873 42.7898 34.1414 42.8232 34.1414 45.7291C34.1414 47.3727 34.4173 48.9933 34.7544 49.3305C35.7912 50.3672 41.1414 45.787 41.1414 43.8627C41.1414 42.419 40.338 42.0508 37.1885 42.0508C33.2839 42.0508 28.1414 40.3541 28.1414 39.0658C28.1414 38.7006 30.9522 37.9853 34.3876 37.4763C42.0017 36.3481 43.4172 33.8996 37.8099 31.5568C35.893 30.7558 34.1194 29.5268 33.8687 28.8256C33.5769 28.01 32.5758 28.6315 31.0895 30.5508C29.8118 32.2008 26.8868 35.3972 24.5896 37.6539C21.146 41.0368 19.4907 41.8794 15.1603 42.4539C8.51654 43.3352 7.7229 42.6022 13.0243 40.4809C19.3358 37.9556 28.4139 27.0622 38.3034 10.1471C41.2927 5.03416 41.8404 3.35678 41.0205 1.82477C40.0536 0.0181146 40.2753 -0.0531495 44.8174 0.604556C52.6016 1.73169 54.162 4.27367 49.6414 8.46318C48.2664 9.73749 47.1423 11.1785 47.1435 11.6654C47.1447 12.1524 51.1596 13.8192 56.0655 15.3696C66.1184 18.5466 78.0895 24.0234 82.7732 27.5884C86.7109 30.5856 88.0154 34.9385 85.5222 36.7616C84.5525 37.4706 83.4101 38.0508 82.9834 38.0508C82.5567 38.0508 78.9302 35.0889 74.9245 31.4688C63.3626 21.0198 47.2527 12.6931 43.3689 15.1585C41.5607 16.3062 34.8837 24.3362 34.308 26.0554C33.7963 27.5837 37.9691 27.2449 45.2294 25.1686C51.9496 23.2468 55.1414 23.6764 55.1414 26.5026C55.1414 27.9071 50.2179 30.0508 46.9921 30.0508C44.6782 30.0508 44.6687 30.627 46.9419 33.0671C48.5017 34.7413 49.2526 34.8588 52.5584 33.946C57.0027 32.7189 61.1413 33.4734 61.1413 35.5108C61.1413 37.5269 59.4131 38.4084 53.2203 39.5508C46.5489 40.7815 45.0386 43.0351 51.3473 42.3458C57.2523 41.7006 61.3756 43.388 60.9607 46.28C60.7116 48.0155 59.099 49.0972 53.6413 51.1896C49.3869 52.8206 46.5089 54.5256 46.3037 55.5364C46.0101 56.9833 46.5951 57.1026 50.8037 56.4539C58.0489 55.3371 62.0587 55.666 64.1378 57.5476C67.3024 60.4115 65.558 62.0458 59.2843 62.0947C56.1807 62.1189 50.2663 62.5755 46.1413 63.1094C31.9004 64.9529 27.6393 65.2584 26.892 64.4893ZM40.8712 57.4466C40.539 57.1143 39.6765 57.0788 38.9546 57.3677C38.1569 57.6869 38.3938 57.9238 39.5588 57.9718C40.6129 58.0152 41.2035 57.7789 40.8712 57.4466ZM50.1904 49.2127C51.4764 48.1714 52.149 46.871 51.7421 46.2127C50.7251 44.5671 47.142 44.7667 47.142 46.469C47.142 47.249 46.8688 48.599 46.5351 49.469C45.7222 51.5873 47.4035 51.4694 50.1904 49.2127Z" />
</svg>
