<svg width="77" height="143" viewBox="0 0 77 143"  xmlns="http://www.w3.org/2000/svg">
<path d="M35.2875 142.141C34.4674 141.634 33.7194 138.649 33.3929 134.581L32.8533 127.859L29.7478 128.459C28.0399 128.79 22.2104 130.512 16.7933 132.286L6.94426 135.513L3.85909 132.06L0.773926 128.607L16.9583 126.093L33.1426 123.579V120.815C33.1426 118.332 32.7928 118.051 29.7015 118.051C27.8089 118.051 25.9825 118.501 25.6426 119.051C24.5175 120.871 19.5494 120.113 17.3645 117.787C14.7982 115.056 12.141 108.968 12.1462 105.833C12.1537 101.975 15.8001 97.2942 21.8575 93.3707C29.0934 88.6838 28.8941 88.8668 27.3554 88.3183C25.4597 87.6426 20.1424 83.0082 20.1424 82.0318C20.1424 81.5691 21.3799 81.5277 22.8924 81.9399C24.4049 82.3521 27.555 82.2941 29.8925 81.8114C33.7423 81.016 34.1426 80.6534 34.1426 77.9608C34.1426 76.241 33.5103 74.7456 32.6425 74.4126C30.3859 73.5467 30.8345 72.3451 33.681 71.6307C36.8534 70.8345 42.8467 73.5437 43.6731 76.1475C44.1343 77.6007 45.2232 78.051 48.2757 78.051C56.5116 78.051 58.9795 82.1978 51.8926 84.1286C42.2468 86.7565 42.6609 86.4923 42.3416 90.2218L42.0403 93.738L49.9652 92.2276C57.8008 90.7342 57.9449 90.7444 62.7661 93.1341C71.4974 97.4618 71.0828 102.768 61.2025 113.152C52.5264 122.269 49.2885 120.717 52.9064 109.174C56.2234 98.5912 56.5449 96.1427 54.7097 95.4385C53.8342 95.1025 50.5357 95.2155 47.3799 95.6894C42.1141 96.4802 41.6163 96.7773 41.3259 99.3011C41.0439 101.75 41.3334 102.051 43.9534 102.051C45.5726 102.051 47.4357 102.7 48.0937 103.493C49.0876 104.69 48.6008 105.12 45.2161 106.031C41.8514 106.937 41.1422 107.557 41.1422 109.59C41.1422 111.798 41.557 112.051 45.1737 112.051C47.9476 112.051 49.3967 112.55 49.8194 113.652C50.6081 115.707 48.5084 117.016 44.3924 117.036C41.5495 117.051 41.1422 117.382 41.1422 119.694V122.336L47.3922 121.655C64.0696 119.837 69.5345 119.853 73.1423 121.73C75.257 122.83 76.7668 124.427 76.9571 125.766C77.4031 128.902 73.7323 129.576 63.782 128.186C59.3052 127.56 52.4462 127.049 48.5401 127.05L41.438 127.051L40.3323 133.723C39.1555 140.825 37.5345 143.53 35.2875 142.141ZM29.3296 110.393C30.9106 108.644 30.8383 108.54 27.895 108.328C22.5112 107.94 22.8491 106.435 28.6092 105.146C33.7686 103.991 34.1426 103.711 34.1426 100.998C34.1426 98.128 34.0791 98.0954 29.3926 98.5617L24.6426 99.0342L29.3926 97.3669C33.5446 95.9096 34.1426 95.3441 34.1426 92.8753C34.1426 91.2699 33.603 90.0609 32.8925 90.0742C30.0797 90.1267 21.6076 95.7649 19.8868 98.7295L18.0418 101.908L21.1175 108.001C24.3918 114.488 25.3726 114.773 29.3296 110.393ZM33.1135 113.09C33.9226 112.578 34.2494 111.824 33.8397 111.415C33.4301 111.005 32.3341 111.43 31.4044 112.36C29.597 114.168 30.6789 114.63 33.1135 113.09ZM45.5347 67.4776C45.0748 65.6451 44.5799 65.2133 43.8156 65.9776C43.2254 66.5679 39.7201 67.0508 36.0259 67.0508C31.7543 67.0508 29.1659 67.4803 28.9158 68.2308C27.8572 71.4064 25.233 67.3375 22.2564 57.9055C20.4591 52.2104 18.7421 46.9326 18.4409 46.1769C18.0061 45.0864 18.6926 44.9481 21.7678 45.5065C26.6206 46.3876 33.0827 46.4438 33.9145 45.6119C34.261 45.2653 32.7162 43.1538 30.4816 40.9192L26.4188 36.8564L23.1178 38.5634C19.3282 40.5231 9.35939 44.0629 7.73597 44.0254C7.13457 44.0103 10.2029 42.2285 14.5545 40.0633C18.9062 37.8981 22.869 35.7242 23.3609 35.2323C23.8866 34.7066 23.1197 32.9888 21.5004 31.0642L18.7456 27.7904L21.1911 25.8103C22.536 24.7212 26.2556 22.508 29.4567 20.8921C36.0168 17.5805 36.4873 15.4196 30.5663 15.7959L26.7081 16.0412L31.4819 11.796C34.2076 9.37203 36.7801 5.99433 37.4781 3.923L38.7005 0.295288L43.9792 2.26438C48.7099 4.02912 49.2257 4.50938 48.95 6.89207C48.6892 9.14535 47.7657 9.85255 42.8924 11.5305C39.73 12.6193 37.1424 13.8265 37.1424 14.2131C37.1424 15.298 41.317 16.4155 44.5444 16.1945C48.4108 15.9296 53.828 17.7888 54.5314 19.6217C55.3008 21.6269 51.9368 24.7813 46.5804 27.0774C42.1804 28.9635 42.1425 29.0219 42.1425 33.95C42.1425 36.6838 41.717 40.0398 41.1969 41.4077C40.2527 43.8913 40.259 43.8943 45.4468 43.4249C49.631 43.0463 51.4213 43.406 54.6426 45.2778C59.6927 48.2107 60.4811 52.0019 56.8553 55.9151C55.5122 57.3647 53.2524 61.1382 51.8333 64.3007C49.0515 70.5002 46.6033 71.7351 45.5347 67.4776ZM46.6669 56.633C47.0492 52.5532 47.0611 48.7282 46.6934 48.133C45.8585 46.7821 40.3294 46.8899 33.1426 48.3972C27.6716 49.5446 27.644 49.5692 27.8798 53.0507C28.0102 54.9757 28.3733 58.0413 28.6867 59.8631L29.2567 63.1755L31.3774 60.4796C33.3385 57.9864 33.3718 57.6914 31.8203 56.5569C30.8976 55.8823 30.1425 55.1038 30.1425 54.8271C30.1425 54.5505 32.8663 53.746 36.195 53.0396C40.4604 52.1345 42.5602 52.0684 43.3077 52.8159C44.882 54.3902 43.5849 55.7452 39.829 56.4498C36.408 57.0916 32.1426 60.2853 32.1426 62.205C32.1426 62.9238 33.9371 63.057 37.5466 62.6061C40.9895 62.1759 43.1882 62.3154 43.6055 62.9908C45.1266 65.4519 46.013 63.6108 46.6669 56.633ZM35.3558 36.0509C35.834 32.7922 35.1767 32.4449 31.8268 34.1863C28.6388 35.8435 28.6084 35.9352 30.7156 37.5294C33.6415 39.743 34.8714 39.3511 35.3558 36.0509ZM31.4468 30.0729C35.0127 27.8114 36.1424 26.488 36.1424 24.5729C36.1424 23.1858 35.9467 22.0508 35.7076 22.0508C34.4638 22.0508 29.7602 24.2671 26.0998 26.5778C22.1049 29.0997 22.0208 29.259 23.706 31.1211C25.9397 33.5894 25.8916 33.5959 31.4468 30.0729ZM59.6424 39.0024C56.3424 36.1592 52.2925 32.9405 50.6425 31.8498L47.6425 29.8665L51.8822 30.4689C58.2998 31.3806 66.9894 34.9404 70.5037 38.0974C74.0041 41.242 73.5247 42.6339 68.6112 43.5926C66.0786 44.0868 64.761 43.4123 59.6424 39.0024Z" />
</svg>
