<svg width="80" height="137" viewBox="0 0 80 137"  xmlns="http://www.w3.org/2000/svg">
<path d="M57.6423 136.068C55.6177 135.221 41.7918 121.504 43.6469 122.183C44.1995 122.385 46.7929 123.402 49.4101 124.442C56.2533 127.161 59.6019 125.974 63.22 119.547C66.6897 113.383 68.6618 106.257 67.8226 102.913C66.9901 99.5964 63.3381 98.0502 56.3453 98.0541C48.8405 98.0579 34.0568 100.686 27.1517 103.242C18.6319 106.397 16.6291 106.538 14.2413 104.15C11.1634 101.072 11.6174 100.495 16.7924 100.906C21.0031 101.241 21.3703 101.1 20.6768 99.4135C19.3211 96.1165 18.3527 90.7418 17.6385 82.5508C17.2549 78.1509 16.3113 73.0334 15.5416 71.1788C14.7719 69.3241 14.1422 67.5865 14.1422 67.3174C14.1422 66.3895 21.648 68.2025 23.952 69.6871C26.1592 71.1092 26.2425 71.6059 25.8249 80.8631C25.5846 86.1914 25.6076 92.2442 25.8759 94.3139L26.3639 98.0769L30.0031 95.9129C32.0046 94.7228 34.5296 92.9169 35.6144 91.8999C37.5615 90.0744 37.5475 90.0508 34.5193 90.0508C32.7221 90.0508 30.7026 89.2228 29.6421 88.0509C27.8694 86.0921 27.8954 86.0509 30.9053 86.0509C35.489 86.0509 37.1422 85.1015 37.1422 82.4689C37.1422 80.4221 36.7691 80.1737 34.3921 80.638C32.7613 80.9566 30.8365 80.5782 29.6627 79.7086C27.803 78.3309 27.9692 78.1993 32.4127 77.533C35.902 77.0098 37.1422 76.3816 37.1422 75.1373C37.1422 72.4639 35.0981 71.1097 31.9987 71.7295C30.3224 72.0648 28.5005 71.7636 27.5784 70.998C26.2362 69.8841 27.3546 69.2788 35.3259 66.8053C47.0324 63.1728 53.9564 62.3623 56.5546 64.3204C57.7314 65.2072 58.2244 66.3943 57.836 67.4062C57.3332 68.7166 55.776 69.0509 50.1735 69.0509C46.3063 69.0509 43.1422 69.2758 43.1422 69.5509C43.1422 71.2018 47.5939 74.0509 50.1735 74.0509C52.0306 74.0509 53.4429 74.6711 53.8193 75.6518C54.6006 77.688 52.5166 79.016 48.5088 79.0356C46.2511 79.0469 45.2329 79.5957 44.8656 81.0005C44.4217 82.6982 44.9543 82.9888 48.9899 83.2505C55.8065 83.6924 55.7823 86.2118 48.9381 88.6673C44.7937 90.1541 43.5685 91.087 43.3032 92.9572C42.9751 95.2704 43.1194 95.3254 47.8031 94.6706C64.7308 92.3042 69.9255 92.9926 75.8058 98.3815C78.8644 101.185 79.3088 102.192 79.3088 106.326C79.3088 115.165 67.7138 134.91 61.6421 136.411C60.5421 136.683 58.7423 136.529 57.6423 136.068ZM34.3922 97.4899C35.9047 97.1294 37.1423 96.2078 37.1423 95.4424C37.1423 93.631 36.8025 93.6733 32.1024 96.0712C28.0211 98.1533 26.8027 99.5836 29.8922 98.6657C30.8547 98.38 32.8797 97.8507 34.3922 97.4899ZM2.4533 126.403C0.052999 122.739 -0.522288 112.209 1.53264 109.551C3.07159 107.56 3.07873 107.56 3.1104 109.651C3.1293 110.806 4.53031 113.667 6.22683 116.009C8.94284 119.758 9.66073 120.197 12.2352 119.682L15.159 119.098L13.0163 123.324C11.8378 125.649 10.3715 127.882 9.75791 128.286C7.40535 129.835 4.15269 128.996 2.4533 126.403ZM20.7271 124.732C19.8418 124.082 18.017 120.851 16.672 117.551C14.6892 112.686 14.4971 111.491 15.6565 111.233C17.8303 110.75 22.2305 113.237 24.4081 116.181C27.8065 120.775 24.8124 127.73 20.7271 124.732ZM30.3057 114.051L25.0244 108.051H29.5485C33.2102 108.051 34.7659 108.66 37.7096 111.244C41.1565 114.271 41.4022 114.338 42.4149 112.528C44.7545 108.348 48.0277 106.051 51.6464 106.051C58.5521 106.051 64.0625 111.032 61.1024 114.599C59.4362 116.606 56.8748 116.416 52.7399 113.976C47.971 111.162 45.1444 111.787 42.2292 116.301C38.7886 121.628 36.614 121.217 30.3057 114.051ZM18.0666 60.4531C13.8033 55.8848 10.12 53.6731 8.86516 54.9279C7.17583 56.6172 5.33732 56.2839 4.15448 54.0737C2.75122 51.4517 4.83906 46.4739 10.1287 39.8303C14.0482 34.9077 14.5495 33.8619 14.2169 31.3009C14.0389 29.9308 15.1228 29.7224 17.5605 30.6579C19.3162 31.3316 19.7032 34.5862 18.1422 35.5509C17.5922 35.8906 17.1564 36.7048 17.1738 37.3599C17.1927 38.0149 18.3163 37.2884 19.6739 35.7451C23.1985 31.7387 22.98 24.613 19.441 28.152C17.7778 29.8152 13.0854 28.3489 9.14222 24.9343L5.64216 21.9032L8.48373 22.3559C10.0465 22.6049 13.534 22.1023 16.2337 21.2388L21.1422 19.6691V14.8103C21.1422 12.138 20.434 8.5821 19.5684 6.9083C17.6297 3.15923 18.09 2.63089 22.5634 3.47009C27.8169 4.45568 28.9414 6.08548 28.3823 11.9041C27.916 16.7569 27.9799 16.904 30.6954 17.2229C34.5518 17.6758 34.8472 19.635 31.3331 21.4521C29.7179 22.2874 28.1563 23.8888 27.8629 25.0108C27.2455 27.3717 27.5054 27.462 30.4235 25.9003C32.2969 24.8977 32.2242 25.1647 29.8578 27.977C27.2018 31.1335 27.1421 31.4961 27.1421 44.4927C27.1421 56.4221 26.9301 58.0506 25.0696 60.416C22.4719 63.7185 21.1206 63.725 18.0666 60.4531ZM20.3885 51.5456C20.8471 49.3485 21.0917 45.3372 20.9322 42.6316L20.6424 37.7124L15.8924 44.8697C13.2799 48.8061 11.1424 52.4448 11.1424 52.9555C11.1424 54.0552 16.0142 55.997 18.0988 55.7281C18.9305 55.6208 19.9124 53.8269 20.3885 51.5456ZM36.8922 58.4792C35.3829 56.9464 36.2294 54.9116 40.1422 50.6667C44.6558 45.77 44.9276 45.0509 42.2646 45.0509C41.232 45.0509 39.8362 44.3871 39.1629 43.5758C38.1596 42.3668 38.5014 41.5379 41.0568 38.9825L44.1749 35.8644L41.4228 33.7076L38.6706 31.5508L42.6565 31.0509C46.3099 30.5925 46.6686 30.2768 46.9583 27.2652C47.2542 24.1867 47.1125 24.0202 44.7083 24.6236C41.6792 25.3839 37.1423 24.4294 37.1423 23.0318C37.1423 22.4923 37.7047 22.0484 38.3923 22.0453C39.0798 22.0422 41.3876 21.5551 43.5207 20.9628L47.3992 19.8859L46.8903 12.7745C46.4742 6.95797 45.9697 5.32963 44.1202 3.83195C41.1547 1.4307 42.0776 0.712087 48.2399 0.623684C52.4732 0.562834 53.6472 0.958926 55.3066 3.00694C56.5125 4.49528 57.1179 6.39761 56.8432 7.83481C56.3444 10.444 57.49 11.1869 64.8922 13.0553C67.2568 13.6521 69.1422 14.7253 69.1422 15.4744C69.1422 17.3686 64.5534 20.1543 59.191 21.5154C55.3508 22.4902 54.593 23.089 54.3258 25.3604C54.0295 27.8797 54.26 28.0508 57.9534 28.0508C62.3225 28.0508 65.0338 30.0972 62.9045 31.7878C62.2102 32.3391 59.9547 33.0941 57.8922 33.4658C54.8468 34.0145 54.1422 34.5719 54.1422 36.4325C54.1422 38.4746 54.6039 38.7141 58.3922 38.6372C62.0012 38.5638 62.6422 38.8518 62.6422 40.5464C62.6422 42.0868 61.6729 42.7464 58.3922 43.4385C54.4114 44.2782 54.1422 44.5482 54.1422 47.7017V51.0683L59.6591 50.4199C64.1724 49.8895 65.5369 50.0979 67.1591 51.5662C69.4108 53.6039 69.7094 55.5823 67.931 56.6814C67.2649 57.0931 62.8774 57.4889 58.181 57.561C53.4847 57.6332 46.9423 58.0405 43.6423 58.4664C40.3423 58.8924 37.3047 58.8995 36.8922 58.4792ZM46.9618 50.3009C47.3824 47.3396 46.0491 47.455 43.0665 50.6384L40.6422 53.2257L43.6423 52.8885C45.8637 52.6387 46.7252 51.9669 46.9618 50.3009ZM47.1421 38.4087C47.1421 37.2838 46.7114 37.211 45.1141 38.0659C43.9987 38.6628 43.3381 39.559 43.6461 40.0574C44.4539 41.3644 47.1421 40.0967 47.1421 38.4087ZM60.0842 15.6206C61.0321 14.4785 60.8686 13.9749 59.2724 13.1206C56.1852 11.4684 55.1421 11.8296 55.1421 14.5509C55.1421 17.3972 58.0816 18.0335 60.0842 15.6206Z" />
</svg>
