<svg width="76" height="119" viewBox="0 0 76 119"  xmlns="http://www.w3.org/2000/svg">
<path d="M17.5517 116.779C15.6072 115.106 14.7431 113.229 14.3623 109.85C13.8399 105.216 13.8396 105.216 10.4533 105.765C7.50419 106.244 6.61548 105.836 3.57409 102.612C-1.04551 97.7135 -0.888789 96.7828 4.42232 97.5792C7.48827 98.039 10.8065 97.6217 15.7194 96.1586L22.6754 94.087L22.2639 84.3189C22.0375 78.9465 21.6663 74.3507 21.439 74.1062C21.2114 73.8617 18.5532 74.8742 15.5314 76.3562C5.53282 81.26 7.48171 79.165 21.3688 70.0819C28.9107 65.149 35.0814 60.7861 35.0814 60.3866C35.0814 59.9871 33.8439 58.3447 32.3314 56.7368C29.6182 53.8524 29.6132 53.823 31.9561 54.5391C34.9885 55.4658 36.0459 53.8608 36.0659 48.3008C36.0773 45.3688 35.6578 44.0508 34.716 44.0508C32.2676 44.0508 28.2516 48.0041 27.0734 51.5741C26.4396 53.4947 25.1052 55.5028 24.108 56.0365C19.9937 58.2384 13.958 48.9853 16.0779 43.7259C16.56 42.5296 16.9831 42.1133 17.0179 42.8008C17.0519 43.4883 17.9633 44.9328 19.0412 46.0107C20.9877 47.9572 21.0523 47.9453 28.5025 44.2607C35.5934 40.7538 36.0061 40.3666 36.0426 37.1842C36.0729 34.443 35.756 33.9115 34.3312 34.3231C19.6054 38.5772 19.7531 38.6607 19.0811 25.6947C18.5442 15.3335 18.7128 15.0146 23.5583 17.2222C27.1177 18.844 27.553 21.7797 25.1417 27.8972C24.0084 30.7724 23.0812 33.3332 23.0812 33.5878C23.0812 34.7971 26.777 33.797 31.196 31.3919L36.0812 28.733V17.2206C36.0812 8.30613 35.737 5.32799 34.5561 4.02294C33.1873 2.51041 33.1957 2.20076 34.6385 1.0034C35.9819 -0.111527 36.9309 -0.0923594 40.4136 1.12007C45.1622 2.77314 45.1374 2.64099 43.0852 15.3401C42.3929 19.6242 42.0697 23.3726 42.3671 23.67C43.1435 24.4463 47.8056 21.2114 48.4934 19.4191C48.8127 18.5864 47.8989 16.3673 46.4587 14.4791C45.0206 12.5935 44.0097 11.0543 44.2126 11.0586C44.4155 11.0627 47.4664 12.5253 50.9926 14.3085C61.8476 19.798 61.6127 21.8094 49.4417 27.585C42.1912 31.0257 42.0813 31.1348 42.0813 34.8926V38.7075L48.1554 37.7293C55.2835 36.5813 60.3326 38.3136 62.2733 42.5728C63.3221 44.8748 63.0654 45.4857 59.5053 49.1607C54.917 53.8971 42.9652 61.9641 31.4467 68.0992L23.3121 72.4319L25.2012 76.0564L27.0903 79.6808L33.8694 76.3159C42.2491 72.1564 50.7808 70.9688 54.5483 73.4374C58.4588 75.9996 57.6875 78.4734 51.3285 83.7644L45.5759 88.5508H58.4118H71.2478L73.711 91.4108C75.066 92.9838 76.0064 94.7838 75.8008 95.4108C75.1801 97.3038 70.3259 97.2965 64.7988 95.3942C61.1806 94.149 56.6691 93.6057 50.0812 93.6219C41.5404 93.643 39.6572 94.0113 31.431 97.2706C26.3985 99.2647 20.7961 101.664 18.9813 102.602L15.6815 104.309L17.9923 106.18C20.9166 108.548 22.795 108.531 28.4984 106.086C31.0189 105.006 33.0814 104.556 33.0814 105.086C33.0814 105.617 32.656 106.051 32.1362 106.051C31.6165 106.051 29.3411 108.635 27.0796 111.793C21.8273 119.128 20.8666 119.63 17.5517 116.779ZM38.2651 90.1979C40.0697 88.4896 45.9588 77.6616 45.4931 76.9081C44.5 75.3014 40.7497 76.0468 33.8684 79.2185C29.5636 81.2028 27.177 82.8574 27.4801 83.6475C27.7462 84.3412 28.2713 86.5459 28.6467 88.5468C29.3279 92.1781 29.3367 92.1835 33.4553 91.5149C35.7247 91.1464 37.8891 90.5538 38.2651 90.1979ZM47.5319 49.8946C53.3247 43.4515 53.1775 41.6546 46.8225 41.246L42.0815 40.9412V46.4142C42.0815 49.4244 41.8081 52.599 41.4743 53.469C40.29 56.5554 42.9595 54.9802 47.5319 49.8946ZM60.5814 116.617C58.9314 115.902 55.2058 112.332 52.3022 108.684C46.238 101.065 46.746 100.604 57.3629 104.096C66.8912 107.229 70.8217 113.219 65.5815 116.62C63.9418 117.684 63.0409 117.684 60.5814 116.617Z" />
</svg>
