<svg width="101" height="154" viewBox="0 0 101 154"  xmlns="http://www.w3.org/2000/svg">
<path d="M75.9728 149.269C73.0409 146.64 68.3132 142.576 65.4667 140.239L60.2913 135.989L56.9667 138.016C55.1382 139.131 52.1797 140.045 50.3922 140.047C46.4161 140.052 46.1216 137.972 49.2349 131.869C50.5002 129.389 51.1558 126.596 50.893 124.806C50.4643 121.885 50.5091 121.854 54.2677 122.455C62.8525 123.828 65.4062 126.706 62.6937 131.951C61.8403 133.601 61.1421 135.166 61.1421 135.428C61.1421 136.448 72.0019 142.051 73.9787 142.051C77.5376 142.051 78.1815 139.096 77.4773 125.999L76.8212 113.799L71.0244 114.405C67.8362 114.739 60.3282 116.595 54.3399 118.531C39.3075 123.391 36.5094 123.21 34.6847 117.262C34.0633 115.236 34.2541 115.041 36.3452 115.566C38.5348 116.115 74.0485 110.469 75.1234 109.4C75.388 109.137 74.8464 107.601 73.9199 105.986C72.5244 103.555 72.4811 103.051 73.6685 103.051C75.8927 103.051 83.1422 106.166 83.1422 107.122C83.1422 107.591 86.0264 107.706 89.5515 107.377C95.5482 106.817 96.1325 106.95 98.6255 109.443C102.746 113.563 101.544 114.577 92.7894 114.368C86.991 114.229 85.1422 114.507 85.1422 115.518C85.1422 116.252 86.0514 122.969 87.1626 130.446C89.195 144.122 89.0854 147.658 86.5003 151.801C84.3987 155.169 81.8723 154.561 75.9728 149.269ZM18.2148 148.416C17.0749 146.967 16.1396 144.604 16.1366 143.166C16.1334 141.728 15.6573 138.845 15.0784 136.761L14.026 132.971L11.0073 135.511C9.34704 136.908 7.46063 138.036 6.81532 138.019C3.88804 137.94 0.14209 132.942 0.14209 129.116C0.14209 126.833 1.16019 126.469 2.84155 128.15C3.44617 128.755 4.88601 128.949 6.04137 128.583C7.92668 127.984 8.16266 127.077 8.34268 119.733C8.45304 115.233 8.44471 109.863 8.32376 107.801C8.20357 105.738 8.45081 104.052 8.87325 104.054C10.1529 104.061 16.1423 107.967 16.1285 108.786C16.1209 109.207 15.213 112.43 14.11 115.949C13.007 119.468 12.2741 122.517 12.4811 122.724C12.6883 122.931 15.1727 119.751 18.0023 115.658C22.872 108.614 23.2543 107.59 25.1471 96.5181C27.2001 84.5093 30.932 75.3335 35.3807 71.3566C37.1746 69.7529 37.1175 70.1123 34.8723 74.5675C31.955 80.3561 30.5622 85.2977 29.6627 93.0508C29.204 97.0047 29.3178 98.1291 30.0678 97.0508C31.5315 94.9459 31.3903 96.2111 29.7137 100.224C28.5178 103.086 26.1533 132.278 26.1436 144.301C26.1415 146.943 23.1414 151.051 21.2139 151.051C20.7038 151.051 19.3547 149.865 18.2148 148.416ZM20.5532 129.801C20.9214 126.363 21.4514 121.976 21.7311 120.051C22.1383 117.249 21.5319 118.024 18.6909 123.935C14.7953 132.042 14.5717 133.08 16.3421 134.851C18.8042 137.313 19.8879 136.013 20.5532 129.801ZM48.6423 110.33C49.1923 109.821 54.2167 106.182 59.8078 102.243C65.399 98.3034 70.9115 93.8881 72.0578 92.4307C74.3433 89.5253 74.8015 85.5763 72.9836 84.4528C71.3451 83.4401 64.2297 91.3632 63.4997 95.0132C62.6868 99.0778 60.8509 100.5 58.229 99.0972C57.1065 98.4965 55.7119 97.1152 55.13 96.0278C53.588 93.1465 51.8225 93.5673 46.6422 98.0508C41.633 102.386 40.0536 102.854 38.1531 100.564C35.5248 97.397 38.6502 93.0008 50.1422 83.7001C53.3696 81.0881 53.4443 80.9109 51.1016 81.4256C49.4496 81.7885 47.3512 81.2281 45.1017 79.8232L41.6421 77.6628L46.6422 76.8989C49.3922 76.4788 55.5864 74.9911 60.4071 73.5929C70.5873 70.6403 71.1337 70.5929 73.6632 72.4425C76.5099 74.5241 74.1177 76.7289 68.1171 77.5542C62.4342 78.3358 57.0523 81.8513 52.2437 87.9227C48.6962 92.4018 48.8151 92.9664 52.7618 90.3804C54.963 88.9381 55.7959 88.8853 58.8611 89.9937C62.377 91.2651 62.4535 91.2336 66.8534 86.7071C69.2967 84.1934 72.1391 81.8691 73.1697 81.542C75.6811 80.7449 82.4059 82.6339 85.2472 84.9347C87.4355 86.7066 87.4653 86.9084 85.8968 89.3023C84.9923 90.6827 80.7401 93.834 76.4473 96.3052C67.5457 101.43 47.1341 111.725 48.6423 110.33ZM12.9289 94.3858C13.2305 92.8071 12.6146 90.8283 11.2435 88.9739C9.08436 86.0535 9.08408 86.0508 11.1443 86.0508C15.2147 86.0508 20.0479 88.8266 20.7334 91.5581C21.5407 94.7747 20.6994 95.6307 16.0478 96.3324C12.6523 96.8445 12.4795 96.7368 12.9289 94.3858ZM20.6241 66.3271C19.5141 65.3501 17.8291 63.6179 16.8794 62.4778C15.1725 60.4288 15.2073 60.4052 19.8974 60.4354C23.71 60.46 25.7226 59.7511 30.1421 56.8273C40.6739 49.8598 40.0977 50.8754 36.1249 46.2857C34.2095 44.0729 31.3839 41.7015 29.8459 41.0161C25.387 39.0288 26.9536 36.9025 36.4513 32.0508L45.2604 27.5508L44.9513 21.2987C44.6474 15.1555 44.6875 15.0466 47.2372 15.0487C49.5271 15.0505 53.1422 12.4445 53.1422 10.7918C53.1422 10.461 51.6827 10.609 49.8988 11.1206C44.5926 12.6423 38.6157 12.1893 33.475 9.87554L28.6422 7.70033L34.1422 6.99089C37.1672 6.6007 43.3057 4.90888 47.7834 3.2313C52.6985 1.38987 56.8595 0.408175 58.2835 0.754002C61.1818 1.45789 65.1422 4.92029 65.1422 6.75032C65.1422 7.49333 61.7497 9.64729 57.6032 11.5369C50.1217 14.9463 50.079 14.9875 52.0192 16.9278C53.5543 18.4629 53.8567 19.7604 53.4266 22.9668C52.9036 26.8662 52.9999 27.0508 55.56 27.0508C59.0495 27.0508 63.7978 29.5389 65.1579 32.0802C66.7634 35.0802 64.4656 38.9873 58.9065 42.7096C56.3119 44.447 53.7816 46.022 53.2836 46.2096C52.7856 46.3972 52.0495 48.5282 51.6478 50.9452L50.9175 55.3396L62.6422 54.8222C74.9164 54.2806 76.3465 53.7046 75.3841 49.6901C75.0186 48.1659 75.9884 48.8171 78.7567 51.9549C83.8992 57.7839 84.3843 58.7122 83.5925 61.2069C82.9534 63.2205 82.5523 63.2818 75.2817 62.4744C60.3645 60.818 47.531 61.5367 37.6421 64.5823C25.7743 68.2375 23.1053 68.5111 20.6241 66.3271ZM39.5143 57.5177C44.3744 56.7888 45.0639 56.0606 42.7287 54.1225C41.6219 53.2039 40.3256 53.4486 36.756 55.25C34.2486 56.5154 32.1847 57.9364 32.1696 58.4077C32.1545 58.8791 32.7596 59.0278 33.5142 58.7382C34.2689 58.4486 36.969 57.8993 39.5143 57.5177ZM44.9359 40.2208C45.1381 35.2873 44.8687 33.0508 44.0722 33.0508C42.1262 33.0508 35.2703 37.2742 34.6679 38.8442C34.0064 40.5681 41.7056 48.3611 43.4883 47.7721C44.1787 47.544 44.7601 44.5104 44.9359 40.2208ZM55.5902 37.1513C56.922 34.576 56.922 34.113 55.5916 33.0088C53.7088 31.4463 53.4792 31.7006 52.6199 36.3008C51.7649 40.8781 53.4182 41.3516 55.5902 37.1513ZM77.7797 31.1132C78.2006 29.0087 77.7495 27.307 76.1866 25.1131C74.3523 22.5371 74.2613 22.0508 75.6138 22.0508C76.4982 22.0508 78.9966 22.9562 81.1659 24.0629C87.9407 27.5191 87.5345 34.0508 80.5447 34.0508C77.3688 34.0508 77.2232 33.896 77.7797 31.1132Z" />
</svg>
