<svg width="94" height="149" viewBox="0 0 94 149"  xmlns="http://www.w3.org/2000/svg">
<path d="M42.3424 146.851C41.571 146.079 41.1424 142.122 41.1424 135.771V125.892L37.8924 126.565C35.0146 127.161 29.6045 128.938 12.9702 134.75C8.64125 136.263 8.11325 136.262 5.78347 134.735C3.64649 133.335 -0.218899 124.48 0.747526 123.199C0.893416 123.005 2.04222 123.568 3.30016 124.449C6.85397 126.938 15.8657 126.342 33.8924 122.425C40.5542 120.978 41.1424 120.646 41.1424 118.334C41.1424 116.197 40.8027 115.916 38.8924 116.471C37.6549 116.83 34.2906 117.394 31.4162 117.725C27.524 118.172 26.039 118.801 25.5988 120.188C24.7348 122.91 21.5719 122.463 19.3222 119.301C17.0511 116.108 14.1424 106.924 14.1424 102.946C14.1424 99.4466 17.7033 95.2202 23.2721 92.11L27.6424 89.6693L24.3924 93.3948C22.6049 95.4439 21.1424 97.5204 21.1424 98.0093C21.1424 98.4982 24.8549 97.3335 29.3924 95.4212C33.9299 93.5089 38.6549 91.5279 39.8924 91.019C42.0244 90.1422 42.8373 88.079 41.5558 86.7975C41.233 86.4748 39.0607 86.9181 36.7284 87.7825C34.3959 88.647 31.3974 89.0762 30.0649 88.7364C27.4684 88.0741 19.7382 82.1217 20.4936 81.3663C20.7434 81.1165 22.7922 81.4647 25.0466 82.1402C28.3099 83.118 30.3175 83.1089 34.894 82.0958C38.0556 81.3959 40.9376 80.649 41.2984 80.436C42.7969 79.5516 40.6694 75.8532 37.7653 74.2942L34.6424 72.6178L39.9244 71.6884C46.5332 70.5254 50.1424 71.8688 50.1424 75.4917C50.1424 77.9434 50.2263 77.9677 56.6191 77.3707C62.2494 76.845 63.1855 76.9995 63.7816 78.553C64.7536 81.086 62.088 82.7022 55.6019 83.5126C50.7153 84.1231 50.1424 84.4437 50.1424 86.5667V88.9387L60.3924 88.3859C70.0852 87.8631 70.8327 87.9653 74.1424 90.2666C78.7439 93.4659 78.517 96.2784 72.915 105.484L68.6141 112.551L62.6283 112.636C53.4013 112.767 50.1424 113.777 50.1424 116.503V118.796L67.8924 118.35C83.6692 117.953 86.0315 118.106 89.1424 119.727C93.0427 121.759 94.3188 125.83 91.7297 127.978C90.5013 128.998 88.4647 128.817 80.9292 127.018C74.7421 125.541 68.1377 124.759 61.1423 124.676L50.6424 124.551L50.1424 135.051C49.8673 140.826 49.2783 146.113 48.8334 146.801C47.8046 148.39 43.9119 148.42 42.3424 146.851ZM37.3379 111.998C40.3501 111.187 41.1424 110.493 41.1424 108.664C41.1424 106.411 41.0045 106.378 35.544 107.319C31.3444 108.043 29.3456 107.962 27.544 106.998C24.1212 105.166 24.5469 104.409 29.3924 103.709C37.9384 102.474 40.8833 101.186 41.4051 98.4563C41.698 96.9241 41.3901 95.6994 40.6401 95.4115C38.8895 94.7398 24.0594 101.103 23.4058 102.807C23.1117 103.574 23.9263 106.454 25.2164 109.209C27.7921 114.708 27.513 114.644 37.3379 111.998ZM58.5844 107.051C61.7961 107.051 61.9418 106.87 63.4014 101.075C64.5188 96.6399 64.6134 94.8567 63.7688 94.1558C61.8322 92.5486 57.291 91.8003 53.6357 92.4861C50.6643 93.0435 50.1423 93.5467 50.1423 95.8533C50.1423 98.4357 50.3479 98.5489 54.449 98.2227C57.4112 97.9871 59.1485 98.3533 60.0136 99.3957C61.5341 101.228 59.6904 102.482 53.8738 103.573C50.8148 104.147 50.1423 104.699 50.1423 106.637C50.1423 108.762 50.4023 108.902 52.7074 108.026C54.1182 107.49 56.7629 107.051 58.5844 107.051ZM35.9785 63.8439C33.9153 61.2389 33.2897 59.8934 34.3268 60.2913C36.9916 61.3139 37.8925 59.1328 38.6596 49.8008C39.453 40.1497 39.0546 39.5531 34.1487 43.0463C31.6733 44.809 31.2631 45.8884 30.6341 52.2963C29.8265 60.5243 27.9903 65.7882 25.609 66.702C24.6255 67.0794 22.2258 66.0849 19.5223 64.1793C16.3273 61.9273 14.3842 61.203 12.683 61.63C9.77001 62.3611 8.14245 59.8402 8.14245 54.5975C8.14245 51.3169 8.34532 51.0636 10.5327 51.6126C12.3247 52.0624 14.7027 51.0292 20.0327 47.485C27.3184 42.6403 28.2606 41.2237 25.6424 39.0508C24.4424 38.0549 23.8272 38.0675 22.5662 39.1141C21.2599 40.1982 20.8344 40.1763 20.0815 38.9865C18.738 36.8633 18.9035 35.8397 21.5634 29.8252C22.895 26.8142 24.5019 22.4295 25.1342 20.0814L26.2838 15.8121L29.2131 18.6185C33.0275 22.2729 32.9076 24.2468 28.4988 30.3835C26.0378 33.809 25.267 35.5923 26.1238 35.878C26.8215 36.1105 28.2437 37.1522 29.2843 38.1927C31.0021 39.9105 31.4345 39.9511 33.9822 38.6337C38.7306 36.1781 39.4775 34.5865 38.8291 28.3043C38.4476 24.6086 37.6396 22.1563 36.5377 21.3506C35.0303 20.2483 35.0138 20.0374 36.3936 19.5079C37.2507 19.179 39.4573 19.0541 41.2972 19.2303L44.6423 19.5508L44.5691 26.1819L44.4957 32.8131L48.1749 32.3196C50.1984 32.0482 52.8189 32.3425 53.9982 32.9737C55.9211 34.0028 56.1438 34.9689 56.1576 42.336C56.1803 53.6767 56.7268 54.2162 63.1053 49.1742L68.3059 45.0635L65.6776 44.0642C63.344 43.1769 63.1205 42.6843 63.6855 39.6724C64.0694 37.6264 63.8893 36.0125 63.2322 35.6063C62.6328 35.2359 62.1424 34.0654 62.1424 33.0052C62.1424 31.9451 60.5374 29.6069 58.5759 27.8093C55.3116 24.8178 54.9257 23.8659 54.0203 16.5736C53.4763 12.1915 52.8265 8.40158 52.5764 8.15143C52.3261 7.90128 50.8887 8.84305 49.382 10.2443C45.0586 14.2648 41.566 16.1506 39.7406 15.4502C38.1643 14.8452 34.1424 8.22083 34.1424 6.22932C34.1424 5.73368 35.2099 5.53223 36.5147 5.78166C37.8672 6.0402 41.9159 4.90583 45.9324 3.14299C57.3019 -1.8471 58.2758 -1.22013 57.4449 10.5534C56.912 18.1056 57.0436 18.9521 59.0651 20.9736C62.7384 24.6469 65.208 23.386 67.43 16.703C69.5729 10.2578 68.7803 6.0646 65.4138 6.0355C63.9044 6.02246 63.8642 5.87682 65.1424 5.05081C68.0534 3.16954 72.2073 3.9618 75.218 6.97254C78.792 10.5466 78.4388 11.9116 72.2852 18.305L67.7093 23.0592L69.9828 24.6515C73.4424 27.0747 72.5328 30.5344 68.4163 30.6103C64.0342 30.6911 63.321 31.7115 67.0709 32.5351C69.4258 33.0523 70.1424 33.7524 70.1424 35.5354C70.1424 37.3938 70.9962 38.1312 74.3924 39.2059C80.5689 41.1604 80.1747 43.7514 73.1424 47.4203C65.3087 51.5073 60.1424 54.9268 60.1424 56.0249C60.1424 57.8215 67.9788 59.4444 71.9257 58.4651C75.8791 57.4842 76.5334 55.559 74.734 50.2021C74.221 48.675 75.9034 49.9837 79.5437 53.9434C82.623 57.2929 85.1424 60.6426 85.1424 61.3871C85.1424 63.8828 81.4527 66.1146 75.5235 67.2053C68.2153 68.5496 62.0436 67.1059 58.0571 63.1193L55.2877 60.35L53.0408 62.4504L50.7941 64.5508L52.4958 61.7938C53.9987 59.3592 54.0689 58.0145 53.0962 50.2938C51.4729 37.409 51.1308 36.5508 47.6184 36.5508H44.6424L44.4603 49.9032C44.2585 64.6849 44.1137 65.4606 41.2777 66.9785C39.5822 67.8859 38.8254 67.4384 35.9785 63.8439ZM23.5688 59.8008C24.3786 58.5633 25.3547 55.5873 25.7378 53.1875C26.3955 49.0665 26.325 48.8827 24.4658 49.8778C23.3831 50.4572 21.234 52.7542 19.69 54.9821C17.3774 58.3192 17.1034 59.2989 18.135 60.5419C19.9091 62.6796 21.8588 62.4137 23.5688 59.8008Z" />
</svg>
