<svg width="102" height="147" viewBox="0 0 102 147"  xmlns="http://www.w3.org/2000/svg">
<path d="M33.8925 145.08C32.38 143.884 31.1425 142.254 31.1425 141.457C31.1425 140.66 32.38 139.524 33.8925 138.933C40.7117 136.266 47.1425 132.997 47.1425 132.198C47.1425 131.717 45.4307 130.137 43.3385 128.687C37.4163 124.583 32.7952 119.398 33.4765 117.622C34.2664 115.564 39.653 112.305 44.6426 110.867C49.4517 109.48 49.7186 109.257 50.4881 105.978C51.0448 103.605 50.866 103.438 48.1926 103.83C43.8843 104.462 38.9225 102.451 35.1241 98.532L31.7501 95.0508H34.4839C35.9876 95.0508 41.2959 93.4758 46.2804 91.5508C56.7618 87.5029 58.0853 87.3651 61.2818 89.9882C63.2834 91.6308 63.4534 92.2013 62.4002 93.7382C60.275 96.8393 55.1424 106.941 55.1424 108.022C55.1424 108.588 56.3924 109.051 57.92 109.051C68.3733 109.051 67.123 120.837 55.5961 130.957C53.5811 132.727 52.0922 134.332 52.2874 134.524C52.6 134.832 55.0861 134.487 66.3924 132.568C68.9857 132.127 69.1417 132.313 69.1278 135.826C69.1203 137.875 68.5456 140.676 67.8521 142.051C66.6804 144.374 65.9211 144.596 57.1168 145.186C51.9059 145.535 45.1674 146.143 42.1424 146.537C37.3648 147.16 36.2813 146.968 33.8925 145.08ZM48.9476 118.137C49.2424 113.061 49.174 112.905 46.9476 113.574C42.354 114.955 39.6425 116.607 39.6425 118.024C39.6425 119.695 45.983 124.268 47.5741 123.745C48.1617 123.552 48.7797 121.028 48.9476 118.137ZM56.6158 120.46C58.1563 116.773 57.1656 112.3 55.0923 113.582C54.1442 114.168 53.7069 124.051 54.6291 124.051C54.8967 124.051 55.7907 122.435 56.6158 120.46ZM15.3305 80.3008C15.6049 76.6155 16.8813 72.2232 18.8851 68.0686C20.6045 64.5034 21.8511 61.4262 21.6554 61.2305C21.4596 61.0347 19.3122 62.0392 16.8832 63.4627C11.0417 66.886 8.8442 66.7305 4.37781 62.5779L0.642578 59.1049L4.18243 59.0777C6.12937 59.063 10.4044 58.3587 13.6825 57.513C18.714 56.2149 20.5773 55.0393 25.6425 49.9666C30.9181 44.6833 31.4311 43.8367 29.8924 42.9545C28.9299 42.4028 28.1424 41.3815 28.1424 40.685C28.1424 39.9885 25.6675 38.3929 22.6425 37.1391C16.5225 34.6025 15.5858 33.0507 20.1746 33.0507C25.6331 33.0507 29.7751 30.6377 30.4949 27.0383C31.5401 21.8125 31.2474 18.3826 29.6426 17.0507C26.8787 14.7569 27.9917 13.7736 32.7455 14.3094C38.9258 15.006 40.9558 17.0574 39.4397 21.074C38.3492 23.963 38.4455 24.1504 41.7219 25.5194C43.6032 26.3055 45.1425 27.3816 45.1425 27.9107C45.1425 29.154 39.7898 33.6523 35.7725 35.7851L32.6424 37.4469L36.4434 38.0996C44.0282 39.4022 43.882 42.7004 36.0517 46.9352C29.3847 50.5409 26.9236 52.1651 27.4022 52.6437C27.6403 52.882 29.5602 52.3562 31.6684 51.4753C33.7766 50.5945 36.9957 50.0482 38.8219 50.2614C40.6482 50.4746 42.1424 50.3691 42.1424 50.0268C42.1424 49.6846 44.2205 46.1564 46.7605 42.1864L51.3788 34.9683L51.8657 22.2595C52.2976 10.9901 52.1208 9.01838 50.3047 4.85102L48.2567 0.151367L54.421 2.35102C62.0709 5.08075 63.7747 7.64499 61.4883 12.9875C59.5477 17.5218 57.1674 25.1507 57.1533 26.8807C57.1457 27.6121 59.7223 25.9113 62.8754 23.101C69.0039 17.6388 74.3389 15.3812 78.5946 16.4493C84.5124 17.9346 82.9258 22.6142 75.6829 25.0371L70.8617 26.65L74.8834 27.8549C80.8183 29.6331 81.9891 31.4875 79.2978 34.8468C73.3646 42.2526 73.4208 42.0112 76.9589 44.9192C80.7231 48.0131 80.9417 49.8158 77.9427 53.0348C75.8373 55.2947 75.8219 55.4422 77.5866 56.4733C85.1505 60.893 85.8861 64.4974 79.4449 65.5786C72.7283 66.7061 66.1425 69.1722 66.1425 70.5596C66.1425 74.3364 72.7087 76.6978 80.7045 75.7966C87.3564 75.0468 88.4816 73.6748 87.8541 67.0796C87.5646 64.0387 87.0041 60.6507 86.6081 59.5507C86.2122 58.4507 87.235 59.6085 88.8811 62.1237C90.5271 64.6389 93.9108 68.3656 96.4 70.4054C101.531 74.6096 102.557 77.0135 100.485 79.9716C98.582 82.6891 89.1592 85.3784 81.4496 85.4046C73.1329 85.433 64.5644 81.2418 61.6426 75.7165C59.83 72.2888 59.3614 71.9967 56.6425 72.5985C49.4485 74.1906 48.9149 74.0698 53.4508 71.8761L58.2592 69.5507L58.4049 60.3381C58.4851 55.2711 58.2722 50.8472 57.9323 50.507C57.5921 50.1669 56.4204 50.3667 55.3285 50.9511C53.8388 51.7484 53.1709 53.4992 52.6526 57.9646C52.2727 61.2376 51.3276 64.7334 50.5522 65.7331C49.2218 67.4485 49.0672 67.4538 47.8013 65.8267C46.6828 64.389 46.6793 62.6453 47.7787 55.3267C48.5045 50.4999 49.105 45.8757 49.1132 45.0507C49.1321 43.0399 45.8436 47.9748 41.4469 56.5507C38.296 62.6966 37.8448 64.4936 37.7497 71.2786C37.6511 78.3113 37.393 79.2549 34.8807 81.7667C32.6254 84.0214 31.8015 84.3202 30.3808 83.3985C28.2773 82.0339 28.4429 77.3025 30.7501 72.8407C32.0565 70.3143 32.0972 69.6378 30.9858 68.9333C29.6309 68.0746 24.1414 67.6972 24.1414 68.4627C24.1414 68.6893 23.4724 72.3716 22.6547 76.6456C21.1565 84.4756 20.1968 86.0073 16.7713 86.0354C15.1103 86.049 14.9501 85.4077 15.3305 80.3008ZM69.0023 63.8891C72.7281 61.7448 72.7573 61.6781 72.6185 55.6391C72.5414 52.2905 71.8683 48.576 71.1223 47.3845C70.009 45.6064 69.9837 44.0358 70.9816 38.6201C72.9867 27.7379 70.2774 25.5391 61.7902 31.1607C56.4568 34.6935 55.6718 35.8784 54.7758 41.7501L54.135 45.9494L57.1565 44.8961C64.1523 42.4574 67.3391 46.2416 65.256 54.5141C64.0875 59.1549 63.7517 66.0508 64.6943 66.0508C64.9978 66.0508 66.9364 65.078 69.0023 63.8891ZM36.693 59.9514C38.1142 57.1467 39.078 54.6529 38.8346 54.4095C38.2392 53.8142 29.9363 57.057 28.4998 58.446C27.8713 59.0536 27.0625 60.5349 26.7025 61.7376C26.1214 63.6787 26.4745 63.9688 29.8451 64.3195C31.9336 64.5368 33.7474 64.7903 33.8756 64.8827C34.0037 64.9751 35.2717 62.7561 36.693 59.9514ZM38.1423 27.0508C38.1423 26.5008 37.944 26.0508 37.7015 26.0508C37.4589 26.0508 36.9824 26.5008 36.6424 27.0508C36.3027 27.6008 36.5012 28.0508 37.0835 28.0508C37.6659 28.0508 38.1423 27.6008 38.1423 27.0508Z" />
</svg>
