<svg width="59" height="96" viewBox="0 0 59 96"  xmlns="http://www.w3.org/2000/svg">
<path d="M28.9471 88.7494C28.9471 80.3361 29.4297 80.4717 15.0802 84.8537C5.47321 87.7875 4.77819 87.8686 2.43091 86.3306C-1.30304 83.8841 -0.583378 82.7487 4.69715 82.755C11.619 82.7626 28.9471 78.719 28.9471 77.0952C28.9471 76.3531 27.849 75.7669 26.4472 75.7606C25.0722 75.753 22.8414 75.7416 21.49 75.7341C19.5241 75.7227 18.8341 74.999 18.0381 72.1158C17.4908 70.1339 16.2741 67.6628 15.3345 66.6245C13.1403 64.1999 14.0774 63.2923 17.5721 64.4572C19.6281 65.1425 20.6878 66.4937 21.7715 69.8114C23.5748 75.3325 23.3529 75.1148 26.4006 74.3498C29.737 73.5125 29.7727 70.7489 26.447 70.7489C23.3416 70.7489 23.1334 69.0041 26.187 68.5684C27.4189 68.3927 28.5725 67.485 28.7503 66.5514C29.0195 65.1396 28.4954 64.9479 25.6375 65.4116C23.6074 65.7412 21.9208 65.5148 21.5154 64.859C21.0831 64.1596 21.7455 63.7489 23.3064 63.7489C26.8641 63.7489 28.9474 62.7572 28.9474 61.0637C28.9474 59.9772 27.9913 59.6783 25.2917 59.9207C23.0075 60.1259 21.4757 59.78 21.2084 58.9989C20.9412 58.218 21.7195 57.7489 23.2822 57.7489C29.1352 57.7489 30.3057 55.7456 26.9473 51.476C25.8473 50.0776 24.9473 48.7273 24.9473 48.4754C24.9473 47.9012 32.8415 49.3099 33.5405 50.0089C33.8232 50.2916 34.1261 51.4736 34.2136 52.6358C34.3455 54.3865 35.0221 54.7488 38.16 54.7488C43.1664 54.7488 43.0197 56.5537 37.9473 57.3648C35.0487 57.8283 33.9472 58.4862 33.9472 59.7539C33.9472 61.2181 34.6401 61.4276 38.1973 61.039C46.204 60.1645 51.2108 63.9916 47.0865 67.8339C45.9217 68.9191 44.2756 71.1471 43.4285 72.785C42.005 75.5379 41.5883 75.7151 37.918 75.1282C34.7762 74.6258 33.9472 74.8058 33.9472 75.99C33.9472 77.1918 35.967 77.5771 44.1972 77.9453C54.5018 78.4063 58.9474 79.6763 58.9474 82.1591C58.9474 83.4816 54.7062 84.7777 50.5724 84.7185C48.5606 84.6883 48.547 84.63 50.3172 83.6017C53.4012 81.8099 50.3208 80.7812 41.8221 80.7641L34.1973 80.749L33.5721 83.8741C33.2282 85.5928 32.9328 88.1804 32.9153 89.6241C32.8851 92.1417 30.9246 95.749 29.587 95.749C29.2352 95.749 28.9471 92.5993 28.9471 88.7494ZM39.7888 68.8833C41.5195 63.1069 41.3366 62.5849 37.7053 62.9359C33.7687 63.3165 32.726 66.156 36.1486 67.1752L38.4472 67.8597L36.1971 68.9574C33.2485 70.3957 33.3057 72.7494 36.2891 72.7494C38.1412 72.7494 38.8727 71.941 39.7888 68.8833ZM21.8506 41.8995C20.8032 40.568 19.4153 37.6269 18.7663 35.3639C18.1174 33.1009 17.4844 31.1037 17.3596 30.9256C17.2349 30.7476 15.6993 31.3432 13.9471 32.2493C10.0691 34.2547 8.92952 33.6461 12.3572 31.4002C13.7172 30.5091 16.2279 27.7481 17.9366 25.2647C21.3026 20.3723 24.7427 19.2515 25.6573 22.7493C26.4985 25.9658 27.9471 25.0509 27.9471 21.3032V17.8572L22.9514 19.3407C18.9304 20.5348 17.5159 20.585 15.7015 19.5981C13.6268 18.4695 13.9622 18.2662 19.9103 17.0476C26.4464 15.7084 31.5713 12.9036 25.3754 14.0565L22.3039 14.6282L26.2396 10.6925C29.4677 7.46432 30.096 6.21663 29.7344 3.75302C29.354 1.16041 29.6071 0.749512 31.5852 0.749512C32.8456 0.749512 34.3473 1.6285 34.9223 2.70294C35.7784 4.30259 35.3956 5.30806 32.8088 8.25424C28.8814 12.7273 29.8552 14.2295 35.8141 12.8906C38.116 12.3734 40.9061 12.1874 42.0142 12.4773C45.6021 13.4155 43.4295 15.2278 37.664 16.106L32.0406 16.9626L31.7439 22.606C31.4847 27.5381 31.1716 28.2887 29.2611 28.5607C27.743 28.7769 26.6625 28.084 25.7242 26.2933L24.3731 23.7148L21.1036 27.0881L17.8339 30.4615L20.3433 33.4437C22.8112 36.3766 22.9451 36.4092 28.4279 35.4154C32.3958 34.6962 34.3206 34.7228 35.1052 35.5074C35.9086 36.3107 35.1548 36.7881 32.3276 37.2669C26.1452 38.3138 24.812 38.8423 25.2204 40.0841C25.4313 40.725 27.7183 41.387 30.3031 41.5552C34.7872 41.847 35.0655 41.7098 36.3784 38.5552C38.9393 32.4019 38.7899 31.241 35.4471 31.3215C33.7971 31.3612 30.3098 31.7498 27.6973 32.1851C24.8581 32.658 22.9473 32.6009 22.9473 32.043C22.9473 30.7586 38.2969 28.3693 41.4555 29.1621C42.8633 29.5154 44.5126 30.8961 45.1206 32.2305C46.1217 34.4277 45.7708 35.099 41.4018 39.3453C36.7289 43.8867 36.3763 44.0385 30.1663 44.1772C24.4847 44.3042 23.5382 44.045 21.8506 41.8995ZM41.9471 25.6275C34.2982 20.7995 34.4446 20.9186 35.2167 20.1466C36.1936 19.1696 48.4414 23.6296 50.7899 25.8175C56.538 31.1727 50.5276 31.0437 41.9471 25.6275Z" />
</svg>
