<svg width="54" height="95" viewBox="0 0 54 95"  xmlns="http://www.w3.org/2000/svg">
<path d="M31.1182 90.6054C29.9992 88.3439 29.6191 86.7265 30.2635 86.9682C35.3909 88.892 35.8562 88.7819 40.4367 84.5597C44.2493 81.0454 44.974 79.8105 44.7244 77.2544C44.4285 74.223 44.3346 74.1739 38.2819 73.8833C34.9037 73.7211 29.4215 74.2162 26.0992 74.9838C22.7769 75.7513 19.4785 76.0207 18.7695 75.5825C17.2942 74.6707 18.6311 73.9915 22.9139 73.4772C26.1851 73.0843 26.7833 70.0947 23.7232 69.4327C22.4587 69.159 20.6367 68.6043 19.6742 68.1997C18.2103 67.5844 17.9215 68.0131 17.9088 70.8212C17.8899 74.8186 16.5955 77.2111 14.9878 76.2176C14.2371 75.7536 14.0456 74.0331 14.4448 71.3394C14.9967 67.6153 14.4335 63.6694 12.3931 56.9959C11.817 55.1106 12.0317 54.8935 13.9703 55.4005C15.2242 55.7286 16.6994 57.2717 17.3134 58.8983C18.3181 61.5601 18.7113 61.753 21.9104 61.1529C23.8346 60.7919 25.7571 60.2813 26.1827 60.0182C27.5731 59.1589 25.8604 57.6782 23.4759 57.6782C22.1943 57.6782 20.0833 56.7931 18.7849 55.7114L16.4241 53.7447L20.5912 53.7106C22.883 53.6917 26.8578 52.7774 29.4241 51.6774C34.3729 49.5561 38.4487 49.0991 39.3541 50.5641C40.1531 51.857 38.0098 53.2969 33.1309 54.7453C29.2325 55.9026 28.982 56.1638 30.4056 57.5874C31.2678 58.4496 32.7109 59.1602 33.6126 59.1663C36.3148 59.1852 36.205 61.39 33.4675 62.0771C29.7742 63.0041 30.175 65.6774 34.0073 65.6774C37.6868 65.6774 37.5552 67.9935 33.8456 68.5232C31.2612 68.8921 28.9237 70.4103 28.9237 71.7197C28.9237 72.1583 33.1179 72.2669 38.244 71.9612C47.5194 71.4078 47.5749 71.4184 49.7441 74.1761C52.4404 77.6039 52.4391 77.9264 49.71 83.389C47.1736 88.4674 39.4353 94.6776 35.6433 94.6776C33.7022 94.6776 32.6755 93.7531 31.1182 90.6054ZM25.9241 65.1782C25.9241 64.3532 25.1366 63.672 24.1741 63.6644C23.2117 63.6569 21.4116 63.3795 20.1741 63.0478C18.3595 62.5615 17.924 62.8544 17.924 64.5616C17.924 66.3643 18.5173 66.6781 21.9241 66.6781C24.8129 66.6781 25.9241 66.2615 25.9241 65.1782ZM8.23711 90.9023C7.58427 90.4819 6.13764 88.0095 5.02253 85.408L2.99505 80.6782H5.48113C7.16234 80.6782 8.33575 81.4874 9.1061 83.1781C9.73259 84.5531 10.8479 85.6781 11.5846 85.6781C13.4105 85.6781 13.2661 87.0453 11.1742 89.5616C10.1418 90.8034 8.93738 91.3532 8.23711 90.9023ZM18.9967 85.0433C16.4136 81.7594 16.3816 80.6782 18.8675 80.6782C20.8684 80.6782 23.9241 84.1363 23.9241 86.4007C23.9241 88.5704 21.1755 87.8133 18.9967 85.0433ZM27.5493 81.8089C25.0966 79.2488 24.9887 78.8672 26.549 78.2685C28.6269 77.4711 33.5448 81.8644 32.4882 83.5741C31.4479 85.2574 30.5436 84.9343 27.5493 81.8089ZM35.4242 78.6782C33.6608 76.7298 33.6775 76.6781 36.0691 76.6781C38.4748 76.6781 40.9241 78.2925 40.9241 79.8782C40.9241 81.453 37.2 80.6404 35.4242 78.6782ZM13.9131 44.4281C11.5462 40.5462 11.3479 38.9551 13.4483 40.6982C14.2865 41.394 15.1941 41.7413 15.4651 41.4703C16.5392 40.3962 17.2184 21.6781 16.1833 21.6781C15.6099 21.6781 14.863 22.7855 14.5233 24.1389C13.8016 27.0142 8.52862 32.3695 3.76207 35.068L0.424072 36.9578L4.56531 32.568C9.52583 27.3097 12.2848 22.1653 11.5832 19.4823C11.2128 18.0666 11.4674 17.6814 12.4969 18.0991C13.2818 18.4178 14.5991 18.9512 15.4241 19.2851C16.4506 19.7005 16.924 19.2813 16.924 17.9517C16.924 15.1149 16.1912 14.7833 12.4561 15.9297C10.6102 16.4962 8.27292 16.6196 7.26201 16.2041C5.80716 15.606 6.46634 15.0907 10.424 13.733C15.1137 12.124 15.4437 11.7855 15.7387 8.27811C15.9118 6.22137 15.5189 3.89496 14.866 3.10836C13.8798 1.92 14.2073 1.67824 16.8017 1.67824C19.8357 1.67824 19.924 1.80558 19.924 6.17819C19.924 10.1688 20.1788 10.6818 22.1741 10.7099C24.3368 10.7401 24.3154 10.8225 21.6214 12.8317C19.2438 14.6048 18.9175 15.3963 19.4703 18.05C19.8286 19.7705 21.0475 21.9081 22.179 22.8002C24.5209 24.6468 23.9541 28.0106 21.462 27.0543C20.1454 26.549 19.924 27.8173 19.924 35.8712C19.924 44.7168 19.1179 47.6781 16.7094 47.6781C16.2613 47.6781 15.003 46.2157 13.9131 44.4281ZM44.7242 43.4782C45.3842 42.8182 45.924 41.8521 45.924 41.3314C45.924 40.1328 32.6075 41.1954 28.1484 42.7498C25.609 43.635 24.5391 43.6035 23.34 42.6084C21.4012 40.9994 22.6634 40.1936 28.6741 39.2029C31.9481 38.6633 32.924 38.0633 32.924 36.5903C32.924 33.7401 32.5734 33.1604 30.9657 33.3519C28.8521 33.6036 25.7674 31.7408 26.4552 30.628C26.7779 30.1056 28.3391 29.6782 29.9242 29.6782C33.1631 29.6782 34.2211 28.6158 33.3203 26.2684C32.9613 25.3324 31.5443 24.6781 29.8762 24.6781C26.196 24.6781 25.1246 22.9169 28.3175 22.1156C29.8311 21.7357 31.1748 20.3976 31.7766 18.6712C32.8595 15.5648 32.4351 14.5447 30.3869 15.3307C29.6491 15.6138 28.2308 15.3882 27.2349 14.8291C25.2878 13.7361 26.0544 13.171 30.4241 12.4782C32.8159 12.0989 33.5715 7.97451 32.0492 3.60768C31.0994 0.882829 31.2009 0.678223 33.5012 0.678223C35.4347 0.678223 36.1016 1.3161 36.5589 3.60237C36.9594 5.60469 38.0696 6.90995 40.0803 7.74281C43.8209 9.29222 43.4357 11.8133 39.2761 13.0062C36.5141 13.7984 33.924 16.9989 33.924 19.6199C33.924 20.0861 35.6115 20.0788 37.674 19.6048C39.7365 19.1297 42.2114 18.9824 43.174 19.2775C45.7223 20.0588 45.3392 22.6767 42.6741 22.6929C37.8036 22.7231 36.0118 23.7424 36.85 26.0081C37.2837 27.1805 38.6294 28.3736 39.8404 28.6595C42.7184 29.3389 42.6588 31.0352 39.7329 31.7188C38.1039 32.0995 37.327 33.0973 37.0943 35.107L36.7647 37.9556L42.6935 37.2848C48.7074 36.6044 53.9241 37.7216 53.9241 39.69C53.9241 40.2732 51.8619 41.6342 49.3413 42.7147C44.0421 44.9862 43.0534 45.1489 44.7242 43.4782ZM38.9241 9.23718C38.9241 8.99453 38.4741 8.518 37.9241 8.17811C37.3741 7.83833 36.9241 8.03675 36.9241 8.61906C36.9241 9.20152 37.3741 9.67813 37.9241 9.67813C38.4741 9.67813 38.9241 9.47971 38.9241 9.23718Z" />
</svg>
