<svg width="57" height="59" viewBox="0 0 57 59"  xmlns="http://www.w3.org/2000/svg">
<path d="M30.9239 57.678C30.9239 57.128 29.6108 56.6781 28.0058 56.6781C21.9912 56.6781 20.2145 54.2244 23.5559 50.5322C25.0831 48.8447 25.0189 48.6647 22.5559 47.7283C20.9538 47.1192 19.924 45.9637 19.924 44.7754C19.924 42.3405 24.4399 38.6781 27.4422 38.6781C28.885 38.6781 29.8873 37.926 30.2395 36.5792C30.7065 34.7933 30.463 34.5835 28.6062 35.1726C22.932 36.973 21.2156 36.9013 20.6769 34.8416C20.2874 33.3519 20.6107 32.8543 21.9058 32.9518C22.8726 33.0247 25.5203 32.4714 27.7896 31.7225C31.5041 30.4966 32.1119 30.5383 33.8827 32.1408C35.6845 33.7715 35.7268 34.1585 34.3867 36.7499C33.5821 38.3058 32.924 40.4827 32.924 41.5873C32.924 45.0808 29.5867 50.7491 27.7845 50.3167C26.8829 50.1005 25.5861 50.269 24.9026 50.6915C23.5181 51.5472 24.8587 52.0714 31.1389 53.1297C35.6263 53.886 36.8791 55.5068 34.3856 57.33C32.1982 58.9295 30.9239 59.0572 30.9239 57.678ZM27.7239 46.4781C29.265 44.9369 29.2861 40.6781 27.7541 40.6781C26.1344 40.6781 22.9254 43.7163 22.9254 45.2497C22.9254 46.3506 24.2189 47.347 25.9755 47.5991C26.2779 47.6426 27.0639 47.1381 27.7239 46.4781ZM1.20212 36.5562C-0.475872 34.8782 0.749734 32.8197 3.06628 33.4255C4.58732 33.8233 6.74891 32.246 11.907 26.9742C19.5055 19.2083 24.951 9.65491 25.1896 3.672C25.3237 0.31094 25.5661 -0.0485754 27.1333 0.790177C29.8547 2.24658 29.3332 6.972 25.7368 13.4432C15.4017 32.0395 5.76435 41.1185 1.20212 36.5562ZM45.9327 26.6895C42.588 22.2958 38.1883 17.5708 36.1556 16.1895C31.5716 13.0746 34.0591 12.8595 39.1208 15.9332C44.9209 19.4552 56.9239 30.8766 56.9239 32.8736C56.9239 34.1229 56.1686 34.6781 54.4689 34.6781C52.5745 34.6781 50.625 32.8537 45.9327 26.6895ZM26.9442 26.6404C27.544 25.5197 27.7545 23.7196 27.412 22.6403C26.7065 20.4174 27.2218 20.2321 29.9896 21.7133C32.5507 23.0839 32.4376 25.2049 29.7013 27.1215C26.6603 29.2514 25.6419 29.0737 26.9442 26.6404Z" />
</svg>
