<svg width="70" height="105" viewBox="0 0 70 105"  xmlns="http://www.w3.org/2000/svg">
<path d="M56.907 103.5C56.5476 102.919 53.4837 100.385 50.0982 97.8686C46.7125 95.3527 44.8424 93.6391 45.9424 94.0605C53.086 96.7972 55.6863 97.5246 56.5089 97.0162C57.5935 96.3459 57.6958 91.3116 56.7799 83.6833L56.1347 78.3094L48.8651 78.9681C44.867 79.3306 39.0644 80.2861 35.9704 81.092C28.836 82.9503 26.0066 82.9419 24.4426 81.0581C23.3954 79.7963 23.5745 79.5591 25.5702 79.5642C26.8751 79.5676 34.1277 78.5647 41.6874 77.3357C53.8627 75.3562 55.3681 74.8988 54.8701 73.3296C54.1902 71.1874 56.6534 70.9022 58.335 72.9283C58.9605 73.682 61.32 74.5465 63.5784 74.8495C68.3097 75.4841 69.9684 76.7451 69.0883 79.0386C68.6031 80.303 67.6825 80.506 64.8465 79.974C61.6114 79.3671 61.2869 79.4957 61.8111 81.1763C63.041 85.1193 64.3922 97.5313 63.7793 99.2553C62.2513 103.554 58.4073 105.928 56.907 103.5ZM11.0865 99.3598C10.7475 98.0934 10.4635 95.9897 10.456 94.6848C10.4447 92.6973 10.684 92.5127 11.9306 93.5475C13.1216 94.5359 13.5067 94.5105 13.8588 93.4201C14.3032 92.0443 16.4425 79.4628 16.4425 78.2256C16.4425 76.168 14.1603 78.3953 9.4424 85.0575C4.21818 92.4347 1.31407 94.2712 0.0560925 90.993C-0.301829 90.0604 1.10892 86.9937 3.54819 83.4017C6.39882 79.204 7.50104 76.6442 7.18031 74.9663C6.92708 73.6414 7.01741 72.5575 7.381 72.5575C8.72803 72.5575 10.4424 75.0193 10.4424 76.9537C10.4424 78.6924 10.8825 78.5233 13.8549 75.6423C16.9053 72.6858 17.3942 71.441 18.4626 63.9148C19.9484 53.4481 20.0264 51.6054 19.0998 48.8904C18.4756 47.0617 18.6739 46.8053 20.3685 47.2484C23.7667 48.1371 24.4127 49.7445 23.3197 54.5906C22.7655 57.0474 22.0869 61.3075 21.8114 64.0575C19.7464 84.6783 18.1564 96.3832 17.1276 98.5369C15.5066 101.931 11.9064 102.421 11.0865 99.3598ZM35.6809 96.3446C35.0882 95.6304 34.3422 93.8111 34.0229 92.3018C32.2999 84.1546 32.2595 84.5572 34.801 84.5572C38.2135 84.5572 39.8185 87.0217 39.8848 92.3629C39.9449 97.2198 37.9642 99.0959 35.6809 96.3446ZM42.4334 71.8147C48.4431 67.5748 52.4426 63.23 52.4426 60.941C52.4426 59.63 51.88 58.5269 51.1925 58.4896C50.505 58.4519 50.9265 57.9465 52.1289 57.3652C55.076 55.9408 59.4425 57.1282 59.4425 59.3538C59.4425 63.39 53.402 68.3231 43.9426 72.0122C40.0567 73.5276 40.0135 73.5218 42.4334 71.8147ZM31.6926 67.4422C35.0204 64.9594 35.1674 63.2826 32.2287 61.3314C30.0454 59.8817 30.0915 59.8107 35.5842 56.1638C42.1862 51.7803 44.4384 48.3816 42.6445 45.5092C40.9132 42.7369 41.0633 42.6281 44.9675 43.8263C48.4985 44.91 50.425 48.1587 48.951 50.5437C48.5772 51.1487 44.9346 53.2714 40.8567 55.2608C36.7788 57.2503 33.4425 59.1836 33.4425 59.5571C33.4425 59.9306 34.5284 60.7311 35.8557 61.3358C37.183 61.9406 38.5881 63.441 38.9783 64.6701C39.9045 67.5887 37.2643 69.568 32.5013 69.5256L28.9426 69.4954L31.6926 67.4422ZM41.5474 64.7534C40.4256 62.6573 41.7262 59.5893 42.9186 61.5187C43.318 62.1649 44.3245 62.4329 45.1551 62.1142C46.2301 61.7016 46.489 61.9936 46.0538 63.1277C45.7174 64.0039 45.4425 65.134 45.4425 65.6391C45.4425 67.2717 42.5422 66.6122 41.5474 64.7534ZM10.8104 64.0408C11.1974 63.0322 10.7954 61.2184 9.87216 59.8095C7.36172 55.9781 9.54977 55.1645 13.487 58.4653C15.3876 60.0586 16.7175 61.5423 16.4425 61.7624C16.1674 61.9824 14.6354 62.9824 13.0378 63.9844C10.3006 65.7011 10.172 65.7045 10.8104 64.0408ZM8.09751 40.7286C5.70552 38.0855 6.01625 37.5573 9.96351 37.5573C13.8972 37.5573 28.4425 33.5455 28.4425 32.4605C28.4425 31.6508 22.6271 26.5673 19.8536 24.9527C18.2474 24.0176 18.1591 23.6036 19.2781 22.2553C20.0051 21.3793 22.6126 19.894 25.0724 18.9546C29.3329 17.3274 29.5305 17.0763 29.2436 13.6519C28.9598 10.2622 28.7608 10.0755 25.7552 10.3761C22.53 10.6989 18.4425 9.17938 18.4425 7.65801C18.4425 7.20212 20.4647 6.55194 22.9363 6.21318C25.4079 5.87453 29.6679 4.46325 32.4031 3.07726C37.9517 0.265518 44.8987 -0.3023 45.7761 1.98416C46.504 3.88103 44.9896 4.95104 38.6488 7.01988C34.3111 8.4352 33.5649 8.99985 34.5168 10.1469C35.1558 10.9168 35.4426 12.449 35.1542 13.552C34.7004 15.2873 35.12 15.5593 38.286 15.5726C42.736 15.5915 44.9333 16.8357 44.1447 18.8909C43.273 21.1626 39.4424 23.0511 39.4424 21.2091C39.4424 19.7647 36.0158 18.3173 35.0003 19.3328C34.6934 19.6397 34.4426 22.4758 34.4426 25.6355V31.3803L45.5311 31.7186C56.2546 32.046 56.6992 32.1495 59.0312 34.8629C61.7006 37.969 61.8176 38.4159 60.5045 40.4908C59.748 41.6864 58.4063 41.3756 52.4285 38.6203C45.6959 35.517 44.7633 35.3472 37.1012 35.8297C31.2186 36.2001 26.7627 37.2102 21.1289 39.4503C12.0677 43.0531 10.3535 43.2215 8.09751 40.7286ZM29.9873 25.2943C30.2198 20.9445 29.0117 19.9543 25.9333 21.9713L23.2535 23.7272L25.5402 26.1615C28.3075 29.1071 29.7992 28.8162 29.9873 25.2943ZM50.0013 24.3912L46.0603 22.3135L48.7544 20.9018C50.6789 19.8935 51.9856 19.7775 53.328 20.496C55.4307 21.6213 56.7426 24.2626 55.8867 25.6475C55.113 26.8994 54.5183 26.7725 50.0013 24.3912Z" />
</svg>
