<svg width="97" height="130" viewBox="0 0 97 130"  xmlns="http://www.w3.org/2000/svg">
<path d="M82.078 124.261C78.9203 121.369 72.6136 116.129 68.0632 112.618C63.5128 109.107 59.9128 106.137 60.0632 106.017C60.2136 105.898 64.5423 106.516 69.6825 107.39C78.7913 108.939 79.0661 108.929 80.5197 107C82.3257 104.603 81.7256 93.6878 79.7198 92.4482C77.9096 91.3294 66.9639 89.5204 62.0048 89.5204H57.8367V102.465C57.8367 114.753 57.7131 115.551 55.3973 118.215C52.4005 121.661 51.2121 121.118 44.9131 113.424C41.403 109.136 40.835 107.954 42.1624 107.697C43.9917 107.344 44.4239 105.899 45.2822 97.2704C45.625 93.8229 45.4651 91.5204 44.8824 91.5204C44.348 91.5204 41.6274 92.4204 38.8367 93.5204C32.2663 96.1102 30.3915 96.0412 28.0976 93.125L26.2134 90.7296L25.0904 98.4345C24.4728 102.672 23.4296 107.32 22.7722 108.763C21.5136 111.525 15.9287 114.413 7.83672 116.486C5.36169 117.121 2.44653 117.901 1.35859 118.22C0.0515518 118.603 1.12992 116.886 4.53799 113.157C10.7114 106.402 13.3816 99.8619 15.381 86.5986C17.0459 75.5546 17.2502 57.026 15.7776 50.6384C15.2219 48.2283 14.9288 46.095 15.1262 45.8976C15.3235 45.7003 17.9266 46.9998 20.9108 48.7855C26.0384 51.8537 26.6503 51.9848 32.0416 51.1695C37.5678 50.3338 38.1943 49.8989 52.0416 37.2871C65.7619 24.7909 68.7961 21.5545 65.6648 22.7561C64.8702 23.061 60.4256 24.0844 55.788 25.0303C47.9331 26.6324 46.957 27.1194 41.53 32.1439C34.3832 38.7605 32.3357 39.8335 22.8367 41.9396C18.7117 42.8542 14.4367 43.8362 13.3367 44.1218C12.2367 44.4074 13.6939 43.3061 16.5749 41.6745C28.986 34.6459 36.3352 27.5776 43.358 15.915C46.9517 9.94715 47.6519 5.91217 45.7203 2.30302C44.7391 0.469584 44.8299 0.309567 46.4704 0.980877C47.4968 1.40094 50.3824 2.30424 52.8828 2.98821C63.9777 6.02322 64.8182 8.80526 57.0465 16.7704C54.4975 19.3829 52.6199 21.5203 52.8743 21.5202C56.1824 21.519 69.3424 18.1575 70.4756 17.0243C73.1651 14.3348 76.6799 15.2614 81.6449 19.9686C87.3661 25.3927 87.3892 25.3581 73.3367 32.4202C63.0277 37.601 45.52 48.4489 47.3938 48.4946C50.4629 48.5694 70.8346 44.3245 73.8742 42.9768C78.2656 41.0297 82.3072 42.2641 84.0477 46.0842C84.7181 47.5555 87.2917 49.7307 89.9646 51.0852C92.5664 52.4037 94.9504 53.8954 95.2623 54.4001C95.5741 54.9049 94.9411 57.276 93.8551 59.6691C91.2763 65.3523 91.32 67.4477 94.4972 90.4534C96.8736 107.66 97.0458 110.675 96.0009 116.768C94.5506 125.226 92.4632 129.52 89.8023 129.52C88.7117 129.52 85.2357 127.154 82.078 124.261ZM80.426 85.2704C80.1501 83.4829 79.6441 79.8283 79.3013 77.149L78.6778 72.2776L71.5072 72.9559C56.1911 74.4047 56.8367 74.1107 56.8367 79.6373V84.4986L65.5867 83.9327C73.9076 83.3946 74.4838 83.4914 77.3367 85.9077C78.9867 87.3051 80.4696 88.4646 80.632 88.4844C80.7945 88.5041 80.7015 87.0579 80.426 85.2704ZM42.5867 85.9344C45.7236 85.4473 45.8367 85.2652 45.8367 80.7056V75.9815L38.4633 76.3539C34.3496 76.5616 30.2024 76.2513 29.0825 75.652C27.3103 74.7035 27.0027 74.9402 26.456 77.6741C26.1154 79.377 25.8367 82.325 25.8367 84.225V87.6796L32.5867 87.0594C36.2992 86.7182 40.7992 86.212 42.5867 85.9344ZM42.4835 70.5204C45.7625 70.5204 45.8368 70.4262 45.8331 66.2704C45.8309 63.8149 45.0016 60.6628 43.8689 58.805L41.9083 55.5897L37.3727 57.2707C33.0881 58.8587 32.6709 58.8536 29.8369 57.1795L26.8368 55.4073V63.6063V71.8053L32.9835 71.1629C36.3642 70.8095 40.6392 70.5204 42.4835 70.5204ZM66.3226 65.6198C70.0723 64.9209 72.1404 65.0382 74.6647 66.0929L78.0211 67.4953L77.3273 62.4512C75.9871 52.7067 75.6202 52.0549 71.2707 51.6935C67.7243 51.3989 55.9177 52.6761 48.4658 54.1606L45.5947 54.7325L49.5443 56.5008C53.9592 58.4774 57.8369 62.7896 57.8369 65.7226C57.8369 67.1072 58.3331 67.4983 59.5868 67.1021C60.5494 66.7979 63.5804 66.1308 66.3226 65.6198Z" />
</svg>
