<svg width="123" height="119" viewBox="0 0 123 119"  xmlns="http://www.w3.org/2000/svg">
<path d="M11.9203 118.061C8.85404 116.941 5.93079 113.341 5.28283 109.887C4.91546 107.929 3.58708 104.002 2.33088 101.162L0.046875 95.9972L8.30271 96.5123C18.2936 97.1356 51.3515 92.3081 50.2169 90.3914C49.851 89.7735 47.1036 85.7539 44.1113 81.4588C40.2553 75.9239 38.2251 73.8208 37.1401 74.2371C36.279 74.5676 34.5837 73.861 33.2648 72.6219C31.3317 70.8058 30.9202 69.4086 30.9202 64.6588C30.9202 61.4905 30.4604 57.6886 29.8983 56.2102L28.8763 53.5222L32.3977 56.614C34.3344 58.3144 36.4818 59.5319 37.1696 59.3194C37.8575 59.1069 41.6099 58.1903 45.5082 57.2825L52.5962 55.632L51.7293 49.95C50.6219 42.6904 48.3698 35.9098 46.0757 32.9276L44.2754 30.5873L40.4583 33.1776C38.3589 34.6023 35.9944 35.768 35.2038 35.768C32.9853 35.768 28.0941 30.3585 27.408 27.1461C27.0701 25.5631 26.1517 22.5007 25.3676 20.3406C24.5834 18.1805 24.0494 16.3273 24.181 16.2224C24.3126 16.1175 27.1203 16.4835 30.4203 17.0358C39.2763 18.518 45.5847 16.7783 62.62 8.15594C70.7602 4.03581 78.7315 0.617426 80.3341 0.559542C83.5923 0.441848 86.5534 3.34525 87.5599 7.64444C87.8978 9.08739 89.5175 11.6916 91.1596 13.4316C92.8016 15.1716 93.8847 17.0165 93.5665 17.5315C93.2482 18.0464 89.2601 18.7632 84.7041 19.1242C69.5316 20.3267 47.9203 26.0228 47.9203 28.8194C47.9203 29.2622 50.5078 30.1377 53.6703 30.7649C69.7992 33.9635 70.8611 34.8636 70.1546 44.7379L69.6618 51.6237L79.0411 49.2159C90.9852 46.1496 91.8435 46.1329 89.2331 49.018C88.1135 50.2555 86.6794 52.8138 86.0463 54.703C84.0144 60.7669 82.6253 61.5943 75.4429 61.0177L69.0602 60.5054L68.5187 63.8867C67.4414 70.6154 65.9061 88.0871 66.353 88.534C66.6047 88.7858 71.2229 88.5042 76.6155 87.908C82.0082 87.3119 91.2931 86.5227 97.2489 86.1543C107.511 85.5195 108.126 85.3575 109.001 83.0568C109.508 81.7216 109.628 79.4229 109.267 77.9486C108.69 75.5967 109.07 75.8149 112.362 79.7282C119.917 88.7103 122.269 92.9262 122.713 98.2855C123.035 102.163 122.728 103.816 121.458 105.088C118.727 107.819 110.535 107.233 99.8026 103.538C90.6801 100.398 89.9493 100.308 73.4202 100.288C58.9781 100.271 55.2156 100.598 48.4142 102.462C38.1513 105.274 30.2787 108.898 23.7044 113.838C20.8277 115.999 17.9363 117.768 17.2789 117.768C16.6216 117.768 15.4845 117.957 14.752 118.189C14.0195 118.42 12.7453 118.363 11.9203 118.061ZM53.9066 75.518C53.8915 68.8338 53.1493 64.768 51.9429 64.768C50.4851 64.768 39.9206 72.2143 39.9348 73.2318C39.9537 74.6775 50.0373 81.6782 52.1703 81.7275C53.656 81.7619 53.9182 80.8242 53.9066 75.518Z" />
</svg>
