<svg width="97" height="112" viewBox="0 0 97 112"  xmlns="http://www.w3.org/2000/svg">
<path d="M57.0964 108.579C54.2489 105.732 54.0247 105.684 46.0727 106.229C39.8152 106.658 37.5423 107.229 36.1515 108.722C32.7623 112.36 28.793 107.656 26.67 97.4858C26.2681 95.5608 25.0245 92.3323 23.9063 90.3112C21.2544 85.5181 21.8674 80.969 26.4387 71.5184C29.3836 65.4304 30.0604 64.6069 30.6341 66.4143C31.081 67.8224 31.8967 68.3981 32.9875 68.0751C33.9056 67.8034 35.8943 67.2856 37.4068 66.9249L40.1568 66.269V55.2426C40.1568 44.3514 40.1341 44.2454 38.3245 46.601C32.7495 53.8571 27.7562 62.3214 25.5466 68.2608C24.1707 71.9595 22.3091 75.5483 21.4097 76.2358C19.6283 77.5977 0.117633 78.0578 0.208077 76.7358C0.234534 76.3233 4.10395 72.8538 8.80273 69.0259C17.9744 61.5539 36.8505 41.8462 35.8213 40.817C35.217 40.2128 32.3866 42.0105 23.3192 48.7581L18.9817 51.9859L17.0692 49.625C15.9989 48.3037 15.1375 45.6619 15.1129 43.6251C15.0902 41.6235 14.4721 38.3137 13.7425 36.27C12.5 32.7897 12.5304 32.6154 14.2206 33.52C15.2132 34.0512 17.0187 34.4858 18.2329 34.4858C22.3036 34.4858 40.1568 29.0389 40.1568 27.797C40.1568 25.3074 37.7828 21.4864 36.2463 21.503C35.3721 21.5105 31.3943 22.3676 27.4068 23.4033C23.4193 24.439 20.1568 25.1466 20.1568 24.9757C20.1568 24.8049 22.9693 22.8771 26.4068 20.6917C29.8443 18.5063 35.058 14.3255 37.9927 11.401C42.6015 6.80841 43.2775 5.64551 42.9533 2.86797C42.5787 -0.341606 42.5832 -0.345064 45.3177 1.06901C46.8246 1.84827 49.7797 2.48584 51.8847 2.48584C56.9634 2.48584 60.1568 4.8021 60.1568 8.48582C60.1568 12.3519 56.5312 14.6547 43.6568 18.9656C41.9045 19.5524 42.0867 19.8174 45.1271 21.1049C47.0357 21.9132 49.3385 23.2452 50.2443 24.065C51.5683 25.2632 52.7509 25.3574 56.2741 24.5451C64.7465 22.5919 66.8606 23.0564 69.6568 27.4858C71.0456 29.6858 72.6528 31.4859 73.2283 31.4859C73.8039 31.4859 74.0374 31.8699 73.7473 32.3394C73.457 32.8089 69.7181 33.4888 65.4383 33.8502C61.1585 34.2116 56.3381 34.8641 54.7263 35.3L51.7957 36.0926L55.2263 38.485C57.1131 39.8008 61.8068 43.4224 65.6568 46.5331C77.485 56.0898 78.3935 56.337 92.5702 53.856L96.4836 53.1711L93.1532 59.0785C87.917 68.3661 81.9982 76.4859 80.4642 76.4859C78.3874 76.4859 75.0325 72.4889 66.7116 60.1012C62.6052 53.9877 57.2636 47.0416 54.8414 44.6653L50.4373 40.3448L49.7193 52.0042C49.3245 58.417 49.1545 63.8169 49.3418 64.0042C49.5289 64.1913 51.7865 63.8957 54.3583 63.3473C61.8684 61.7455 65.389 62.4735 66.2745 65.8112C66.6868 67.3652 69.079 70.8334 71.5905 73.5184C76.6227 78.8983 77.1355 81.221 74.1863 85.2764C73.1026 86.7666 70.5849 92.7108 68.5914 98.4858C66.5979 104.261 64.5046 109.548 63.9394 110.236C62.3115 112.216 60.2292 111.712 57.0964 108.579ZM46.7843 97.947C50.1545 97.5665 53.4292 96.9355 54.0614 96.5448C55.4761 95.6705 59.614 74.1197 58.783 71.9542C58.1298 70.2519 58.2596 70.2425 41.4068 73.2189C31.753 74.924 31.4308 75.1797 32.7495 80.092C33.2531 81.9684 33.7699 82.1178 37.4858 81.4618C48.582 79.5029 51.9419 79.4138 53.5633 81.0352C54.4397 81.9116 55.1568 83.6414 55.1568 84.8793C55.1568 86.9624 54.4567 87.2259 45.7459 88.4219C40.5699 89.1325 35.7746 89.3677 35.0898 88.9445C34.1398 88.3574 33.9976 89.1009 34.4897 92.0804C34.8446 94.2284 35.1398 96.8296 35.1458 97.8608C35.1534 99.3711 35.6917 99.6291 37.9068 99.1873C39.4193 98.8857 43.4142 98.3275 46.7843 97.947Z" />
</svg>
