<svg width="83" height="103" viewBox="0 0 83 103"  xmlns="http://www.w3.org/2000/svg">
<path d="M4.54524 102.212C4.54584 102.127 7.46105 100.693 11.0235 99.0255C18.4761 95.538 28.6844 89.0604 36.3744 82.9392C41.6098 78.7719 41.6707 78.6627 39.8744 76.6671C37.827 74.3924 28.6684 68.8919 26.9042 68.8774C26.276 68.8721 22.1612 70.893 17.7601 73.368C13.359 75.843 9.47086 77.868 9.11982 77.868C8.7687 77.868 10.2404 75.5055 12.3902 72.618C18.3439 64.621 21.0538 58.3541 19.8804 55.2961C19.4525 54.181 18.4076 54.6641 15.4309 57.3534C13.2912 59.2865 11.0714 60.868 10.498 60.868C8.65178 60.868 4.64603 56.1264 4.02355 53.2042C3.69132 51.6443 2.80922 48.6805 2.06337 46.618C1.31751 44.5555 0.783543 42.8748 0.876784 42.8831C0.970138 42.8914 2.83705 43.5213 5.02569 44.283C8.72978 45.5721 15.1915 45.4088 16.7076 43.9878C17.0712 43.6469 17.0224 39.9215 16.5995 35.709C16.008 29.8223 15.1343 26.9193 12.8234 23.1637L9.81694 18.2775L17.7277 20.9885C28.8014 24.7834 30.6861 26.8464 26.9007 31.0292C25.9955 32.0294 25.036 35.1258 24.7684 37.9101L24.282 42.9725L27.1643 42.32C28.7495 41.9611 31.7756 41.2341 33.8889 40.7043L37.7313 39.7412L37.3889 25.4563C37.0306 10.5144 36.4047 8.29465 32.375 7.67807C28.9115 7.14811 38.8214 0.868042 43.1212 0.868042C47.2557 0.868042 51.9839 4.85108 51.1539 7.63468C49.7248 12.4269 48.3341 18.989 48.6753 19.3302C48.8874 19.5422 52.2077 19.1203 56.0537 18.3926C59.8997 17.6649 63.2189 17.2341 63.4296 17.4352C64.0274 18.0059 57.4744 25.2362 55.216 26.4976C53.9855 27.185 52.1165 27.3183 50.4424 26.8382C48.3952 26.251 47.5445 26.4308 47.1187 27.5404C46.266 29.7626 46.4271 37.868 47.324 37.868C47.7516 37.868 55.6976 36.2792 64.9818 34.3373C74.266 32.3954 82.2522 30.9366 82.729 31.0955C83.2057 31.2545 82.253 32.9558 80.6118 34.8763C78.9329 36.8408 77.6099 39.5608 77.5871 41.095C77.5606 42.8844 76.6715 44.3952 75.0014 45.4895C72.6024 47.0614 72.0071 47.034 64.6311 45.0126C56.6336 42.8208 50.9781 42.4056 44.2557 43.5165C40.7087 44.1027 40.606 44.2145 42.6593 45.2555C47.4646 47.6918 48.6396 50.8087 48.8496 61.6769C48.9577 67.2811 49.1489 71.8668 49.2744 71.8672C50.0432 71.8699 60.5464 58.2543 60.5464 57.255C60.5464 56.5819 58.9714 55.0577 57.0464 53.868C55.1215 52.6783 53.5465 51.3469 53.5465 50.9093C53.5465 49.9991 60.5292 50.5293 68.4433 52.0404C75.3839 53.3656 78.5464 56.3691 78.5464 61.6355C78.5464 64.5575 77.8658 66.146 75.7417 68.1809C74.1991 69.6588 72.5116 70.8539 71.9917 70.8367C71.4718 70.8193 69.6964 68.5869 68.0464 65.8754L65.0465 60.9453L54.5464 74.3528C47.7787 82.9944 43.1328 90.0009 41.476 94.0641L38.9056 100.368L32.476 101.053C26.6648 101.672 4.54252 102.59 4.54524 102.212ZM38.5464 58.5592C38.5464 46.2163 37.639 44.2529 32.3898 45.2376C29.0957 45.8556 20.5463 50.6581 20.5463 51.8906C20.5463 52.2072 22.167 53.0523 24.1478 53.7686C31.2172 56.3249 33.6727 61.6338 29.5227 65.3894C26.9287 67.737 28.4376 68.8316 34.2964 68.8527L38.5464 68.8682V58.5592Z" />
</svg>
