<svg width="125" height="113" viewBox="0 0 125 113"  xmlns="http://www.w3.org/2000/svg">
<path d="M9.02612 110.946C7.50195 109.747 5.98062 107.146 5.37076 104.696C4.79619 102.388 3.43535 98.5755 2.34666 96.2232C1.25793 93.871 0.366964 91.846 0.366699 91.7232C0.366435 91.6004 4.47644 91.6596 9.50012 91.8545C17.9638 92.183 46.884 88.8035 50.0211 87.1194C51.735 86.1994 39.8775 70.41 37.7801 70.8195C36.8802 70.9952 35.0692 70.1292 33.7556 68.8951C31.8247 67.0812 31.3672 65.6436 31.3672 61.3908C31.3672 58.4975 30.8863 54.8634 30.2985 53.3151L29.2299 50.5L32.1032 53.25C35.435 56.4387 36.9894 56.5647 46.4488 54.4132L53.4252 52.8265L52.8065 49.1632C51.4963 41.4069 49.0996 34.1972 46.9244 31.4693L44.6576 28.6264L41.8775 30.8132C36.031 35.4121 29.5276 32.2893 27.4078 23.8649C26.8037 21.4642 25.5777 18.1876 24.6835 16.5836C23.1262 13.7905 23.1381 13.7001 24.9624 14.4444C26.0101 14.8719 29.8604 15.4541 33.5188 15.7382C42.1667 16.4096 50.1455 14.016 65.9069 6.02175C72.8831 2.48338 79.0659 0 80.899 0C84.4513 0 87.8597 3.05166 88.874 7.14042C89.2342 8.59266 90.8427 11.0393 92.4482 12.5775C94.0537 14.1157 95.3672 15.6819 95.3672 16.058C95.3672 16.434 91.6548 17.0578 87.1173 17.4441C71.124 18.8056 48.3673 24.418 48.3673 27.0009C48.3673 27.7832 52.8362 28.8746 62.5158 30.4563C64.5226 30.7843 67.3924 32.0185 68.8933 33.1992C71.5146 35.2611 71.5978 35.6092 71.002 42.0197L70.3818 48.6935L80.6245 46.394C93.5586 43.4902 93.243 43.4765 90.0544 46.8047C88.5765 48.3473 87.3672 50.1697 87.3672 50.8544C87.3672 51.5391 86.6807 53.427 85.8415 55.0496C84.3624 57.9101 84.0924 58 76.9775 58H69.6391L69.0573 62.25C68.7371 64.5875 68.1591 70.6955 67.7724 75.8233L67.0692 85.1465L70.4682 84.5637C76.0823 83.6011 95.4702 82.0017 101.536 82.0008C109.49 81.9996 110.367 81.4921 110.367 76.893C110.367 73.4322 110.096 73 107.926 73C106.584 73 105.229 72.5846 104.915 72.0769C104.601 71.5692 102.968 70.8516 101.286 70.4823C98.4276 69.8543 98.3335 69.6948 99.8392 68.031C101.332 66.3816 101.255 66.0202 98.7893 63.0898C97.3262 61.3509 94.7478 59.2139 93.0595 58.3409L89.99 56.7536L92.7767 55.2934C96.4683 53.3592 103.383 53.4394 107.293 55.4619C109.026 56.3575 111.19 58.6585 112.104 60.575C113.519 63.5423 113.587 64.7287 112.561 68.5664L111.355 73.0733L116.364 79.0923C119.119 82.4027 122.047 86.4139 122.87 88.006C124.895 91.9215 124.809 98.3891 122.71 100.128C120.246 102.168 112.184 101.612 101.339 98.6558C89.4225 95.407 73.869 93.6161 65.3674 94.5138C51.6485 95.9623 30.2243 103.06 24.8878 107.924C21.9494 110.603 16.8316 113 14.0519 113C12.7238 113 10.462 112.076 9.02612 110.946ZM54.3672 70C54.3672 62.8207 54.1733 62 52.4764 62C50.4658 62 41.2207 67.9395 40.6727 69.5832C40.2963 70.7124 50.9754 78 53.0065 78C54.0407 78 54.3672 76.0804 54.3672 70Z" />
</svg>
