<svg width="114" height="110" viewBox="0 0 114 110"  xmlns="http://www.w3.org/2000/svg">
<path d="M9.15572 107.706C8.19885 106.649 7.16709 103.836 6.86295 101.456C6.55869 99.0761 5.71022 95.9392 4.97722 94.4854L3.6445 91.8422L8.23615 93.2241C13.3255 94.7558 15.2247 94.4796 24.3355 90.8832L30.5855 88.416V84.0098V79.6036L23.6104 83.1161C13.6752 88.1194 13.1844 87.9884 13.8622 80.513C14.1673 77.1494 14.9047 73.9094 15.5011 73.313C16.2802 72.5339 16.5855 72.5364 16.5855 73.3221C16.5855 75.5213 19.7702 75.5348 25.1117 73.3584C30.1594 71.3016 30.5828 70.8777 30.5841 67.8791C30.5856 64.2948 29.1512 63.734 26.0266 66.0973C23.5222 67.9916 20.158 68.0239 18.618 66.1684C17.9512 65.3649 17.1652 62.9149 16.8713 60.7238L16.337 56.7401L19.847 57.8173C21.7775 58.4098 25.009 58.5847 27.0283 58.2059C30.5466 57.5458 30.6867 57.3633 30.3925 53.8231C30.0879 50.1569 30.0512 50.1289 25.5854 50.1289C21.292 50.1289 20.9977 49.9402 19.1733 46.018L17.2611 41.9072L8.6733 46.7834L0.0854492 51.6596L8.23529 43.8942C22.7468 30.0673 33.5854 14.7871 33.5854 8.15572V4.78975L37.8355 6.38985C45.4103 9.24173 47.4425 12.7085 44.1651 17.1877C42.8473 18.9888 43.0097 19.2042 46.4152 20.1731L50.0855 21.2174L50.0627 26.8621C50.0363 33.6745 49.0636 34.955 46.4439 31.6289C45.361 30.2539 43.3328 27.8873 41.9368 26.3699L39.3986 23.6109L31.7318 30.3699C27.5151 34.0873 22.7204 38.1047 21.0768 39.2975L18.0884 41.4661L20.9682 42.1889C24.5561 43.0894 32.1454 41.3871 39.7421 37.9779C45.2571 35.5029 45.6714 35.4554 48.0655 37.0241C49.4513 37.9321 50.5851 39.2781 50.5851 40.0153C50.5851 41.1653 43.7341 44.7429 37.0851 47.0649C35.2262 47.7141 35.2085 47.8327 36.8349 48.7458C37.7974 49.2861 38.5849 50.6584 38.5849 51.7952C38.5849 53.4824 38.9983 53.7317 40.8349 53.152C46.0003 51.5218 48.2254 51.4907 49.5037 53.031C51.5593 55.5078 50.1417 57.2819 44.4028 59.4152C40.0393 61.0373 39.0281 61.862 38.7685 64.0105C38.4079 66.9954 39.7674 67.3111 43.5849 65.1289C47.2142 63.0542 48.5849 63.3087 48.5849 66.0574C48.5849 68.9827 46.6757 71.0317 41.4806 73.6821C37.9385 75.4891 37.5849 76.0308 37.5849 79.6492C37.5849 81.838 37.9224 83.6245 38.3349 83.6192C38.7474 83.6142 41.0607 82.0388 43.4756 80.1192C48.6372 76.0161 49.0537 75.8861 47.4483 78.8789C46.7845 80.1164 46.3388 83.0287 46.4577 85.3508L46.6743 89.5727L37.8797 93.8829C33.0426 96.2535 25.67 100.766 21.496 103.911C17.3221 107.056 13.2294 109.629 12.401 109.629C11.5728 109.629 10.1126 108.764 9.15572 107.706ZM55.1224 100.441C54.2751 97.5882 52.5702 94.175 51.3337 92.8563L49.0855 90.4588L51.3778 88.5992C53.2117 87.1114 53.8596 85.1785 54.6175 78.9341C55.9081 68.3007 57.0456 30.8949 56.2133 26.4585C55.8429 24.4837 53.7217 20.0551 51.4996 16.6172C48.5901 12.1156 47.9668 10.5668 49.2725 11.0826C56.1631 13.8048 59.3541 13.0106 72.4816 5.30628C84.4647 -1.72649 87.7407 -1.21645 89.4529 7.94851C89.9433 10.5734 90.5112 12.8385 90.715 12.982C95.4743 16.3339 99.5855 20.0767 99.5855 21.0577C99.5855 21.7513 98.6949 23.1247 97.6064 24.1097C96.5179 25.0948 94.7091 28.427 93.5867 31.5147C87.958 46.9995 89.3944 45.2049 80.2766 48.1447C75.7715 49.5974 71.4854 50.9758 70.7519 51.2079C69.8071 51.507 70.3375 52.7903 72.5715 55.611L75.7244 59.5919L80.5331 57.1552C86.6206 54.0704 90.9791 49.7341 92.1718 45.5757L93.1018 42.3327L97.8436 48.7295C100.452 52.2478 102.585 55.7124 102.585 56.4286C102.585 58.2194 97.4257 60.18 89.0594 61.5681C85.1951 62.2093 81.4558 63.0908 80.75 63.527C78.8792 64.6832 93.7225 78.2964 98.2028 79.5335C101.509 80.4463 107.373 79.485 112.959 77.115C114.391 76.5073 113.61 78.6989 109.641 86.4256C103.867 97.6656 101.111 101.629 99.0686 101.629C96.3035 101.629 92.6632 96.9326 89.3147 89.0459C86.1162 81.5125 79.7734 70.615 78.6015 70.6395C78.3176 70.6455 74.9448 76.5159 71.1062 83.685C62.5762 99.6158 58.8815 105.629 57.6224 105.629C57.0947 105.629 55.9697 103.294 55.1224 100.441ZM70.2245 74.0441C73.723 70.9726 76.5855 68.0335 76.5855 67.5127C76.5855 65.5717 73.207 65.3827 67.9772 67.0313L62.5854 68.7309V74.1798C62.5854 77.1767 62.873 79.6287 63.2245 79.6287C63.576 79.6287 66.7261 77.1156 70.2245 74.0441ZM68.8829 62.7057C71.2492 61.8061 71.2818 61.6505 70.0895 56.9549C69.4156 54.3005 68.3514 52.1737 67.7248 52.2287C67.0981 52.2837 65.6855 52.3962 64.5855 52.4787C62.8048 52.6123 62.5854 53.3454 62.5854 59.1639C62.5854 65.3133 62.6996 65.638 64.5182 64.6647C65.5812 64.0958 67.5452 63.2143 68.8829 62.7057ZM76.0855 39.8598C81.7601 37.6642 82.5855 36.805 82.5855 33.0937V29.8036L75.0217 32.7162C70.8617 34.3181 66.1367 35.6287 64.5218 35.6287C61.7137 35.6287 61.5855 35.8228 61.5855 40.0748V44.5209L66.8354 42.9642C69.723 42.108 73.8855 40.711 76.0855 39.8598ZM72.583 25.4794C77.8094 23.7474 82.4161 21.8349 82.8202 21.2294C83.8011 19.7597 83.7934 12.6287 82.8126 12.6287C82.3866 12.6287 77.3241 14.5884 71.5626 16.9836C65.8011 19.3788 60.3102 21.6107 59.3605 21.9433C57.725 22.5161 57.725 22.7081 59.3605 25.582C60.3102 27.2507 61.536 28.6189 62.0847 28.6224C62.6333 28.6259 67.3567 27.2115 72.583 25.4794Z" />
</svg>
