<svg width="60" height="99" viewBox="0 0 60 99"  xmlns="http://www.w3.org/2000/svg">
<path d="M46.8909 96.3966C45.4979 95.1765 43.248 93.4183 41.891 92.4895C39.4399 90.8119 39.4484 90.8074 43.1872 91.7903C45.2571 92.3345 47.4036 92.4995 47.9575 92.1572C49.0388 91.489 48.2343 79.7948 46.8491 76.0434C46.153 74.1581 45.497 73.969 41.2421 74.4263C38.5919 74.7112 33.8247 75.7406 30.6482 76.7142C25.5588 78.274 24.6975 78.3092 23.3982 77.0098C21.2861 74.8977 21.5774 73.8959 24.1738 74.3425C25.4113 74.5553 30.6987 73.9076 35.9237 72.9031C43.6127 71.4248 45.3972 70.7527 45.2848 69.3774C45.117 67.3254 47.7085 67.1507 50.4512 69.0289C51.5361 69.7719 53.6611 70.6805 55.1736 71.048C58.7437 71.9156 59.0907 75.6781 55.6006 75.6781H53.2776L54.5094 83.4281C55.915 92.2716 55.4458 96.3283 52.8573 97.7136C50.3569 99.0518 49.776 98.9236 46.8909 96.3966ZM10.082 92.8121C8.58851 87.8274 8.62292 87.1838 10.3083 88.5827C11.8814 89.8882 12.3399 88.6479 13.4144 80.1781L14.0488 75.1782L8.05889 81.6782C3.17513 86.9778 1.82889 87.9422 0.768809 86.9006C-0.11904 86.0283 -0.221576 85.1725 0.445851 84.2022C0.983489 83.4207 2.68482 81.0119 4.22653 78.8493C5.76828 76.6867 7.10207 73.958 7.19036 72.7856C7.39408 70.0803 9.31893 70.6238 9.74311 73.5065C10.1131 76.0206 10.8402 76.1909 13.3547 74.3522C14.9124 73.2132 15.186 71.3806 15.2957 61.3575C15.4102 50.8829 15.6057 49.6884 17.2048 49.6836C18.1846 49.6807 19.261 50.3941 19.5968 51.2692C19.9324 52.1442 19.4612 59.6818 18.5495 68.0192C17.6376 76.3567 16.6303 85.6531 16.3111 88.6782C15.3918 97.3906 12.1069 99.5706 10.082 92.8121ZM33.1783 88.4615C32.6032 87.7557 31.4335 85.4907 30.5792 83.4281C29.0342 79.6985 29.0389 79.6782 31.4516 79.6782C34.3382 79.6782 37.2259 83.5547 36.7509 86.7921C36.3617 89.4443 34.6361 90.2507 33.1783 88.4615ZM32.9239 70.2825C32.9239 70.0648 35.1824 68.4373 37.9429 66.6659C43.8395 62.8821 47.0448 59.157 46.2304 57.0346C45.7786 55.8572 46.2917 55.5924 48.5278 55.8485C51.9697 56.2426 52.8624 58.9834 50.4261 61.6755C49.506 62.6923 45.4955 65.1339 41.5138 67.1012C34.5612 70.5366 32.9239 71.143 32.9239 70.2825ZM25.0649 64.3283C23.1781 62.3199 23.0661 61.8051 24.2937 60.7863C25.4421 59.8333 26.251 60.0768 28.327 62.0008C29.7553 63.3245 30.9238 64.9184 30.9238 65.5428C30.9238 67.5127 27.3631 66.7745 25.0649 64.3283ZM8.32786 61.178C8.27495 58.7031 8.40346 56.6782 8.61322 56.6782C9.86511 56.6782 13.924 60.1174 13.924 61.1782C13.924 62.194 9.88515 65.679 8.70919 65.6779C8.55233 65.6778 8.38051 63.6528 8.32786 61.178ZM34.4404 61.6964C32.1901 59.2099 32.5888 58.6944 36.2229 59.3925C38.0455 59.7425 38.9175 60.4677 38.7228 61.4713C38.2624 63.844 36.4692 63.9382 34.4404 61.6964ZM31.9238 55.3443C31.9238 55.0865 33.5058 53.9424 35.4392 52.8016C37.3727 51.6608 39.3934 49.5733 39.9297 48.1627C40.7379 46.0369 41.2287 45.771 42.7967 46.6101C45.2534 47.925 46.2431 50.5885 44.8834 52.2267C44.2923 52.939 41.9221 53.8149 39.6162 54.1731C37.3104 54.5314 34.6363 55.0467 33.6738 55.3186C32.7113 55.5903 31.9238 55.6013 31.9238 55.3443ZM15.6682 43.0892C14.331 41.7521 14.8839 40.6782 16.9095 40.6782C21.0919 40.6782 27.925 38.245 28.0232 36.7207C28.5342 28.7878 28.4214 28.178 26.4239 28.0762C22.6266 27.8827 21.9239 27.6747 21.9239 26.7446C21.9239 26.2311 23.1576 25.6686 24.6654 25.4946C27.9521 25.1152 29.2267 21.6782 26.0806 21.6782C24.9861 21.6782 23.9185 21.1621 23.7083 20.5313C23.483 19.8552 21.3416 20.899 18.4918 23.0745C8.92004 30.3808 6.97889 30.3737 14.5153 23.0594C23.1984 14.6328 27.4081 7.84892 26.5662 3.63936C26.0746 1.18134 26.2998 0.67749 27.8899 0.67749C30.0277 0.67749 30.8365 1.62754 31.4616 4.87329C31.6951 6.08516 32.4568 7.39645 33.1548 7.78717C33.8527 8.1779 39.022 11.8607 44.6421 15.9712C50.2623 20.0816 56.089 23.7531 57.5902 24.1299C61.4054 25.0874 58.7502 26.642 53.2651 26.6622C49.3436 26.6773 48.8234 26.3175 44.1453 20.3646C41.4167 16.8926 37.4053 12.6428 35.2309 10.9207L31.2775 7.7896L27.6924 13.2335C23.8071 19.1333 24.2963 19.8022 30.578 17.1775C35.1526 15.2661 37.9239 15.2661 37.9239 17.1775C37.9239 18.0025 37.5032 18.6774 36.989 18.6774C36.4748 18.6774 34.9083 19.1131 33.508 19.6455C30.3726 20.8376 31.0514 23.6775 34.4717 23.6775C38.0269 23.6775 38.2921 25.3535 34.9227 26.5281C32.1614 27.4907 31.9238 27.9478 31.9238 32.2998V37.026L34.4526 34.6504C35.8849 33.3048 36.8606 31.3973 36.7027 30.2508C36.3727 27.8561 39.2921 26.9083 41.4589 28.7066C43.2373 30.1826 42.2477 32.169 38.5138 34.6184L35.7578 36.4263L41.4029 37.1316C44.922 37.5713 47.2594 38.388 47.6094 39.3003C48.5121 41.6526 47.4633 41.8975 40.8052 40.8898C36.0318 40.1673 32.9405 40.2935 27.9706 41.4139C17.8176 43.7026 16.4663 43.8873 15.6682 43.0892ZM22.29 37.871C20.9696 37.0135 18.9239 33.2199 18.9239 31.6289C18.9239 30.8531 19.8087 31.028 21.5045 32.1391C22.924 33.0692 24.6732 33.6046 25.3916 33.329C26.2705 32.9918 26.5357 33.4465 26.2026 34.7202C25.5555 37.1949 23.6329 38.7432 22.29 37.871Z" />
</svg>
