<svg width="48" height="90" viewBox="0 0 48 90"  xmlns="http://www.w3.org/2000/svg">
<path d="M9.24047 86.5886C12.8457 83.977 15.4424 80.8512 15.4424 79.123C15.4424 78.0244 12.5537 78.5807 7.89997 80.5755C4.3045 82.1167 2.86663 82.3242 1.81706 81.4532C-0.469669 79.5553 0.160611 79.0729 7.34632 77.2218L14.2502 75.4434L14.602 71.0178C15.0787 65.0236 14.765 64.5072 11.6382 66.1385C10.1555 66.9121 8.04239 67.5122 6.9424 67.4722C5.4897 67.4193 5.35275 67.2416 6.44227 66.8227C12.1163 64.6415 18.4425 56.0824 18.4425 50.5866C18.4425 48.3107 18.4963 48.2963 20.4423 50.0573C21.5423 51.0528 22.4423 53.0778 22.4423 54.5573C22.4423 56.0368 21.5423 58.0618 20.4423 59.0573C18.6844 60.6481 17.5678 65.5573 18.9638 65.5573C19.2507 65.5573 21.1632 64.4498 23.2139 63.0962C28.2437 59.7762 35.4419 57.3423 38.1925 58.0316C41.6058 58.8869 40.9128 60.3547 35.9599 62.761C31.8583 64.7537 31.6072 65.0818 33.0021 66.6232C34.3895 68.1563 34.2305 68.497 31.2343 70.4156L27.9425 72.5236L36.5373 72.5387C43.658 72.5538 45.4235 72.8774 46.8295 74.4308C48.4813 76.256 48.172 76.3026 35.2344 76.1808C27.9238 76.112 20.6403 76.4178 19.0487 76.8607C16.1597 77.6645 16.1584 77.6683 18.3022 79.1698C21.3841 81.3285 19.5591 84.1272 13.1127 87.1287C6.05322 90.4156 4.29481 90.1713 9.24047 86.5886ZM23.6485 73.6691C24.9335 73.1805 26.5905 71.493 27.3305 69.9191C28.0705 68.3451 29.0772 66.2698 29.5677 65.3072C30.6842 63.1161 29.6685 63.0828 24.5221 65.1421C20.5343 66.7377 17.4424 70.1791 17.4424 73.0221C17.4424 74.7382 20.106 75.0159 23.6485 73.6691ZM33.8748 83.945C30.612 80.8582 28.4444 78.1409 29.0578 77.9065C30.5189 77.3483 40.4471 81.2692 42.6924 83.2912C45.6628 85.9662 44.4311 89.5573 40.5431 89.5573C40.1384 89.5573 37.1376 87.0318 33.8748 83.945ZM13.8858 45.1555C23.9006 40.8888 32.8545 33.9458 32.3375 30.8478C31.9928 28.7833 32.6483 27.7845 35.0718 26.6803C38.0635 25.3172 37.6489 24.5257 33.1207 22.9544L29.9425 21.8517L33.1569 21.1328C37.2176 20.2248 41.9425 22.3224 41.9425 25.0332C41.9425 26.4669 40.9341 27.2207 38.1293 27.884C35.3707 28.5364 34.473 29.1947 34.8835 30.2645C36.6361 34.8315 36.5309 36.3969 34.3338 38.4439C31.5344 41.052 18.1905 46.2902 12.3 47.0934L7.94241 47.6876L13.8858 45.1555ZM21.1292 32.0265C18.7537 27.045 16.7402 26.6028 13.7616 30.4087C11.1922 33.6919 8.44253 34.5838 8.44253 32.1342C8.44253 31.3515 9.78651 29.3671 11.4292 27.7243C14.6947 24.4589 17.1214 24.4399 20.0328 27.6571C22.6909 30.5943 23.5852 29.9411 23.2499 25.3074C22.9612 21.3168 22.7685 21.0698 20.0905 21.2597C18.5218 21.3708 15.4703 22.3834 13.3095 23.5096C8.83217 25.8434 6.36934 26.0843 4.64248 24.3574C2.87751 22.5924 3.17973 21.6759 5.3403 22.2409C9.54559 23.3406 14.1281 17.2933 11.4943 14.1198C10.2404 12.609 11.1212 11.5574 13.6405 11.5574C16.3167 11.5574 16.9354 14.1561 14.9725 17.1519C14.0431 18.5703 13.4672 19.9156 13.6929 20.1412C13.9185 20.3669 16.1127 19.8668 18.5686 19.03L23.0342 17.5085L22.6208 10.783C22.3933 7.08391 21.7616 3.20892 21.2171 2.17193C20.3258 0.474624 20.5113 0.357844 23.0748 1.00127C26.5058 1.8624 27.6282 3.34847 26.9706 6.15896C26.2868 9.08148 27.0496 9.50464 31.0233 8.40744C35.1089 7.27933 37.0901 8.07225 35.3687 10.1465C34.7246 10.9225 32.4528 11.5574 30.3202 11.5574C26.8914 11.5574 26.4426 11.8359 26.4426 13.9628C26.4426 16.3451 26.5184 16.3631 34.3011 15.8296C39.8422 15.4498 42.3784 15.6448 42.9012 16.4907C44.0399 18.3332 43.1534 18.6655 36.2939 18.9678C32.8006 19.1216 28.4799 19.3173 26.6924 19.4025L23.4425 19.5574L25.4426 21.5574C27.4955 23.6103 27.9162 26.9388 26.8174 32.4324C25.9661 36.6892 23.2606 36.496 21.1292 32.0265Z" />
</svg>
