<svg width="63" height="101" viewBox="0 0 63 101"  xmlns="http://www.w3.org/2000/svg">
<path d="M35.5537 99.2208C35.5537 98.7516 33.4162 98.5622 30.8037 98.8001C27.5613 99.0952 25.4189 98.7552 24.0536 97.7276C22.0829 96.2446 22.0968 96.1775 24.9925 93.1466C27.8539 90.1516 27.8802 90.0319 25.9925 88.6041C24.9262 87.7975 23.5464 87.1233 22.9263 87.1058C22.3061 87.0869 21.2275 86.3857 20.5295 85.5446C18.7895 83.4481 22.1662 79.9171 28.5289 77.18C32.8441 75.3237 34.4763 73.3263 34.5401 69.824C34.5627 68.5817 30.2242 69.0475 27.5538 70.574C23.8826 72.6726 19.5537 72.5103 19.5537 70.2739C19.5537 67.9733 21.4234 66.0867 23.0753 66.7206C23.7781 66.9904 26.7282 66.5055 29.6309 65.6436C34.363 64.2383 35.1487 64.2336 37.2312 65.5983C39.895 67.3437 39.9503 67.6378 38.4352 71.9842C37.4544 74.7975 37.5884 75.4819 39.521 77.5391C41.2151 79.3424 41.4966 80.3121 40.7374 81.7297C39.253 84.5012 31.9563 90.9705 29.0823 92.0632C26.2577 93.1371 25.5583 95.5012 28.3037 94.6947C39.0774 91.5299 47.5728 94.4271 39.6033 98.5483C36.2173 100.299 35.5537 100.41 35.5537 99.2208ZM31.435 83.6312C32.7943 78.233 32.7987 78.074 31.5885 78.074C30.4004 78.074 23.5537 83.997 23.5537 85.0248C23.5537 85.8522 27.4231 87.9009 29.185 88.0064C29.8071 88.0442 30.8197 86.0747 31.435 83.6312ZM36.9795 82.4068C37.3314 81.4899 37.1544 80.2748 36.5865 79.7068C35.8761 78.9964 35.5537 79.023 35.5537 79.7922C35.5537 80.4072 35.2805 81.6222 34.9468 82.4922C34.613 83.3622 34.79 84.074 35.3398 84.074C35.8898 84.074 36.6277 83.3238 36.9795 82.4068ZM32.0249 58.2286C32.4455 57.4887 32.2177 55.8146 31.5186 54.5084C30.412 52.4407 30.6556 51.1012 33.4007 44.1544C37.0878 34.8237 37.2729 33.074 34.5728 33.074C33.2255 33.074 32.3978 33.9536 31.9852 35.824C30.3702 43.1465 29.7126 43.6301 29.6057 37.574L29.5001 31.574L26.5538 35.0739C23.2387 39.0121 22.8654 40.5959 25.0539 41.4356C27.0496 42.2015 26.9839 47.3651 24.9233 51.7074C22.8768 56.02 20.2402 57.606 18.5343 55.5505C17.3667 54.1436 17.4876 52.1699 19.1465 45.5603C19.6738 43.4593 19.5089 42.9216 18.4448 43.2738C17.6796 43.5271 16.3766 46.3925 15.5488 49.6414C14.5138 53.7035 13.4986 55.6536 12.2987 55.8846C9.71168 56.3828 10.0487 52.0041 13.0537 46.074C14.4287 43.3606 15.5538 40.8746 15.5538 40.5496C15.5538 40.2245 13.3447 41.2004 10.6446 42.7182C6.1808 45.2275 5.4777 45.3563 2.89459 44.1381L0.0537109 42.7984L2.55363 42.0189C3.92866 41.5902 8.62429 39.6521 12.9884 37.7119C20.586 34.3341 25.332 33.8174 20.7371 36.8683C19.5363 37.6656 18.5536 38.9604 18.5536 39.7456C18.5536 42.356 21.3134 39.757 25.643 33.0655L29.8443 26.574L29.9052 15.574C29.9437 8.58137 29.5138 3.75424 28.7247 2.32395C27.5882 0.26358 27.6913 0.0739746 29.9474 0.0739746C33.7554 0.0739746 35.8346 2.76378 35.0909 6.72783L34.4632 10.074H39.8174C45.2783 10.074 49.1438 11.8045 48.4346 13.9319C48.2177 14.5828 44.6683 17.708 40.5471 20.8767C36.1808 24.2339 32.9277 27.5088 32.7516 28.7247C32.4881 30.5438 32.9367 30.7962 36.2515 30.6927C39.509 30.591 40.1009 30.9063 40.3824 32.8925C40.563 34.1676 39.1007 38.6018 37.1325 42.7463C33.0464 51.3503 32.9865 51.6423 35.1426 52.4697C37.0881 53.2163 41.1063 50.1795 44.5171 45.3846L47.054 41.8187L44.7672 40.3L42.4802 38.7813L44.6881 36.4312C46.6581 34.3342 46.752 33.8128 45.561 31.5874C44.3976 29.4135 44.4576 28.8379 46.0281 27.1024C47.5029 25.4728 47.6012 24.8358 46.5695 23.5927C45.5269 22.3364 45.6007 22.074 46.9972 22.074C49.1246 22.074 52.5539 23.8723 52.5539 24.9879C52.5539 25.4518 51.1701 26.4046 49.4787 27.1052L46.4034 28.3789L49.1652 30.5811L51.9272 32.7834L49.2404 34.5437C45.9841 36.6773 45.906 37.3072 48.7391 38.5869C52.3554 40.2204 51.955 41.7676 46.3801 47.7032L41.0539 53.3742L46.2752 52.7747C54.7207 51.8048 55.71 50.9027 55.0474 44.774C54.5664 40.3244 54.6704 39.8488 55.7694 41.4783C56.4758 42.5257 58.3547 44.9074 59.9448 46.771C65.7559 53.5816 59.9481 57.0739 42.811 57.0739C37.1102 57.0739 33.474 57.5195 32.6072 58.324C31.5221 59.3312 31.4088 59.3125 32.0249 58.2286ZM22.9971 49.8514C24.9352 47.0844 25.0329 43.0739 23.1623 43.0739C22.3969 43.0739 21.4755 44.3114 21.1147 45.8239C20.7541 47.3364 20.2248 49.3615 19.9389 50.324C19.204 52.7977 21.1433 52.498 22.9971 49.8514ZM38.5752 12.1421C34.6214 10.2696 33.5728 11.5227 33.6102 18.074L33.6365 22.574L37.6781 18.1024L41.7194 13.6308L38.5752 12.1421ZM14.3884 34.5539C16.8662 32.5051 17.3863 31.5884 16.4124 30.9866C15.3858 30.3521 15.5906 29.5155 17.3578 27.1253C19.6731 23.9936 18.9525 23.2551 15.4242 25.1434C13.5071 26.1695 10.5538 24.9783 10.5538 23.1789C10.5538 22.5739 16.5926 20.7092 22.6854 19.433C26.5613 18.6211 27.4239 20.9287 24.2615 23.649C22.2407 25.3871 21.9777 26.0228 23.1011 26.4539C23.9 26.7604 24.5537 27.5921 24.5537 28.3021C24.5537 29.6735 23.9093 30.1453 16.0537 34.5241L11.0536 37.3111L14.3884 34.5539ZM16.5538 17.5644C16.5538 17.256 17.2926 15.876 18.1956 14.4978C19.5074 12.4958 19.6122 11.4978 18.717 9.53306C17.4378 6.72547 17.5494 6.65926 20.9516 8.20939C24.0013 9.59894 24.9886 11.8452 23.3939 13.7667C22.0544 15.3807 16.5538 18.4347 16.5538 17.5644Z" />
</svg>
