<svg width="92" height="151" viewBox="0 0 92 151"  xmlns="http://www.w3.org/2000/svg">
<path d="M59.8331 142.868C53.9214 138.934 49.2233 135.576 49.3928 135.406C49.5621 135.237 52.0414 135.988 54.902 137.074C61.1495 139.448 64.4003 139.576 66.1102 137.516C67.9004 135.359 66.7408 114.739 64.5167 109.18C62.5083 104.16 60.4552 103.907 51.5815 107.585C48.2815 108.952 44.0065 110.326 42.0815 110.638C39.0199 111.134 38.1498 110.757 35.1354 107.628L31.6892 104.051H36.2069C38.6916 104.051 48.3425 102.253 57.6531 100.057C77.2928 95.4233 85.3883 94.931 89.4467 98.1233C92.4511 100.487 92.7668 102.237 90.5242 104.098C89.2584 105.149 87.2452 105.157 79.7741 104.144C74.0183 103.363 69.6896 103.233 68.1956 103.796C65.817 104.693 65.8196 104.7 69.0298 106.029C70.8008 106.763 72.6432 108.398 73.1239 109.662C74.561 113.442 77.3042 140.051 76.6283 143.654C76.1001 146.469 72.9722 150.087 71.1091 150.037C70.8189 150.029 65.7448 146.803 59.8331 142.868ZM14.9064 141.566C14.0618 139.712 14.0677 136.982 14.9293 130.816C16.1299 122.224 16.4335 115.051 15.5966 115.051C15.3298 115.051 12.9673 116.367 10.3465 117.975C7.72574 119.583 4.23167 121.227 2.58168 121.628C-0.164754 122.296 0.00432308 122.016 4.58171 118.318C13.7297 110.927 22.0979 101.24 22.0662 98.0782C22.0276 94.2231 20.5589 93.9855 15.0192 96.9383C6.02619 101.732 3.88617 101.879 9.65214 97.3079C19.9337 89.1565 24.0199 82.5098 20.8316 79.1229C19.799 78.026 20.3428 77.9098 23.9569 78.4547C29.7083 79.3219 32.0816 80.6789 32.0816 83.1C32.0816 85.175 26.8309 90.5813 23.8316 91.5944C21.1927 92.4858 21.71 93.5146 25.4833 94.8791C33.2745 97.6964 32.7272 101.681 23.6014 108.574C17.3267 113.314 17.1349 113.584 19.0158 115.036C23.1839 118.253 23.802 126.126 20.9208 139.301C20.1208 142.959 19.4406 144.051 17.9605 144.051C16.8842 144.051 15.5405 142.958 14.9064 141.566ZM49.0807 91.1032C51.5551 88.9649 53.3549 87.0006 53.0805 86.7381C52.8061 86.4757 50.9611 85.5896 48.9803 84.769C46.9996 83.9484 44.3226 81.7937 43.0317 79.9807C40.9007 76.988 40.864 76.7591 42.633 77.4954C43.7047 77.9415 49.2107 78.5864 54.8685 78.9286C65.0693 79.5455 67.5961 80.5462 66.456 83.5173C66.2138 84.1487 62.2216 86.374 57.5844 88.4625C52.9472 90.551 48.6318 92.8877 47.9948 93.6553C47.3579 94.4228 46.3294 95.0373 45.7092 95.0209C45.0891 95.0047 46.6062 93.2415 49.0807 91.1032ZM55.5105 68.8952C49.5305 63.2396 49.0844 61.6533 54.397 64.9367C56.2783 66.0994 58.2921 67.0507 58.8721 67.0507C61.2728 67.0507 62.3266 59.6934 61.8892 45.9847C61.353 29.1832 61.0182 28.5518 53.1105 29.4203C50.0696 29.7542 45.3316 30.2588 42.5816 30.5417L37.5815 31.0559L40.8983 29.5232C46.2765 27.038 55.1154 25.0508 60.7916 25.0508C68.4164 25.0508 69.6884 26.6769 70.6877 37.7028C71.9634 51.7786 71.7517 65.1477 70.1945 68.839C67.3038 75.6913 62.715 75.7089 55.5105 68.8952ZM24.8651 69.3007C21.4974 65.4399 20.6878 62.4084 20.6592 53.5508C20.6173 40.572 24.0625 34.7181 36.8812 25.9872C48.9136 17.7918 52.0122 14.362 49.0424 12.5265C48.4708 12.1732 43.6332 14.3424 38.2923 17.3468C20.897 27.1321 20.8012 27.112 32.3388 16.0965C42.4004 6.49008 44.8319 2.82411 41.8316 1.78413C41.1441 1.54582 42.0426 1.02291 43.8282 0.622107C51.4692 -1.09304 58.6334 5.28051 53.1541 8.91867C50.9359 10.3915 50.9552 10.4212 55.1435 11.9783C62.961 14.8848 62.7659 19.0364 54.7151 21.0917C48.1109 22.7776 40.4134 26.0581 35.6357 29.2227C27.3701 34.6976 25.3945 43.5256 28.5212 61.0137C29.255 65.1184 29.6332 69.0559 29.3616 69.7637C28.6682 71.5705 26.665 71.3642 24.8651 69.3007ZM39.4946 68.3624C37.3626 66.062 37.2252 65.5498 38.5423 64.8127C39.3889 64.339 40.0817 62.7017 40.0817 61.1743C40.0817 58.7168 39.7653 58.442 37.3317 58.7873C30.2094 59.7976 29.2169 53.0695 35.8258 48.5786C39.1299 46.3334 39.2859 46.0508 37.2214 46.0508C35.943 46.0508 33.7529 45.1508 32.3545 44.0508L29.8119 42.0508H33.3649C39.8907 42.0508 41.6542 39.8577 39.0464 34.985C38.477 33.9212 38.3645 33.0524 38.7965 33.0545C40.294 33.0616 46.0818 37.0265 46.0818 38.0452C46.0818 38.6543 48.3957 38.964 51.7956 38.8099C56.4915 38.5969 57.5715 38.8526 57.8582 40.2453C58.119 41.5132 57.121 42.2143 53.8944 43.0295C46.8663 44.8051 45.0818 45.8429 45.0818 48.1543C45.0818 50.0115 45.4861 50.2165 48.0818 49.6758C49.7318 49.332 52.4249 48.7709 54.0664 48.4288C56.3335 47.9564 57.2078 48.2155 57.7032 49.5064C58.6343 51.9328 56.1477 53.9861 50.548 55.4146L45.7171 56.6469L45.9759 62.9925C46.1562 67.4098 45.8319 69.5936 44.9083 70.1791C42.8548 71.481 42.1727 71.2522 39.4946 68.3624ZM39.7075 51.5837C40.9293 48.3998 39.4409 47.8388 36.5384 50.3893L33.5817 52.9875L36.3631 53.0191C37.9089 53.0367 39.3946 52.3991 39.7075 51.5837Z" />
</svg>
