<svg width="64" height="88" viewBox="0 0 64 88"  xmlns="http://www.w3.org/2000/svg">
<path d="M26.5419 87.3581C25.9368 86.9141 24.9085 85.5383 24.2568 84.3008C22.8511 81.6315 23.6481 79.809 28.0561 75.6137C29.7681 73.9844 31.1422 71.6468 31.1422 70.3637C31.1422 68.2892 30.6785 68.0508 26.6423 68.0508C22.512 68.0508 22.1421 67.846 22.1421 65.5571C22.1421 63.7716 23.3492 62.1913 26.3922 59.9929C30.6939 56.8851 31.9344 54.0053 32.0846 46.7778L32.142 44.0047L29.392 45.7378C27.8795 46.6909 22.2704 50.7874 16.9272 54.8409C11.5841 58.8945 6.45266 62.0625 5.52407 61.8809C3.09489 61.406 -0.252481 54.5781 0.918228 52.4862C1.76235 50.9778 1.89835 50.9739 2.4615 52.4416C3.56312 55.3124 8.34658 54.185 20.892 48.0977C32.4646 42.4824 35.5867 40.051 31.2239 40.051C24.3938 40.051 24.2979 33.9593 31.014 26.7176L33.6419 23.8842L29.9971 24.5591C25.736 25.3482 22.1419 23.8 22.1419 21.1756C22.1419 20.1828 23.4837 16.9361 25.1237 13.9608C28.2816 8.23164 28.9582 3.31898 26.8919 1.12187C25.8644 0.0294347 26.1237 -0.0937787 28.3477 0.429875C32.6286 1.43776 35.8929 2.83914 36.591 3.96866C37.4468 5.35336 35.7479 8.37435 31.419 13.1659C29.4623 15.3317 28.1438 17.3862 28.4889 17.7314C28.834 18.0764 32.3124 16.8857 36.2187 15.0852C42.1615 12.3459 43.7144 11.9908 45.7314 12.9098C49.2727 14.5233 48.6874 16.5411 43.8573 19.3718C38.7574 22.3605 30.1417 31.2929 30.1417 33.5915C30.1417 34.4859 30.4794 35.0532 30.8919 34.8522C31.3044 34.6512 32.8506 33.8796 34.328 33.1374C35.8054 32.3953 37.718 32.0581 38.5781 32.3882C40.5705 33.1527 40.5532 35.8765 38.5031 44.3263C37.5989 48.0527 37.1088 51.3512 37.4138 51.6562C37.7188 51.9612 39.02 51.5666 40.3052 50.7791C41.5904 49.9916 44.8061 48.1211 47.4509 46.6225C52.756 43.6165 52.6405 41.7587 47.0728 40.5358C42.9696 39.6346 43.4243 38.4214 48.1483 37.6659C53.1109 36.8724 60.4483 38.6271 62.7353 41.1542C64.3278 42.9138 64.3334 43.1821 62.8121 44.8631C61.9102 45.8598 57.9028 47.6809 53.907 48.91C38.9181 53.5206 31.5042 59.8735 39.152 61.5532C43.7576 62.5648 43.9348 64.6548 39.776 68.9137C37.7773 70.9606 36.1421 73.4092 36.1421 74.355C36.1421 75.8204 36.7703 75.9719 40.392 75.3801C48.2911 74.0892 48.6122 74.1945 48.9453 78.1832C49.1675 80.8458 48.6253 82.5402 46.9136 84.5303C44.793 86.9956 43.8002 87.2874 36.1102 87.7053C31.4528 87.9585 27.1471 87.8018 26.5419 87.3581ZM31.1422 61.0508C31.1422 60.5008 30.9437 60.0508 30.7012 60.0508C30.4585 60.0508 29.982 60.5008 29.6421 61.0508C29.3023 61.6008 29.5008 62.0508 30.0832 62.0508C30.6656 62.0508 31.1422 61.6008 31.1422 61.0508Z" />
</svg>
