<svg width="91" height="145" viewBox="0 0 91 145"  xmlns="http://www.w3.org/2000/svg">
<path d="M77.054 144.231C74.8749 143.298 57.155 131.705 57.453 131.407C57.5849 131.275 60.928 132.32 64.8822 133.729C75.227 137.417 75.5825 137.114 74.7545 125.336C74.3807 120.019 73.5783 113.697 72.9711 111.285L71.8671 106.901L66.7547 107.549C59.382 108.484 49.4276 111.017 44.7167 113.156C39.306 115.614 36.9298 115.518 34.3168 112.736C33.1209 111.463 32.1424 110.168 32.1424 109.857C32.1424 109.547 37.2048 106.802 43.3924 103.758C56.7814 97.1712 66.5798 90.9707 68.106 88.1189C69.6603 85.2146 68.2574 85.5251 61.5333 89.5742C51.2395 95.7728 44.0394 96.2675 45.7347 90.6596C47.4532 84.975 55.5693 80.1089 63.3924 80.0728C67.9594 80.0516 68.1424 79.9393 68.1424 77.1578C68.1424 75.4422 67.4986 74.0177 66.5606 73.6578C60.8401 71.4626 50.9774 75.1213 48.8356 80.2333C47.4972 83.4277 34.4036 96.6455 33.4863 95.7282C33.2399 95.4815 34.8613 92.4585 37.0901 89.0103C43.5795 78.9699 42.4953 77.4797 33.8679 84.5823C30.5276 87.3322 28.1283 90.1825 27.7654 91.8323C27.4365 93.3275 26.8656 104.799 26.4971 117.325C25.7874 141.449 25.1382 144.683 21.4508 142.461C19.4353 141.247 10.1422 130.087 10.1422 128.881C10.1422 128.457 11.8032 129.238 13.8332 130.616C18.6018 133.852 18.8095 133.451 20.15 118.437C20.7337 111.9 21.4472 104.751 21.7355 102.551C22.2528 98.6029 22.2379 98.581 20.5985 100.866C19.6848 102.14 16.2307 108.89 12.9224 115.866C5.94087 130.589 4.94467 131.71 1.71374 128.479C-1.12419 125.641 -0.116105 121.133 5.59661 111.116C12.6962 98.6656 14.4039 94.4158 13.9317 90.3712C13.427 86.0484 14.2827 86.1734 16.8736 90.8008C18.2195 93.2047 18.7821 95.538 18.4411 97.3008C18.1486 98.8133 18.1497 100.051 18.4441 100.051C19.8409 100.051 22.9775 93.0208 23.575 88.5508C23.9427 85.8008 24.4917 82.1095 24.7953 80.348C25.2475 77.724 24.8329 76.6602 22.4947 74.4619L19.6423 71.7786L23.6423 72.4877C29.7153 73.5641 30.6298 74.9259 29.4129 81.0803L28.3914 86.2463L34.0169 80.2157C39.9034 73.9053 43.5724 72.1402 46.9954 73.9722C48.648 74.8566 49.7179 74.6 52.6377 72.6185C54.6194 71.2737 57.847 69.6433 59.8101 68.9954C63.9063 67.6436 71.4335 68.2177 73.6417 70.0504C75.2991 71.4259 75.6282 76.7345 74.1963 78.9977C73.5445 80.0279 74.1248 81.406 76.2115 83.7825C79.6425 87.6902 79.7319 88.2073 77.3479 90.3648C75.2733 92.2423 57.99 100.424 47.3862 104.549C43.3952 106.102 40.2669 107.509 40.4343 107.676C40.8775 108.119 68.1724 102.354 68.853 101.673C69.1689 101.358 68.8493 100.402 68.1424 99.5508C66.0732 97.0576 67.7126 96.6801 73.0413 98.423C75.7785 99.3183 79.5085 100.057 81.3302 100.066C85.222 100.083 89.0023 101.832 90.5442 104.329C92.0008 106.688 89.9386 108.015 84.784 108.035C81.2397 108.049 80.9733 108.241 81.5134 110.393C83.1288 116.83 85.124 135.004 84.5791 138.321C83.6505 143.973 81.1117 145.967 77.054 144.231ZM58.8922 88.0212C65.1579 84.4279 65.7838 82.5379 60.3924 83.4915C56.0466 84.2601 51.7849 87.0385 51.3191 89.4068C50.8471 91.8068 52.968 91.4187 58.8922 88.0212ZM41.1423 128.108C41.1423 126.489 42.089 123.561 43.2461 121.6C44.4032 119.638 45.0694 117.303 44.7266 116.41C44.1896 115.011 44.7569 114.86 48.8335 115.319C54.4415 115.952 57.5038 118.851 56.2581 122.35C55.2543 125.169 46.6493 131.051 43.5294 131.051C41.5541 131.051 41.1423 130.543 41.1423 128.108ZM18.9341 64.8279L15.9236 61.6051L18.8381 60.8499C20.4411 60.4345 22.7971 58.9826 24.0739 57.6235L26.3956 55.1524L23.769 54.4932C18.9712 53.2891 21.2006 48.7725 28.6424 44.62L31.6425 42.9461L27.4025 43.5086C24.0033 43.9597 22.7642 43.6727 21.1526 42.061C18.5912 39.4996 18.5818 38.0914 21.13 38.7579C24.1504 39.5478 30.3326 38.1234 29.8731 36.7435C29.6547 36.0875 28.6133 35.4151 27.5589 35.2493C26.5045 35.0834 24.7072 34.4866 23.5651 33.923C21.8998 33.1014 20.4635 33.5027 16.3151 35.9486C13.4698 37.6263 11.1418 38.6543 11.1418 38.2331C11.1418 37.8118 13.1883 35.461 15.6897 33.009C22.9971 25.8459 33.8895 5.98199 32.6505 2.07846C32.1037 0.35557 32.4287 0.219763 35.8418 0.744324C43.0933 1.85877 43.7378 3.98184 38.8917 10.789C37.1042 13.2999 36.0916 15.5127 36.6416 15.7065C40.7105 17.1398 44.1418 20.2643 44.1418 22.5361C44.1418 26.2524 40.919 25.7587 37.7094 21.5508C36.2412 19.6258 34.7194 18.0508 34.3276 18.0508C33.6608 18.0508 25.6283 27.7718 23.8216 30.7652C22.8604 32.3577 25.4111 31.9051 34.0169 28.9561C37.9992 27.5915 39.8933 27.3827 41.3275 28.1503C44.1698 29.6714 43.0648 31.3687 38.217 32.928C32.9015 34.6378 34.6245 36.2205 40.8694 35.3646C44.7407 34.8339 45.1416 34.9781 45.1416 36.9005C45.1416 38.5804 44.2049 39.2579 40.6417 40.1551C35.5606 41.4346 35.1733 42.1528 38.3918 44.3263L40.6417 45.8457L37.8917 48.753C36.3792 50.352 35.1417 52.1981 35.1417 52.8555C35.1417 54.3587 35.1645 54.3571 39.4876 52.5508C43.9948 50.6676 44.1419 50.6755 44.1409 52.8009C44.14 54.7652 26.2182 68.0509 23.5692 68.0509C22.6754 68.0509 20.5899 66.6005 18.9341 64.8279ZM30.1423 49.9284C30.1423 47.6176 29.2752 47.569 26.2205 49.7087C23.9736 51.2825 23.9455 51.4337 25.6659 52.6917C27.8367 54.2791 30.1423 52.8558 30.1423 49.9284ZM50.5542 64.5564C48.5469 61.493 48.3925 57.4944 49.5636 38.8962C50.3845 25.8596 50.3256 25.0834 48.2644 21.7483L46.1054 18.2551L50.3346 19.2053C52.6605 19.7279 55.0892 20.5916 55.7314 21.1247C56.4873 21.752 57.8465 21.7335 59.5857 21.0723C63.3469 19.6423 66.1424 19.8007 66.1424 21.4438C66.1424 23.1273 63.9877 24.0508 60.0604 24.0508C57.7567 24.0508 57.1423 24.4958 57.1423 26.1644C57.1423 28.1184 57.501 28.2246 61.8923 27.5708C64.5048 27.1819 66.6997 26.7933 66.7699 26.7073C66.8402 26.6212 67.3343 23.9633 67.8682 20.8008C68.9903 14.1525 68.668 13.9566 61.0798 16.676C56.8997 18.1741 56.271 18.1778 53.5798 16.721C51.2694 15.4703 51.0566 15.1224 52.5828 15.0909C53.6501 15.0689 58.2875 13.825 62.8882 12.3267C70.61 9.81197 71.4601 9.71844 73.9476 11.1101C77.6186 13.1639 77.6648 15.3023 74.2263 24.0508L71.2786 31.5508L75.9603 33.0508C82.6871 35.206 82.3943 37.77 75.1423 40.2122C72.1173 41.2309 68.9672 42.329 68.1422 42.6525C67.1549 43.0396 68.451 44.0496 71.9347 45.6078C80.4058 49.3969 83.3032 51.8438 82.9482 54.9088C82.4443 59.2594 78.9487 58.8659 73.42 53.8363C64.6292 45.839 65.7726 45.5888 60.4071 56.6839C55.2678 67.3113 53.3587 68.8367 50.5542 64.5564ZM60.5843 51.5563C64.204 47.139 64.5017 45.0508 61.5119 45.0508C60.6801 45.0508 59.3244 44.3758 58.4994 43.5508C55.6279 40.6793 54.4275 41.8129 53.7203 48.0636C52.6451 57.567 54.7722 58.6493 60.5843 51.5563ZM68.4144 38.978C72.9964 35.2011 73.2604 33.0508 69.1422 33.0508C67.1318 33.0508 66.1424 32.5521 66.1424 31.539C66.1424 30.3267 65.3003 30.1539 61.8923 30.6668C56.6453 31.4566 56.2135 31.8382 55.485 36.3271C54.931 39.7415 55.0772 39.9818 58.2712 40.9007C63.5521 42.4198 64.444 42.2507 68.4144 38.978Z" />
</svg>
