<svg width="94" height="146" viewBox="0 0 94 146"  xmlns="http://www.w3.org/2000/svg">
<path d="M74.3458 143.271C73.3833 142.258 71.8453 140.036 70.928 138.334C70.0012 136.614 67.3357 134.253 64.928 133.018C60.7872 130.895 58.5995 130.406 51.3574 129.981C48.7761 129.83 48.3444 129.52 49.2299 128.453C50.5636 126.846 49.0469 124.676 44.7668 122.066L41.9378 120.34L46.4189 118.629C48.8835 117.688 51.7315 117.182 52.7479 117.505C55.6442 118.426 60.1906 123.088 61.3025 126.278C61.9623 128.171 63.5349 129.689 65.8269 130.647C72.1759 133.3 72.194 133.272 71.8796 121.365L71.5958 110.615L67.5958 110.276C61.6529 109.772 53.6777 111.798 43.6886 116.348C35.1341 120.245 34.7271 120.331 33.4097 118.529C30.5753 114.653 32.0178 113.813 48.1041 109.969C56.6245 107.933 64.7208 106.226 66.0958 106.176C70.2611 106.023 71.8216 104.54 70.3373 102.145C69.2124 100.33 69.3186 100.119 71.3373 100.158C72.5795 100.181 75.3958 100.851 77.5958 101.643C79.7958 102.436 82.7208 103.113 84.0958 103.148C85.4707 103.182 88.1708 103.981 90.0958 104.922C92.7009 106.196 93.5958 107.27 93.5958 109.124C93.5958 111.874 91.9846 112.172 84.79 110.753L80.9842 110.003L81.5033 113.309C81.7891 115.127 82.7675 121.005 83.6782 126.37C85.4961 137.082 84.8702 140.758 80.7355 143.654C77.9764 145.587 76.4578 145.496 74.3458 143.271ZM21.3507 140.242C20.8191 139.897 20.0705 137.909 19.6871 135.824C19.3037 133.739 18.0819 129.915 16.9721 127.326L14.9542 122.619L12.6385 127.423C8.76014 135.471 4.30114 137.346 1.57614 132.077L0.00512695 129.039L6.05043 122.341C9.37536 118.657 12.0957 115.31 12.0957 114.903C12.0957 114.497 10.9414 114.603 9.53065 115.14C5.89191 116.523 5.09581 116.367 5.09581 114.268C5.09581 113.253 6.69242 110.778 8.6439 108.768C11.0702 106.27 11.6927 105.115 10.6126 105.115C7.49879 105.115 7.93407 102.003 11.9858 95.2969C16.1391 88.4229 16.9196 85.7421 15.0958 84.6149C13.4203 83.5794 13.9785 82.1148 16.0487 82.1148C19.0681 82.1148 23.0958 84.2734 23.0958 85.8917C23.0958 86.6924 20.5971 90.0465 17.5431 93.3452C14.489 96.6439 12.1686 99.5211 12.3865 99.739C12.6042 99.957 14.8567 99.3663 17.3917 98.4269C21.6973 96.8312 22.1219 96.8286 23.845 98.388C25.6196 99.994 25.7557 99.6374 27.4408 88.9681C29.0908 78.5214 29.0935 77.7699 27.4888 75.997C25.8605 74.1976 25.9065 74.1149 28.5362 74.1149C31.505 74.1149 37.0956 77.5463 37.0956 79.3685C37.0956 79.9831 36.2009 81.4384 35.1073 82.6025C32.2701 85.6226 31.121 93.0281 30.2176 114.117C29.6082 128.343 29.0249 133.462 27.6934 136.268C26.0077 139.82 23.307 141.512 21.3507 140.242ZM22.9252 117.898C23.5143 113.929 23.8581 110.544 23.6892 110.375C22.6031 109.289 19.649 112.063 17.613 116.081L15.2229 120.797L17.3816 122.956C20.8721 126.447 21.7793 125.619 22.9252 117.898ZM21.556 106.712C24.0594 106.59 24.6506 106.093 24.9067 103.896L25.2178 101.228L20.9068 102.846C16.0608 104.665 10.0958 108.715 10.0958 110.186C10.0958 110.719 11.9905 110.189 14.3061 109.008C16.6217 107.826 19.8842 106.793 21.556 106.712ZM49.0957 106.738C49.0957 106.531 53.2977 103.854 58.4334 100.789C68.1575 94.9863 75.4421 88.1519 74.9005 85.3397C74.727 84.4394 73.4626 83.4101 72.0905 83.0524L69.5958 82.4022L72.3051 81.6605C74.0706 81.1771 76.5915 81.521 79.541 82.6474C84.6027 84.5805 86.5773 86.4178 85.792 88.4642C85.1198 90.2161 74.8396 95.87 60.8498 102.182C49.8823 107.13 49.0957 107.435 49.0957 106.738ZM36.5446 100.677C33.8883 96.6234 37.1421 91.0506 47.9552 81.1345C55.0658 74.6137 56.9755 72.3115 56.5046 70.8279C55.9886 69.2021 56.248 69.0256 58.247 69.643C63.644 71.3098 66.0958 73.1699 66.0958 75.5973C66.0958 77.7597 65.2074 78.3087 58.0492 80.5699C48.1552 83.6954 44.6746 85.4506 42.6565 88.3319C40.6586 91.1843 40.5613 97.115 42.5125 97.115C43.2917 97.115 44.1179 96.7776 44.3486 96.3651C44.5792 95.9526 44.617 96.2143 44.4318 96.9469C44.2469 97.6794 44.0957 99.3669 44.0957 100.697C44.0957 102.713 43.6007 103.115 41.1188 103.115C39.0671 103.115 37.6454 102.357 36.5446 100.677ZM49.0957 98.2186C49.0957 96.4331 53.4558 92.0018 57.6915 89.4824C62.2319 86.7817 56.4558 86.9217 49.6817 89.6766C45.8439 91.2374 49.2729 87.9385 53.4692 86.033C58.5384 83.731 62.4291 83.6069 64.1595 85.6917C66.1177 88.0512 62.6383 93.8103 57.15 97.2935C51.9315 100.605 49.0957 100.931 49.0957 98.2186ZM21.1725 67.5261C17.1875 64.173 17.0229 61.3108 20.8456 61.8475C22.3581 62.0599 27.6456 61.1377 32.5956 59.7982C42.4173 57.1405 42.4173 57.3173 32.5956 53.9253C29.3472 52.8035 28.5336 52.008 28.2659 49.6919C27.9854 47.2667 28.21 46.9524 29.7659 47.591C33.5296 49.1359 34.6927 49.167 38.5393 47.8267C43.2919 46.1708 44.8255 43.5511 40.5656 44.3654C36.7901 45.0871 32.0956 43.3351 32.0956 41.2043C32.0956 40.261 33.4202 38.2202 35.0391 36.6691L37.9827 33.849L34.4686 31.4643L30.9545 29.0795L25.2553 32.5972C20.3611 35.6182 18.7115 36.1088 13.5759 36.0711L7.59561 36.0273L11.4858 34.6407C13.6254 33.8782 17.719 31.6406 20.5825 29.6685C26.706 25.4511 40.0984 11.9282 40.0893 9.97161C40.0858 9.22549 38.7358 7.84849 37.0893 6.91158C33.7099 4.98867 33.069 3.03385 36.0756 3.82007C37.1646 4.10467 39.8784 3.38777 42.1064 2.22651C47.4559 -0.561803 48.1321 -0.474153 51.9919 3.50807C54.7712 6.37556 55.1113 7.21717 54.188 8.9423C53.5872 10.065 53.0956 11.2071 53.0956 11.4804C53.0956 11.7537 56.5831 14.4023 60.8456 17.3661C69.7102 23.5298 77.4888 26.9871 84.368 27.8207C88.649 28.3395 89.0749 28.6159 88.5055 30.507C88.1563 31.6664 87.5446 32.9693 87.146 33.4023C86.2358 34.3908 71.7093 35.1405 70.4639 34.2632C69.9579 33.9068 68.0179 31.5901 66.1529 29.115C64.2878 26.6401 60.0521 21.8175 56.7403 18.3982L50.7189 12.1811L45.6573 16.9206C42.8733 19.5273 39.0343 22.8636 37.1261 24.3347C35.2178 25.8058 33.9343 27.287 34.2737 27.6264C34.6131 27.9658 39.2474 26.7698 44.5722 24.9685C53.5607 21.9279 54.4449 21.8007 56.9247 23.1926C60.4042 25.1456 60.3122 27.2446 56.6707 28.99L53.7456 30.392L57.2419 32.1857C65.2096 36.2733 64.8209 39.4783 56.1506 41.1841C52.2704 41.9474 50.0957 42.8673 50.0957 43.7451C50.0957 45.3888 49.7896 45.374 56.0477 44.032C60.9562 42.9793 61.2137 43.0405 65.2147 46.2093C70.313 50.2473 69.6064 50.9862 58.1431 53.6043C53.7171 54.6153 50.0957 55.8187 50.0957 56.2787C50.0957 57.2987 50.191 57.2973 62.5555 56.0954C72.2918 55.1488 72.6001 55.1834 76.3054 57.6354C78.5037 59.0902 80.0957 60.9495 80.0957 62.0621C80.0957 63.9618 79.4199 64.3265 73.5958 65.5698C71.9457 65.9221 69.8111 66.4433 68.852 66.7282C67.6103 67.0971 67.2728 66.8174 67.6796 65.7574C68.4937 63.6357 65.4334 62.308 57.9652 61.5429C50.2892 60.7564 42.0415 62.5995 33.1496 67.0882C25.8534 70.7713 25.0631 70.7999 21.1725 67.5261ZM42.5957 52.1148C42.5957 49.9149 42.5504 48.1151 42.4948 48.1151C42.4393 48.1151 40.9454 48.62 39.1748 49.2373L35.9556 50.3595L38.7127 53.2373C40.2291 54.8201 41.7231 56.115 42.0327 56.1149C42.3422 56.1148 42.5957 54.3147 42.5957 52.1148ZM54.4594 50.4787C57.9426 46.9954 57.7849 45.9219 53.8458 46.3017C50.9881 46.5772 50.558 47.0073 50.2824 49.8651C49.9026 53.8042 50.9762 53.9619 54.4594 50.4787ZM42.2323 38.1288C43.2817 38.1212 44.0267 37.0388 44.3091 35.115C44.8617 31.35 43.3064 31.2255 39.1725 34.7039C35.5437 37.7574 35.1673 39.5972 38.3457 38.7454C39.5833 38.4139 41.3322 38.1363 42.2323 38.1288ZM55.0958 35.4439C55.0958 34.1881 51.7912 31.1151 50.4408 31.1151C49.6728 31.1151 49.0957 32.1876 49.0957 33.6151C49.0957 35.7262 49.5625 36.1151 52.0958 36.1151C53.7458 36.1151 55.0958 35.8132 55.0958 35.4439Z" />
</svg>
