<svg width="107" height="155" viewBox="0 0 107 155"  xmlns="http://www.w3.org/2000/svg">
<path d="M79.2526 149.117C76.346 146.092 73.4382 143.618 72.7907 143.618C72.1431 143.618 69.7265 142.706 67.4203 141.592C64.9276 140.387 63.0886 139.982 62.8853 140.592C62.244 142.516 58.8597 141.623 56.7826 138.983C55.6048 137.485 54.71 134.873 54.71 132.933C54.71 129.276 52.775 124.746 50.3549 122.738C49.1488 121.737 47.915 121.987 43.8222 124.061C37.3302 127.35 33.1361 127.451 32.3545 124.337C32.0396 123.083 32.0423 121.062 32.362 119.847C32.8133 118.121 33.4482 117.764 35.2568 118.218C39.6095 119.311 48.9384 115.636 59.1171 108.82C72.1725 100.078 80.7118 91.9796 80.7118 88.3408C80.7118 85.9815 80.3108 85.6173 77.7118 85.6173C74.4074 85.6173 73.1825 86.7266 68.3254 94.1173C62.7737 102.565 53.7118 106.908 53.7118 101.12C53.7118 98.249 59.6103 91.2383 63.8867 89.0269C65.4405 88.2234 66.7118 87.1276 66.7118 86.5917C66.7118 85.0961 60.0837 85.4352 56.0047 87.1395L52.3619 88.6615L54.2869 86.4982C56.5896 83.9103 63.3232 80.67 66.4618 80.6394C67.6993 80.628 69.5956 81.5012 70.6758 82.5814C72.4936 84.3992 72.9007 84.4364 76.1437 83.0814C81.185 80.9751 84.1386 81.2641 87.6351 84.2062C90.7076 86.7916 91.6416 90.6047 89.8813 93.3774C89.4413 94.0704 86.1857 96.1977 82.6466 98.1047C76.8759 101.214 76.5215 101.575 79.2118 101.6C83.1764 101.638 89.7118 103.487 89.7118 104.571C89.7118 105.043 90.5844 105.202 91.6508 104.923C94.6422 104.141 103.607 107.528 105.272 110.069C106.089 111.316 106.458 113.115 106.092 114.069C105.414 115.837 103.782 115.823 92.9618 113.956C88.9403 113.262 88.9502 113.053 92.2729 128.525C94.4105 138.478 94.6542 141.118 93.7466 144.488C92.5158 149.059 88.285 154.617 86.0366 154.617C85.2129 154.617 82.1591 152.142 79.2526 149.117ZM78.0571 127.298C77.9732 120.247 77.6381 114.212 77.3127 113.887C76.4009 112.975 62.8644 115.618 56.71 117.91L51.21 119.958L56.4257 121.137C64.0475 122.86 64.8147 123.799 64.4872 131.012L64.2102 137.117L69.2101 138.842C78.281 141.972 78.2328 142.034 78.0571 127.298ZM67.9501 110.524C76.8422 108.424 77.3464 108.166 76.9214 105.943C76.6739 104.648 76.0626 103.335 75.5632 103.027C75.0638 102.718 70.7301 104.572 65.9326 107.146C57.5601 111.639 53.1965 114.617 56.8692 113.331C57.7818 113.011 62.7682 111.748 67.9501 110.524ZM21.274 151.039C20.4138 150.178 19.71 148.612 19.71 147.557C19.71 146.502 18.8102 143.272 17.7105 140.378C15.1965 133.764 15.2006 132.847 17.7332 135.139C18.9946 136.28 20.1104 136.617 20.6958 136.031C21.7579 134.969 24.2314 115.806 23.4121 114.987C22.5142 114.089 18.8244 116.538 17.5303 118.89C16.8564 120.115 14.6734 126.041 12.679 132.058C8.54034 144.545 7.04805 146.224 3.2545 142.66C-1.09665 138.572 0.696976 130.257 7.63415 122.356L10.8218 118.726L8.01668 118.922C5.7521 119.08 5.14637 118.658 4.87315 116.732C4.68682 115.419 5.46661 113.085 6.60599 111.544C8.65967 108.766 8.66043 108.737 6.6933 108.113C3.96996 107.248 4.17042 105.936 8.20942 98.1872C12.1349 90.656 12.5103 88.189 9.95939 86.6856C8.43367 85.7864 8.40161 85.5266 9.70955 84.6587C12.3438 82.9105 20.0662 86.1118 20.4882 89.1269C20.65 90.282 19.0648 93.1704 16.7121 96.0081C14.4819 98.6979 12.8249 101.066 13.0299 101.271C13.2348 101.476 15.1224 100.925 17.2244 100.047C20.131 98.8325 21.6048 98.7045 23.378 99.5124C24.6603 100.097 25.717 100.472 25.726 100.346C25.7336 100.22 26.5973 95.401 27.642 89.6363C28.6868 83.8715 29.3279 78.8091 29.0666 78.3863C28.8054 77.9635 27.8081 77.6176 26.8505 77.6176C22.9753 77.6176 21.1292 72.8767 24.9596 72.7615C26.1971 72.7237 28.8096 72.4127 30.7651 72.0691C35.7152 71.1992 37.6354 73.4503 35.7794 77.9477C32.4189 86.091 31.5113 93.6632 30.7849 119.618C30.3769 134.193 29.6885 146.922 29.2552 147.905C28.8218 148.887 27.2005 150.347 25.6524 151.147C23.16 152.436 22.6588 152.424 21.274 151.039ZM24.7051 106.367C24.7127 104.016 23.2128 104.17 16.7322 107.187C11.6893 109.534 9.76483 111.07 9.7253 112.779C9.71774 113.143 13.0828 112.243 17.2051 110.779C22.6564 108.843 24.7016 107.64 24.7051 106.367ZM38.7099 108.617C35.668 105.576 35.6639 97.5823 38.7024 91.6433C41.1849 86.789 44.2476 83.6858 51.248 78.932C54.5374 76.6982 58.7879 73.4142 60.6934 71.6342L64.1581 68.3977L61.8239 66.5075L59.4897 64.6174H62.9567C65.3877 64.6174 67.8113 65.677 71.0675 68.1633C78.8931 74.1386 76.9473 76.3886 61.297 79.4605C55.2942 80.6387 49.2941 82.316 47.9635 83.1878C44.9078 85.1901 42.7113 90.3746 42.7113 95.5853C42.7113 99.787 44.1347 101.01 45.1826 97.7078C45.516 96.6574 46.4098 95.2827 47.1687 94.6528C48.3286 93.6902 48.3224 94.2592 47.1301 98.2214C46.3499 100.814 45.7115 104.198 45.7115 105.741C45.7115 107.492 44.984 108.936 43.7772 109.582C41.1969 110.963 41.0229 110.93 38.7099 108.617ZM13.1521 65.0849C10.9203 62.6258 9.34529 60.2274 9.65211 59.7552C10.389 58.6211 16.2911 55.6174 17.7827 55.6174C18.6784 55.6174 18.6786 55.9504 17.7838 57.0284C16.9441 58.0403 16.9229 58.631 17.7094 59.117C19.1619 60.0147 44.7101 54.4622 44.7101 53.2489C44.7101 52.7304 43.5739 50.8166 42.1853 48.996C39.9321 46.0419 39.3674 45.7903 36.9353 46.6574C34.344 47.5814 34.3081 47.5533 36.2053 46.0838C37.4709 45.1036 37.8145 44.2787 37.1453 43.828C31.6796 40.1474 28.7101 37.084 28.7101 35.126C28.7101 33.1743 29.3473 32.8043 33.4601 32.3684C41.1446 31.5538 43.7101 30.1411 43.7101 26.724C43.7101 21.7182 42.8176 20.6174 38.759 20.6174C35.6963 20.6174 34.2716 19.8597 30.8659 16.42C28.5802 14.1115 26.7101 11.9156 26.7101 11.5403C26.7101 11.165 29.2976 10.6669 32.4601 10.4336C36.7701 10.1157 41.0307 8.66731 49.4726 4.651C61.8674 -1.24597 62.5669 -1.25311 68.2803 4.4601C73.7836 9.96344 69.2316 15.042 56.9645 17.0846C52.9777 17.7485 52.8033 17.9122 54.104 19.7691C54.8658 20.8567 55.2654 22.6021 54.992 23.6476C54.5368 25.3882 54.9292 25.497 59.6469 24.9383C64.352 24.381 65.0553 24.5736 67.7546 27.1598C70.8469 30.1225 71.5859 33.6773 69.4601 35.3644C68.7726 35.91 66.4102 36.6673 64.2102 37.0472C62.0101 37.4271 58.7476 38.2513 56.9601 38.8785C53.9139 39.9475 53.7101 40.3149 53.7101 44.7364C53.7101 47.3309 53.4512 50.1282 53.135 50.9526C52.65 52.2164 53.7874 52.1347 60.385 50.432C74.4528 46.8013 87.1405 49.4306 91.1086 56.7987C92.0999 58.6396 92.7533 61.2643 92.5605 62.6315C92.0344 66.3634 86.788 66.3767 75.2335 62.6753C59.8751 57.7556 44.4408 59.0041 26.5615 66.6124C22.6781 68.265 18.9853 69.6032 18.3554 69.5864C17.7255 69.5713 15.384 67.5441 13.1521 65.0849ZM43.71 38.4902V34.5768L39.5047 36.7222L35.2995 38.8676L38.018 41.206C41.6918 44.3661 43.71 43.4032 43.71 38.4902ZM58.4042 33.149L61.21 30.6806L57.46 30.6504C54.1183 30.6239 53.7099 30.8908 53.7099 33.1188C53.7099 36.2659 54.8541 36.2736 58.4042 33.149Z" />
</svg>
