<svg width="87" height="140" viewBox="0 0 87 140"  xmlns="http://www.w3.org/2000/svg">
<path d="M50.7118 136.161C49.3671 134.187 46.667 131.441 44.7117 130.058C41.6992 127.928 41.5382 127.641 43.6568 128.18C45.0318 128.53 48.2294 129.084 50.7626 129.413C55.1184 129.977 55.5057 129.826 57.8946 126.637C59.2839 124.782 61.1363 121.849 62.0109 120.118C63.5333 117.106 63.5064 116.904 61.3789 115.376L59.1568 113.781L62.0519 114.023C64.4249 114.221 65.1182 113.763 65.8964 111.481C67.3067 107.346 65.4677 105.761 59.2843 105.782C51.8193 105.809 42.3333 108.088 32.6871 112.176C21.4048 116.957 16.6568 116.766 16.6568 111.53C16.6568 110.002 16.9932 109.874 18.6654 110.769C20.2007 111.591 22.3645 111.341 27.8483 109.708C31.7942 108.533 36.0456 106.901 37.2958 106.082C38.546 105.263 40.1081 104.926 40.7673 105.333C41.4983 105.785 41.7041 105.651 41.295 104.988C40.9261 104.391 41.0814 103.62 41.6404 103.275C43.2206 102.298 42.8712 97.7648 41.2157 97.7648C38.5097 97.7648 38.4353 95.6054 41.0476 92.8789C42.4826 91.381 43.6568 89.1828 43.6568 87.994V85.8325L40.1454 87.9042C36.8425 89.853 34.829 89.9194 30.4153 88.2258C29.2922 87.7948 28.9478 88.9127 28.799 93.4716C28.695 96.6579 29.0322 100.704 29.5486 102.463C30.9349 107.185 29.0898 108.223 23.8845 105.648C21.604 104.519 19.4849 102.799 19.1755 101.824C18.866 100.849 19.2912 97.1749 20.1201 93.6584C22.0667 85.4006 22.0592 78.7844 20.1013 75.9873C18.5968 73.8394 18.6447 73.7649 21.5287 73.7649C24.8997 73.7649 28.6479 77.6392 28.6733 81.1498C28.7111 86.1149 32.3328 87.4732 37.9658 84.6329C40.2715 83.4704 42.3143 82.3805 42.5054 82.2112C42.6967 82.0419 42.0932 80.6173 41.1647 79.0455C39.7115 76.5855 38.9829 76.2453 35.9308 76.6016C33.4772 76.8881 32.5993 76.6689 33.0805 75.8902C33.463 75.2713 34.4344 74.7649 35.2392 74.7649C36.044 74.7649 40.4049 72.8609 44.9302 70.5337C55.4738 65.1117 57.323 64.5977 61.8739 65.8232C65.6386 66.8369 68.5522 70.0942 66.7116 71.2318C66.1882 71.5553 62.0245 71.7664 57.4589 71.701C51.0912 71.6095 48.11 72.0524 44.658 73.6027L40.158 75.6238L43.908 75.6944C46.0939 75.7356 48.402 76.5091 49.442 77.5491C50.7663 78.8734 52.0547 79.1635 54.4418 78.6753C58.0885 77.9294 64.1579 80.3977 64.1579 82.6264C64.1579 83.3752 61.908 84.8339 59.158 85.868C56.408 86.9021 52.808 88.8964 51.158 90.2999L48.158 92.8515L52.1579 92.2983C58.1224 91.4732 63.3716 94.8431 59.4852 97.0024C58.7552 97.408 55.458 98.9214 52.1579 100.366C44.7133 103.624 45.9723 104.281 55.7061 102.218C69.4659 99.3014 68.8624 99.2755 73.7162 102.993C77.5301 105.915 78.1408 106.881 78.0366 109.83C77.9697 111.719 77.6174 114.165 77.2534 115.265C76.7108 116.904 77.3067 117.562 80.5586 118.912C83.833 120.272 84.7122 121.253 85.5939 124.527C86.8009 129.009 86.0941 134.158 84.0375 135.865C82.2992 137.308 80.6042 136.001 76.5256 130.073C74.8955 127.703 73.246 125.777 72.8599 125.792C72.4738 125.807 71.036 127.637 69.6647 129.859C66.7577 134.569 59.443 139.768 55.7365 139.758C53.9023 139.754 52.451 138.715 50.7118 136.161ZM49.6568 98.2647C50.3512 97.428 50.4595 96.7648 49.9017 96.7648C49.3517 96.7648 48.3415 97.4397 47.6568 98.2647C46.9624 99.1015 46.8541 99.7649 47.4119 99.7649C47.9619 99.7649 48.9721 99.0897 49.6568 98.2647ZM4.61683 135.725C1.78427 132.892 0.656738 129.469 0.656738 123.7C0.656738 118.718 1.99743 117.112 3.14282 120.721C3.94427 123.246 9.31971 127.771 11.4835 127.742C12.4038 127.731 14.2817 126.84 15.6567 125.765C18.4686 123.565 20.4298 123.111 18.8923 125.015C18.3371 125.702 17.567 128.18 17.181 130.52C16.0523 137.364 9.12509 140.233 4.61683 135.725ZM28.9651 128.755C26.4328 127.735 24.1741 124.468 23.2503 120.489C22.6409 117.865 22.7566 117.751 25.3813 118.397C26.9078 118.773 29.2238 119.772 30.528 120.617C32.648 121.991 33.0187 121.993 34.028 120.633C34.6488 119.797 36.4331 118.282 37.9931 117.267L40.8293 115.42L38.243 119.231C36.8206 121.327 35.6568 123.847 35.6568 124.831C35.6568 126.608 33.1347 129.821 31.8353 129.7C31.4623 129.666 30.1705 129.241 28.9651 128.755ZM43.3087 117.144C41.8673 115.703 40.9325 114.128 41.2314 113.644C41.979 112.434 48.3949 112.532 49.1567 113.765C49.4965 114.315 50.7267 114.765 51.8901 114.765C53.9816 114.765 53.979 114.791 51.6569 117.265C48.6629 120.452 46.5864 120.422 43.3087 117.144ZM34.1825 64.8144C31.5509 59.7256 32.0943 58.9832 41.6568 54.6027C50.9091 50.3642 53.22 48.1933 47.2964 49.3046C44.6682 49.7976 43.7929 49.5619 43.2792 48.2231C42.4577 46.0823 43.8662 44.3349 47.6899 42.7511C49.4701 42.0137 50.6568 40.7807 50.6568 39.6684C50.6568 38.1425 50.1268 37.9209 47.6593 38.4144C45.8802 38.7701 44.051 38.507 43.1592 37.7669C41.5976 36.4709 41.0986 34.6142 42.4068 34.9673C42.8193 35.0788 44.8443 34.8331 46.9068 34.422C50.4365 33.7181 50.6568 33.4549 50.6568 29.943C50.6568 26.2311 50.6379 26.2139 46.887 26.5716C44.0343 26.8437 42.6584 26.4241 41.2319 24.8479C39.3694 22.7898 39.3768 22.7648 41.8525 22.7648C43.2307 22.7648 45.7755 22.2708 47.5076 21.667L50.6568 20.5692V12.7739C50.6568 6.57074 50.3321 4.85405 49.0665 4.36846C48.1919 4.03283 47.0085 4.04732 46.4368 4.4026C45.852 4.76392 45.5957 4.43665 45.8509 3.65587C46.7192 0.996296 51.0893 -0.279002 56.1166 0.66021C62.6763 1.88568 63.2128 2.68663 61.2777 8.36575C58.9567 15.1775 59.1022 16.9195 61.9068 15.8962C64.2654 15.0356 70.1733 16.1756 71.0965 17.6692C71.9232 19.0068 69.6491 20.4323 64.1567 22.0195C59.4425 23.3818 59.1391 23.6721 58.8472 27.1024C58.5429 30.6793 58.5894 30.7302 61.6243 30.1232C63.8354 29.681 65.2706 30.0123 66.6839 31.2911C69.4533 33.7974 69.2288 34.3471 64.2416 37.2698C61.8133 38.6929 59.2832 40.5117 58.6192 41.3118C57.597 42.5435 58.0251 42.7667 61.4119 42.7667C65.3457 42.7667 68.3985 44.7574 67.2686 46.5857C66.9606 47.0844 64.6717 48.0625 62.1825 48.7595C58.4853 49.7946 57.6568 50.4497 57.6568 52.3383C57.6568 54.5898 57.8461 54.6365 64.9067 54.1252C74.4393 53.4348 74.6568 53.3375 74.6568 49.7645V46.6999L79.2138 51.8308C82.614 55.6593 83.6928 57.6349 83.4638 59.6141C83.1811 62.0571 82.8014 62.2614 78.6567 62.2012C76.1817 62.1634 71.2192 61.6101 67.6288 60.9675C59.2547 59.4688 51.5632 60.6698 43.5928 64.7198C40.2951 66.3956 37.172 67.7667 36.6525 67.7667C36.1331 67.7667 35.0216 66.437 34.1825 64.8144ZM46.9068 56.6811C49.0763 56.1064 50.6568 55.0717 50.6568 54.2262C50.6568 52.3531 50.8794 52.3219 42.9307 55.3136C31.4101 59.65 33.2763 60.2919 46.9068 56.6811ZM16.6261 64.1841C16.0865 62.7648 15.1442 59.6149 14.5322 57.1843C13.9201 54.7536 13.2062 52.7648 12.9458 52.7648C12.6854 52.7648 11.3281 53.6648 9.92966 54.7649C5.59027 58.1782 3.65673 56.9629 3.65673 50.822C3.65673 48.6868 5.17531 46.6281 10.2102 41.9379C15.9729 36.5697 16.6323 35.5876 15.675 33.7989C15.0763 32.6802 14.0022 31.7647 13.2882 31.7647C12.5742 31.7647 10.2275 30.2084 8.07335 28.3063L4.15673 24.8481L8.1568 24.7104C10.3568 24.6348 14.4067 24.0431 17.1568 23.3957L22.1567 22.2186L22.0676 16.1225C22.0184 12.7696 21.2636 8.23973 20.39 6.05637L18.8017 2.08676L23.4792 3.52254C26.0518 4.31219 28.7472 5.13647 29.4691 5.35417C30.4245 5.64255 30.6053 6.92491 30.1336 10.07C29.5147 14.1971 29.6465 14.4989 33.0831 16.8275C37.3042 19.6876 37.3282 21.7215 33.1568 23.0663C28.2691 24.642 27.535 25.6966 27.8587 30.6773C28.0757 34.0154 28.5434 35.1813 29.5761 34.9583C30.6909 34.7176 30.7437 34.9552 29.8222 36.0656C29.1038 36.9312 28.5536 42.1071 28.4029 49.4162C28.1081 63.7109 26.8242 66.7648 21.109 66.7648C18.2648 66.7648 17.423 66.2802 16.6261 64.1841ZM20.6568 52.7058C20.6568 48.8883 20.3484 45.7647 19.9712 45.7647C18.8394 45.7647 14.657 50.0314 14.654 51.189C14.6502 53.089 19.0497 60.6401 19.8674 60.1347C20.3015 59.8664 20.6568 56.5233 20.6568 52.7058ZM18.4339 43.8212C20.3097 42.1079 21.6474 39.9134 21.6345 38.5711L21.6118 36.2647L19.606 38.7648C12.8771 47.1515 12.3642 49.365 18.4339 43.8212ZM21.326 29.1008C21.055 28.8298 19.5563 29.3006 17.9952 30.1465C15.4195 31.5423 15.3596 31.6885 17.3478 31.7248C18.5528 31.7475 19.9022 32.3273 20.3465 33.0148C20.9028 33.8757 21.2577 33.5378 21.4864 31.929C21.6689 30.6442 21.5966 29.3716 21.326 29.1008ZM30.4653 17.8981C29.7819 16.9998 29.0953 16.0774 28.9397 15.8482C28.784 15.6192 28.6567 16.6173 28.6567 18.0667C28.6567 20.018 29.0526 20.55 30.1821 20.1166C31.4258 19.6393 31.4781 19.2295 30.4653 17.8981Z" />
</svg>
