<svg width="102" height="151" viewBox="0 0 102 151"  xmlns="http://www.w3.org/2000/svg">
<path d="M46.7002 147.865C45.9073 146.627 44.7545 143.702 44.1385 141.365C42.7178 135.973 41.9643 135.961 27.2384 141.097C16.8585 144.717 15.3751 144.988 10.0021 144.254C4.61361 143.517 0.0957031 141.102 0.0957031 138.96C0.0957031 138.495 2.15054 138.115 4.66204 138.115C7.17353 138.115 15.3861 136.741 22.9121 135.062C30.4381 133.383 38.1707 131.679 40.0957 131.275C42.9492 130.675 43.5957 130.085 43.5957 128.077C43.5957 126.247 43.1274 125.695 41.7715 125.926C39.5823 126.299 37.0957 124.432 37.0957 122.416C37.0957 121.616 38.416 119.641 40.0297 118.027L42.9635 115.093L40.2796 115.287C38.8035 115.393 36.4707 114.855 35.0957 114.09C32.6254 112.717 32.6515 112.692 37.2954 111.997C43.3631 111.09 43.9264 110.68 43.3369 107.596C42.8746 105.178 42.5935 105.067 38.471 105.686C32.7209 106.548 32.7896 104.885 38.5957 102.668C42.7159 101.094 43.0957 100.661 43.0957 97.532C43.0957 94.2203 42.974 94.1146 39.1547 94.1146C33.7002 94.1146 33.2766 92.5731 38.0604 90.1327C40.722 88.7748 42.0958 87.4001 42.0958 86.0943C42.0958 85.0055 41.7583 84.1078 41.3458 84.0994C40.9333 84.0918 39.9229 83.6587 39.1006 83.1388C37.818 82.328 37.8892 81.9792 39.6006 80.6859C42.1591 78.7525 47.1296 78.7114 51.3118 80.5888C53.118 81.3996 56.5082 82.5419 58.8457 83.1272C65.2754 84.7374 64.3017 87.7696 56.4906 90.4609C53.3772 91.5337 52.5296 92.3634 52.2661 94.5963C52.0223 96.6625 52.3001 97.2497 53.3374 96.852C61.8151 93.5988 71.5314 91.2454 74.3289 91.7676C82.4736 93.2882 88.1009 98.8091 88.0901 105.269C88.0788 112.112 86.2318 115.824 80.0571 121.411L74.0821 126.818L82.5266 127.467C87.171 127.825 92.2366 128.596 93.7834 129.182C97.5617 130.614 101.096 134.048 101.096 136.289C101.096 138.282 100.91 138.338 93.5958 138.561C90.8457 138.645 87.0207 139.03 85.0957 139.416C82.0124 140.035 81.8669 139.98 83.8739 138.951C86.7967 137.453 86.2253 135.787 82.5132 134.983C78.5136 134.117 63.3927 133.975 57.7353 134.75C53.3517 135.351 53.0945 135.558 53.0737 138.5C53.0511 141.47 49.7734 150.114 48.6677 150.114C48.3785 150.114 47.4931 149.102 46.7002 147.865ZM61.0276 126.21C62.1651 124.613 63.0948 123.15 63.0937 122.96C63.0901 122.331 56.6363 122.082 54.3457 122.622C52.6342 123.026 52.0957 123.866 52.0957 126.134C52.0957 128.863 52.386 129.115 55.5276 129.115C58.1743 129.115 59.4327 128.45 61.0276 126.21ZM44.0957 118.492C44.0957 116.61 42.4494 116.751 41.7027 118.696C40.644 121.455 41.0055 122.434 42.5957 121.115C43.4207 120.43 44.0957 119.25 44.0957 118.492ZM69.1562 111.141C70.3042 107.362 71.0977 102.997 70.9196 101.442C70.6308 98.922 70.1611 98.5838 66.5957 98.3296C64.3957 98.1727 60.1207 98.8877 57.0957 99.9186C52.4003 101.519 51.5481 102.196 51.2705 104.545C50.9757 107.039 51.1635 107.22 53.2705 106.474C56.9996 105.152 62.0387 105.629 63.8867 107.478C66.1362 109.728 64.6267 110.693 57.4578 111.589C51.6991 112.308 50.6398 113.103 51.5629 116.011C52.0567 117.567 52.7253 117.762 55.4557 117.146C57.4017 116.707 60.154 116.884 62.1739 117.577C64.0559 118.222 65.9272 118.585 66.3324 118.382C66.7375 118.179 68.0082 114.921 69.1562 111.141ZM27.9171 127.083C23.8623 124.941 23.9682 125.163 21.248 113.115C20.1926 108.44 19.004 103.829 18.6068 102.869C17.9777 101.347 18.317 101.205 21.2402 101.759C26.998 102.852 27.9364 103.864 30.169 111.38C31.351 115.359 33.3931 120.454 34.7069 122.703C36.0207 124.951 37.0957 127.313 37.0957 127.953C37.0957 129.733 32.0252 129.253 27.9171 127.083ZM19.7853 74.9609C18.6581 74.3301 18.0957 72.7412 18.0957 70.1875C18.0957 65.3015 16.102 63.6436 10.2072 63.6274C3.34118 63.6085 4.26438 61.5204 14.0957 54.8321C18.7707 51.6517 22.7324 48.6543 22.8994 48.1711C23.0665 47.688 22.1961 46.3546 20.9654 45.208L18.7278 43.1233L20.5367 37.3846C21.5317 34.2283 22.3457 30.6264 22.3457 29.3803C22.3457 26.3177 26.0904 26.346 29.6824 29.4359L32.3807 31.7569L29.904 36.6858C28.5418 39.3968 26.8072 42.6069 26.0493 43.8194C23.7687 47.4682 25.5032 47.3825 31.9766 43.5262C35.7751 41.2634 38.281 39.0551 38.5419 37.7406C39.8933 30.9333 39.8842 29.2578 38.4848 27.2601C37.0634 25.2307 37.123 25.1147 39.5885 25.1147C45.2443 25.1147 50.8803 30.0668 49.647 33.9526C49.1883 35.3978 49.6947 35.7148 52.462 35.7148C58.1209 35.7148 60.648 38.1622 61.98 44.9328C63.0877 50.563 67.9158 59.1148 69.9869 59.1148C71.5827 59.1148 74.2943 53.9345 73.8674 51.7013C73.6368 50.4955 74.0439 48.9524 74.7719 48.2724C75.5 47.5923 76.0956 46.3089 76.0956 45.4203C76.0956 43.9473 75.9342 43.9508 74.2669 45.4597C72.0913 47.4285 71.0396 47.5018 67.582 45.9264L64.9744 44.7384L68.785 42.4316C72.8412 39.9761 80.3499 39.3064 83.0956 41.1552C84.3405 41.9934 83.9152 42.7537 80.5956 45.6251L76.5956 49.0849L79.3456 49.1C83.2608 49.1226 82.9637 52.4983 78.5591 58.0393C74.692 62.9043 75.109 64.072 80.7231 64.0995C85.4142 64.1222 86.4476 62.1623 85.8633 54.349L85.3598 47.6148L88.7087 54.6148C90.5506 58.4648 92.3381 63.0305 92.6808 64.7606C94.1029 71.9402 84.8086 74.5368 75.1702 69.6526L70.3112 67.1904L64.9534 70.0456C56.5162 74.5419 53.8015 74.9021 59.5317 70.765C66.5293 65.7128 66.855 64.7438 63.0229 60.3793C61.2552 58.3659 58.2484 53.4327 56.3412 49.4167C53.2044 42.8116 52.5955 42.1149 49.9598 42.1149C45.7974 42.1149 45.0956 44.8503 45.0956 61.0729C45.0956 72.4419 44.8288 75.0033 43.5956 75.4765C41.2887 76.3617 39.7734 75.4189 35.733 70.5854C32.2032 66.3626 32.1454 66.1832 34.6181 67.1233C36.0523 67.6686 37.4215 68.1148 37.6607 68.1148C37.8999 68.1148 38.0956 62.9509 38.0956 56.6395V45.1644L35.465 46.1645C34.0181 46.7146 31.5782 48.0591 30.043 49.1522C27.3151 51.0947 27.2644 51.3078 27.8105 58.5288C28.2855 64.809 28.0419 66.5945 26.1865 70.4269C23.7925 75.3724 22.3483 76.3952 19.7853 74.9609ZM23.0744 60.6908C24.8439 54.3711 24.1247 53.7581 19.7067 57.8205L15.8177 61.3965L18.2067 63.2333C19.5206 64.2436 20.8747 65.0803 21.2158 65.0925C21.5567 65.1038 22.3932 63.124 23.0744 60.6908ZM64.5957 36.7736C58.8206 34.0712 56.8837 30.8837 56.3322 23.1752L55.8289 16.1418L52.4275 19.1282C47.8226 23.1714 44.0143 23.0346 36.5369 18.5573C33.2692 16.6007 29.7082 14.1257 28.6235 13.0573C26.6665 11.1297 26.6881 11.1147 31.4231 11.1147C36.5759 11.1147 38.8677 10.1575 48.2807 4.07355C55.0922 -0.328922 59.2043 -0.910716 62.9815 1.9937L65.3674 3.82833L63.2533 6.72145C60.5925 10.3628 59.5005 19.2016 61.0165 24.8254C62.0005 28.4754 62.6422 29.1717 65.8356 30.0534C70.164 31.2485 77.056 30.3818 77.7573 28.554C78.0268 27.8512 77.4259 26.0199 76.4217 24.4842C74.208 21.0993 75.1732 21.5806 83.3457 27.9374C86.5082 30.3972 89.0957 33.0295 89.0957 33.787C89.0957 35.862 84.5206 37.1933 75.6086 37.7116C69.9727 38.0392 66.7058 37.761 64.5957 36.7736ZM67.0957 20.6007L64.5957 19.1574L66.8909 18.5076C68.2033 18.136 70.0638 16.1374 71.2358 13.84L73.2856 9.82219L69.5547 10.4276L65.8237 11.0331L68.2097 8.48215C71.9362 4.49785 73.8724 3.77965 77.1865 5.15234C78.7866 5.81512 80.0957 6.8005 80.0957 7.34211C80.0957 7.88375 78.6366 10.1692 76.8532 12.4209C74.3024 15.6415 74.0358 16.3419 75.6032 15.7043C79.6891 14.0422 85.5552 13.9271 87.5957 15.4689C90.5523 17.7028 88.561 19.0676 79.9492 20.7099C70.9741 22.4215 70.2392 22.4153 67.0957 20.6007Z" />
</svg>
