<svg width="94" height="145" viewBox="0 0 94 145"  xmlns="http://www.w3.org/2000/svg">
<path d="M71.0062 139.901C59.6074 129.584 60.7119 130.275 57.4486 131.413C53.8486 132.668 52.1919 131.602 50.3153 126.824C49.6044 125.015 47.9133 122.953 46.5572 122.242C44.1063 120.958 44.1216 120.937 49.1307 118.782C58.3096 114.834 64.1226 116.488 62.9051 122.702C61.531 129.715 61.5272 129.706 66.7046 131.759C69.8728 133.015 71.9536 133.36 72.5798 132.734C73.6108 131.703 73.674 118.309 72.6736 112.865C72.1458 109.992 71.7012 109.615 68.8476 109.615C63.1881 109.615 50.4563 113.429 43.9264 117.081C36.3767 121.303 34.8771 121.427 32.6409 118.014C30.6051 114.907 31.8803 111.946 35.055 112.408C36.1638 112.57 42.4098 111.358 48.935 109.716C55.4602 108.074 63.1615 106.422 66.049 106.044C70.3019 105.488 71.299 104.996 71.299 103.455C71.299 100.224 68.8613 100.333 57.258 104.084C51.097 106.076 45.8519 107.501 45.6022 107.251C45.3527 107.002 46.1947 106.473 47.4736 106.077C52.5756 104.497 68.8856 96.4123 71.0236 94.4038C73.5062 92.0715 74.0809 88.6148 71.9861 88.6148C71.264 88.6148 69.4257 89.9169 67.9009 91.5084C64.9992 94.5371 54.7626 100.088 50.049 101.189C47.6314 101.754 47.299 101.54 47.299 99.419C47.299 93.4746 56.0294 84.6448 61.9501 84.6011C65.1321 84.5784 68.3005 83.4261 67.7287 82.5011C67.4275 82.0136 64.9645 81.6148 62.2553 81.6148C57.4912 81.6148 57.0439 81.8771 48.6146 89.6148C42.9981 94.7705 39.0818 97.6148 37.5993 97.6148C36.3341 97.6148 35.299 97.1648 35.299 96.6148C35.299 96.0647 35.8956 95.6148 36.6247 95.6148C38.1135 95.6148 41.1214 92.5496 43.8676 88.2337L45.7009 85.3524L43.25 86.0725C41.3802 86.6219 41.6856 86.1719 44.5382 84.175C49.1522 80.9449 51.9339 76.0848 50.2972 74.1127C49.425 73.0617 49.638 72.5036 51.2386 71.647C54.1736 70.0763 61.3507 72.0962 62.0272 74.6834C62.4025 76.1182 63.4138 76.6148 65.9611 76.6148C69.7899 76.6148 74.8571 80.7179 73.9495 83.0833C73.5919 84.0148 74.751 84.8936 77.5178 85.7889C85.3033 88.3082 85.3834 94.0246 77.68 97.3593L73.0317 99.3714L76.6654 100.571C78.664 101.23 80.2992 102.174 80.2992 102.667C80.2992 103.161 81.5868 103.307 83.1606 102.992C88.3863 101.947 95.1841 107.145 93.6886 111.042C93.0038 112.827 90.2753 113.042 85.5425 111.684C81.6496 110.568 81.5333 111.188 83.802 120.971C84.6285 124.535 85.3646 130.046 85.4378 133.217C85.5595 138.5 85.307 139.218 82.4191 141.799C80.6858 143.348 78.5804 144.615 77.7405 144.615C76.9006 144.615 73.8701 142.494 71.0062 139.901ZM61.9264 91.2078C68.4705 88.1608 69.5074 86.6147 65.0072 86.6147C58.794 86.6147 53.299 89.6346 53.299 93.0491C53.299 94.2788 57.0507 93.478 61.9264 91.2078ZM19.9059 139.033C19.5722 138.163 19.2883 136.475 19.2753 135.283C19.2639 134.09 18.1608 130.462 16.8279 127.22L14.4042 121.324L17.7248 124.543C21.8382 128.53 21.4555 129.509 23.8499 108.865L24.4008 104.115L22.305 107.115C21.1523 108.765 17.9406 114.277 15.1678 119.365C9.3371 130.063 7.35774 131.003 2.91763 125.182C-0.245613 121.034 -0.266033 120.839 2.42114 120.434C4.02895 120.192 5.50267 117.934 8.50202 111.115C13.8725 98.9053 13.9421 98.6148 11.4974 98.6148C8.9331 98.6148 6.29893 97.6273 6.29893 96.6661C6.29893 95.5901 17.6254 92.3391 19.8773 92.7687C23.4148 93.4435 22.6729 97.1269 17.9222 102.476C13.3371 107.639 7.71518 116.364 8.4808 117.13C8.71438 117.364 12.3566 114.081 16.5745 109.835L24.2434 102.115L26.2618 92.1148C27.3719 86.6148 28.2844 81.7773 28.2896 81.3648C28.2934 80.9523 26.7791 80.6148 24.9214 80.6148C23.0638 80.6148 20.9837 79.9397 20.299 79.1147C19.2876 77.8961 19.3323 77.6148 20.5371 77.6148C21.3527 77.6148 23.6778 76.4898 25.704 75.1148C30.0785 72.1462 31.9765 72.0269 35.2159 74.5172L37.6328 76.3751L35.5355 79.0413C32.1552 83.3387 30.1983 94.5766 29.3409 114.615C28.5182 133.846 27.7422 137.772 24.4127 139.554C21.6908 141.011 20.6172 140.887 19.9059 139.033ZM12.7177 70.5397C11.0229 70.0477 8.81569 68.7382 7.81268 67.6299C6.04768 65.6796 6.0479 65.5496 7.82024 63.5911C8.98864 62.3 9.89142 61.9556 10.314 62.6394C10.7456 63.3377 13.7336 62.4459 18.8877 60.0808L26.7988 56.4503L20.8398 53.4108L14.8807 50.3713L17.6037 48.029C19.1014 46.7408 22.097 45.1563 24.2606 44.5081C27.7261 43.4698 30.1259 41.1085 28.9305 39.9131C28.7022 39.6844 26.8545 40.1912 24.8249 41.0394C21.5858 42.3928 20.7937 42.4049 18.3439 41.1381C16.8089 40.3444 15.3432 38.8894 15.0867 37.9049C14.6862 36.3675 15.3445 36.0974 19.7505 35.9918C22.8409 35.9177 26.5863 34.9986 29.1707 33.6801C32.1425 32.164 34.3544 31.6877 36.3684 32.13C40.7931 33.1019 40.8533 34.4138 36.6455 38.1658L32.7989 41.5955L36.8019 41.0168C39.9675 40.5592 41.3794 40.8902 43.5519 42.5991C46.8875 45.2228 47.0035 46.2785 44.0489 47.1234C39.8009 48.3381 33.2989 52.112 33.2989 53.363C33.2989 55.0282 36.1536 54.9392 39.549 53.1681C41.0615 52.3791 42.2921 52.0442 42.2836 52.4241C42.2458 54.0673 40.4555 55.5244 35.299 58.1045C32.274 59.618 27.2449 63.2771 24.1232 66.2356C18.2125 71.8375 17.7666 72.0058 12.7177 70.5397ZM28.1185 48.7865C28.4799 46.3303 27.5174 46.1025 23.846 47.7753C20.7 49.2087 20.5924 50.3419 23.549 50.9018C26.9455 51.5451 27.7687 51.1641 28.1185 48.7865ZM37.299 45.9598C37.299 45.22 36.399 44.6148 35.299 44.6148C33.7216 44.6148 33.2989 45.2814 33.2989 47.7697C33.2989 50.8614 33.339 50.8884 35.299 49.1147C36.399 48.1192 37.299 46.6996 37.299 45.9598ZM67.8562 62.7284C65.8859 58.8159 64.0321 55.6148 63.7367 55.6148C63.4412 55.6148 61.9522 56.2599 60.4275 57.0483C58.562 58.013 57.2518 59.8291 56.4212 62.6012C54.8473 67.8543 52.8547 68.625 49.5059 65.2762L46.8866 62.657L48.614 52.3859C49.564 46.7368 50.3318 39.4393 50.3201 36.1694C50.3012 31.0642 50.6788 29.8279 52.986 27.4195L55.6732 24.6148H52.6085C50.923 24.6148 48.9836 23.9398 48.2989 23.1148C47.2454 21.8454 47.4633 21.6148 49.7164 21.6148C51.1806 21.6148 54.0812 20.7462 56.1622 19.6845C59.2778 18.095 60.3603 17.9627 62.2934 18.9346C66.2922 20.9449 65.6472 22.3309 58.8703 26.2904C54.1235 29.0638 52.503 30.527 52.9736 31.6148C53.3308 32.4398 53.8221 34.8022 54.0658 36.8647C54.3156 38.9796 55.0585 40.6148 55.7691 40.6148C56.4622 40.6148 58.2061 41.5405 59.6445 42.672L62.2597 44.7291L65.2748 41.2951C71.0956 34.6656 76.9907 34.1526 82.6237 39.7856C85.6067 42.7686 85.6379 42.8943 83.7456 44.2947C82.6749 45.087 79.1499 47.1537 75.9122 48.8873L70.0254 52.0392L73.9122 55.4521C78.3306 59.3317 86.7291 63.5905 89.99 63.605C91.195 63.6088 92.4858 64.1079 92.8583 64.7107C94.3089 67.0579 90.6059 68.4557 81.1188 69.1419L71.4386 69.8422L67.8562 62.7284ZM57.7464 51.5148L60.4597 47.4147L58.205 45.0148C56.965 43.6948 55.5788 42.6147 55.1247 42.6147C54.6705 42.6147 54.299 45.5397 54.299 49.1147C54.299 52.6897 54.4641 55.6148 54.6659 55.6148C54.8678 55.6148 56.2541 53.7697 57.7464 51.5148ZM62.1193 54.3313C62.7297 53.5959 62.8278 52.4705 62.3491 51.6961C61.6947 50.6373 61.274 50.7928 60.4063 52.414C59.7972 53.5521 59.2989 54.7379 59.2989 55.0491C59.2989 56.0784 61.0363 55.6363 62.1193 54.3313ZM71.7101 47.538C73.134 45.8458 74.299 44.0826 74.299 43.6198C74.299 43.157 74.5723 42.0666 74.906 41.1966C76.0099 38.3198 70.0291 39.2432 66.9861 42.4195C63.8437 45.6994 63.7399 46.3395 65.9539 48.786C68.1722 51.2371 68.6925 51.1243 71.7101 47.538ZM62.914 33.1499C60.843 29.9891 60.8696 29.8166 63.4878 29.4344C65.1253 29.1951 66.1304 27.7981 67.4788 23.8867C69.3341 18.5049 70.1509 10.1334 68.9389 8.92138C68.5625 8.54494 65.9018 9.2706 63.0266 10.5341C55.9534 13.6426 54.1061 13.9588 52.023 12.4176C50.4557 11.258 51.5101 10.6732 60.9982 7.43982C71.1914 3.96617 71.9304 3.85177 75.2391 5.23425C79.6 7.05636 80.2645 8.10344 80.2836 13.1833C80.3101 20.5865 77.7008 26.9897 72.82 31.4886C67.6821 36.2246 65.2012 36.6406 62.914 33.1499ZM8.04896 30.9255C5.33054 30.2151 5.94041 28.9585 10.5489 25.7749C15.1947 22.5656 25.8966 11.7352 28.7384 7.36704C30.4921 4.67148 30.4811 4.58188 28.1625 2.65035L25.799 0.68135L31.0986 0.647324C40.405 0.588741 45.4357 4.86224 40.8592 8.93857L38.4229 11.1086L42.0031 12.113C46.4351 13.3565 48.2291 15.7883 46.3685 18.0302C44.4912 20.2922 41.9008 19.9914 38.4813 17.114C34.9578 14.1492 34.4818 14.111 31.549 16.5576C28.2833 19.2819 28.7573 20.3555 33.549 21.0871C44.9265 22.8242 46.6257 26.2902 37.292 28.7219C31.5052 30.2296 31.3451 30.2206 32.924 28.4759C34.4579 26.781 34.4076 26.6057 32.1399 25.7436C30.8072 25.2369 29.1017 24.0812 28.3498 23.1752C27.1015 21.6712 26.7143 21.7778 23.8909 24.4033C16.4778 31.2968 13.7577 32.4174 8.04896 30.9255Z" />
</svg>
